<svg id="Layer_1" data-name="Layer 1" xmlns="http://www.w3.org/2000/svg" viewBox="0 0 139.25 55.29"><defs><style>.cls-1{fill:#f2f2f2;}</style></defs><title>about</title><path class="cls-1" d="M149.31,214.47a4.38,4.38,0,0,0-.65-.33,1.67,1.67,0,0,0-.93-.14,6.63,6.63,0,0,0-2.89.86l-1.44.65-.14-.14v-.76a3.77,3.77,0,0,1,.07-.76c.1-.62.18-1.23.25-1.83a7,7,0,0,1,.47-1.77c.24-.76.45-1.52.61-2.26a10.55,10.55,0,0,0,.26-2.34,3.25,3.25,0,0,1,0-.44,1.71,1.71,0,0,0,0-.36c.19-1,.36-2.08.5-3.09s.29-2,.43-3.1a20.4,20.4,0,0,0,.29-2.37,8.15,8.15,0,0,0-.21-2.38,3.93,3.93,0,0,0-.44-1.15,7.15,7.15,0,0,0-.79-.94l-.86-.86a2.06,2.06,0,0,0-1-.51l-3.24-.79a1.4,1.4,0,0,0-.83,0,1.73,1.73,0,0,0-.61.68c-.58,1.2-1.12,2.42-1.62,3.67a32.21,32.21,0,0,0-1.26,3.82c-.14.77-.28,1.52-.4,2.27s-.22,1.52-.32,2.34a6.63,6.63,0,0,1-1.3,3.6l-5.54,8.71q-1.23,1.8-2.34,3.63a25.28,25.28,0,0,1-2.56,3.5.74.74,0,0,0-.18.28.54.54,0,0,1-.18.29l-2.3,2.67a.56.56,0,0,1-.65.14c-.38-.14-.74-.29-1.08-.43a10.64,10.64,0,0,1-1-.51,3.44,3.44,0,0,0-.68-.32,1,1,0,0,0-.68,0,1.11,1.11,0,0,0,.36,1.22l1.44,1.08.64.58a2.17,2.17,0,0,0-.39.54c0,.07,0,.1,0,.1s0,0,0,0l-.4.4-1.94,2q-2,2.24-3.6,4.47a2.58,2.58,0,0,1,.57,1.36,7.78,7.78,0,0,0,.22,1.26,1.3,1.3,0,0,0,.68.83,3.31,3.31,0,0,0,1.91.07c.39.15.58.17.58.08a.85.85,0,0,0-.11-.36.76.76,0,0,1-.07-.47c0-.17.25-.28.68-.33a1.59,1.59,0,0,0,.94-.5c.62-1,1.29-2,2-2.95a27.57,27.57,0,0,0,2-3.1,9.65,9.65,0,0,1,1.08-1.44,4.06,4.06,0,0,1,1.58-1.08c1.2-.29,2.43-.62,3.68-1l2.23-.82a7.89,7.89,0,0,0,2.09-1.19.57.57,0,0,1,.36-.18,1.41,1.41,0,0,0,.43-.18l.21,1.15c.1,1.58.23,3.14.4,4.68a24.44,24.44,0,0,0,1,4.61l.43,1.73V237c0,.17,0,.25-.07.25-.24.1-.35.23-.32.4a4,4,0,0,1,0,.47c.24.91.52,1.79.83,2.63a12.88,12.88,0,0,0,1.26,2.48,2.07,2.07,0,0,0,.51.58l.64.5a4.4,4.4,0,0,0,.54.29.92.92,0,0,0,.69,0c0-.43.14-.64.43-.61a3.52,3.52,0,0,0,.86,0,.55.55,0,0,1,.08-.36l.21-.29.65.65c0-.34.08-.65.11-.94s0-.57,0-.86,0-.78,0-1.19,0-.8,0-1.19c-.05-.57-.09-1.14-.14-1.69s-.12-1.11-.22-1.69S141,235,141,234.23a6.62,6.62,0,0,1,.21-2.16,6,6,0,0,0,.11-.72c0-.24,0-.48,0-.72,0-1,.07-1.91.07-2.84V225c.14-.14.24-.21.29-.21l.14-.15a1,1,0,0,0,.47-.68c.07-.31,0-.49-.25-.54a1.11,1.11,0,0,0-.22.29,1.72,1.72,0,0,1-.29.36c0-.58.12-.91.36-1a.68.68,0,0,0,.51-.47c0-.21.09-.44.14-.68a6.86,6.86,0,0,1,.07-1,6.86,6.86,0,0,0,.07-1,1.08,1.08,0,0,1,.58-.93c1-.58,1.91-1.17,2.84-1.77S148,216,149,215.51c.19-.1.37-.18.54-.25a.8.8,0,0,0,.4-.47A4.37,4.37,0,0,1,149.31,214.47Zm-15.91,1.69c-.05.57-.09,1.16-.11,1.76s0,1.19,0,1.77a1.15,1.15,0,0,1-.72,1,15.13,15.13,0,0,1-3.35,1.73c-.88.29-1.47.28-1.76,0s-.26-.9.07-1.77a15.46,15.46,0,0,1,2.09-3.38l1.73-3.21a8.49,8.49,0,0,1,1.33-2c.36-.33.61-.21.76.36A15.6,15.6,0,0,1,133.4,216.16Z" transform="translate(-112.23 -189.58)"/><path class="cls-1" d="M250.79,206.22a3,3,0,0,0-.68-.07h-3.75l-2.66.22a1.29,1.29,0,0,1-.72-.15,1.76,1.76,0,0,0,.07-.57l.43-1.73.22-1.15a1.91,1.91,0,0,0,0-1,4,4,0,0,1-.11-.54,5,5,0,0,1,0-.61,5,5,0,0,0-.5-2.31,2.05,2.05,0,0,0-.54-.86,1.36,1.36,0,0,0-1.12-.15.19.19,0,0,1-.14.08,2.15,2.15,0,0,0-.68.1,1,1,0,0,1-.69,0,1.23,1.23,0,0,0-.93.29l-.51.57a8.37,8.37,0,0,0-1.26,1.41q-.54.75-1.11,1.62a16.93,16.93,0,0,0-1,2,19.45,19.45,0,0,1-1,2.05,4.69,4.69,0,0,1-.36.9,5.62,5.62,0,0,0-.36.83.91.91,0,0,1-.72.57c-.38.05-.74.09-1.08.11a6,6,0,0,0-1,.18l-3,.65a1.36,1.36,0,0,0-.36.14.88.88,0,0,0,.18.4l.25.25,1.3.79a1.08,1.08,0,0,0,.68.29,4.25,4.25,0,0,1,.69.07c.43.1.66.32.68.65a3.72,3.72,0,0,1-.18,1.23,12,12,0,0,1-.54,1.47,9.44,9.44,0,0,0-.47,1.33l-.65,2.31c-.09.24-.18.48-.25.72s-.13.48-.18.72l-.36,1.44q-.65,2.16-1.11,3.6c-.26.8-.47,1.55-.65,2.27-.22.3-.46.62-.72.93a18.53,18.53,0,0,1-1.62,1.69c-.58.53-1.13,1-1.66,1.41a6.9,6.9,0,0,1-1.44.9,7,7,0,0,1-1.83.32,8,8,0,0,1-1.59-.07,2.42,2.42,0,0,1-1.08-.4.62.62,0,0,1-.32-.64c0-.24.29-1.59.86-4a1.68,1.68,0,0,0,.4-1,3.11,3.11,0,0,1,.25-1c.14-.29.28-.58.4-.87a1.32,1.32,0,0,0,.1-.79c.2-.33.3-.47.33-.39s.08,0,.18-.26a10.91,10.91,0,0,0,.68-2.3,12.09,12.09,0,0,1,.54-2.09.33.33,0,0,1-.1-.32.6.6,0,0,0-.11-.4c-.15-.09-.22-.17-.22-.21v-.11s0,0-.07,0h-.51a1.06,1.06,0,0,0-.28-.07s-.27,0-.65.14a7.45,7.45,0,0,0-.58.8,3.84,3.84,0,0,0-.36.86c-.29.38-.57.79-.86,1.22a13.18,13.18,0,0,0-.79,1.37,2.54,2.54,0,0,1-.4.65,3.31,3.31,0,0,0-.47.79c-.09.19-.2.4-.32.61a3.11,3.11,0,0,1-.54.69,1.43,1.43,0,0,1-.4.39,1.51,1.51,0,0,1-.36.18l-.36.18a1.65,1.65,0,0,0-.39.4,3.65,3.65,0,0,1-2.2,1.15,9.3,9.3,0,0,0-2.77,1c-.1.05-.18,0-.25-.11a3.4,3.4,0,0,1-.22-.43c-.07-.17-.14-.34-.22-.5l-.17-.4c-.2-.14-.25-.43-.15-.86a10,10,0,0,1,.29-1.08,5.64,5.64,0,0,0,.4-1.05c.07-.31.15-.66.25-1a2.11,2.11,0,0,0,.1-.58c0-.29.06-.59.11-.9a8.62,8.62,0,0,1,.18-.86,2.11,2.11,0,0,1,.25-.61,10.63,10.63,0,0,1,.51-1.55c.24-.6.48-1.23.72-1.87s.48-1.29.72-1.91a10.66,10.66,0,0,0,.5-1.59v-.39a.49.49,0,0,0-.14-.33,1,1,0,0,1-.29-.43.44.44,0,0,0-.29-.29,1.86,1.86,0,0,0-1.58-.79c-.19,0-.3,0-.33.11a1.12,1.12,0,0,0,0,.29.72.72,0,0,1-.11.36,1.28,1.28,0,0,1-.54.39,1.15,1.15,0,0,1-.65.36,4,4,0,0,0-.72.22,4.8,4.8,0,0,0-.54.32,1.12,1.12,0,0,0-.39.54,10.47,10.47,0,0,0-.72,1.26l-.58,1.19a12.75,12.75,0,0,1-1,1.84L200.89,219c-.55.94-1,1.84-1.51,2.7a8.74,8.74,0,0,0-.82,2,5.17,5.17,0,0,0-.35,1.23c-.63.09-1.21.15-1.71.17s-1.27,0-1.87,0-1.24,0-1.91,0-1.44,0-2.3,0a.85.85,0,0,1-.68-.29.58.58,0,0,1-.11-.65,3.37,3.37,0,0,0,.07-1.19,5.31,5.31,0,0,1,0-1.26,3.43,3.43,0,0,0,0-.39q0-.33,0-.54a2.56,2.56,0,0,1-.15-.83,6,6,0,0,0-.07-.9,8.49,8.49,0,0,1-.21-1.08,9.12,9.12,0,0,0-.22-1,4.82,4.82,0,0,1-.36-.76c-.1-.26-.19-.54-.29-.82a4.93,4.93,0,0,0-1.44-2.16,4.83,4.83,0,0,1-.68-.51l-.69-.57a3,3,0,0,1-.46-.36c-.22-.2-.46-.4-.72-.62a9.17,9.17,0,0,0-.76-.54,1.24,1.24,0,0,0-.58-.21,3.22,3.22,0,0,0-2.3.36c-.43.24-.83.48-1.19.72a11.65,11.65,0,0,0-1,.72.67.67,0,0,0-.5.36,6.24,6.24,0,0,0-.72,1.73,4.51,4.51,0,0,0-.08,1.8,16.84,16.84,0,0,0,.47,2.37,9.84,9.84,0,0,0,.9,2.16.29.29,0,0,1,.07.22.77.77,0,0,1-.29.43c-.52.67-1,1.34-1.47,2A11.9,11.9,0,0,0,176,225l-.18.11-6.12,3.74c-.67.43-1.08.49-1.22.18a3.57,3.57,0,0,1-.18-1.48c0-.67,0-1.44,0-2.3a4.59,4.59,0,0,0-.58-2.3l-.86-1.08a3.09,3.09,0,0,0-3-1.37h-.36a1.71,1.71,0,0,0-1.15.43c-.24.19-.48.4-.72.61a4.4,4.4,0,0,0-.65.76c-.43.57-.85,1.15-1.26,1.73s-.8,1.15-1.18,1.72a7.45,7.45,0,0,0-.58.87,6.75,6.75,0,0,1-.58.86c-.38.29-.62.31-.71.07a2.16,2.16,0,0,1-.08-1,10.32,10.32,0,0,1,.25-1.4,5.78,5.78,0,0,0,.18-.87,3,3,0,0,0,.18-.65c.08-.33.15-.69.22-1.08s.14-.75.22-1.11a2.21,2.21,0,0,1,.25-.76L159,218l.25-.65c.07-.19.16-.38.25-.58a4.19,4.19,0,0,0,.58-1.22,5.93,5.93,0,0,1,.83-1.62c.4-.6.73-1.09,1-1.48s.49-.84.75-1.22.54-.77.83-1.15a5.64,5.64,0,0,0,.43-.65,8,8,0,0,1,.51-.72,3.09,3.09,0,0,0,.57-.76,3.6,3.6,0,0,1,.58-.75l.86-1.08c.44-.39.8-.72,1.08-1a5.58,5.58,0,0,0,.87-1.22,4.18,4.18,0,0,1,.32-.29l.58-.51c.21-.19.41-.37.57-.54s.26-.27.26-.32a1.48,1.48,0,0,1,.21-.43l.11-.11a.35.35,0,0,1,.11-.07,1.7,1.7,0,0,0,.29-.4c0-.05.14,0,.28.15a3.2,3.2,0,0,1,.44.54,3.52,3.52,0,0,0,.43.54c.14.14.24.16.29.07.14-.48.27-1,.39-1.48a1.68,1.68,0,0,0-.18-1.33c-.24-.38-.56-.92-1-1.62s-.73-1.24-1-1.62l-.72-.58-.51-.36q-.21-.13-.21-.21a1.06,1.06,0,0,1-.47-.25c-.22-.17-.46-.36-.72-.58s-.52-.42-.76-.61-.38-.31-.43-.36-.26-.06-.5.11a1.28,1.28,0,0,1-.5.25q-.15,0-.51.36l-.65.79c-.77.86-1.51,1.75-2.23,2.66s-1.42,1.83-2.09,2.74a3.3,3.3,0,0,1-.29.5c-.09.15-.19.32-.28.51-.24.38-.47.77-.69,1.15a9.91,9.91,0,0,0-.54,1.15,5.6,5.6,0,0,1-.5.94,6.91,6.91,0,0,0-.51.93,9.09,9.09,0,0,0-.61,1l-.54,1c-.57,1.1-1.13,2.23-1.65,3.38l-1.59,3.46c-.24.57-.47,1.15-.68,1.73a8.82,8.82,0,0,0-.47,1.87,3,3,0,0,1-.36,1c-.19.67-.37,1.32-.54,1.94a16.64,16.64,0,0,0-.4,1.94l-.5,2.88c0,.24-.08.45-.11.62a5.16,5.16,0,0,0,0,.61c0,.24,0,.5,0,.79a7.93,7.93,0,0,0,.11.79,9.12,9.12,0,0,0,.36,1.66,2.61,2.61,0,0,0,1.8,1.73l.54.25a4.27,4.27,0,0,0,.54.18,3.16,3.16,0,0,0,.65-.07,2.24,2.24,0,0,1,.57-.08h.51a.79.79,0,0,1,.32-.07.49.49,0,0,0,.33-.14,3.85,3.85,0,0,1,.5-.22,1.53,1.53,0,0,1,.51-.07,1.15,1.15,0,0,0,1.15-.94l.28-.79.22-.65a2.36,2.36,0,0,0,.5-1.36c.1-.44.24-.7.44-.8A1.45,1.45,0,0,0,160,226a2,2,0,0,1,.5-1.08,2.23,2.23,0,0,0,.65-1.15,1.28,1.28,0,0,1,.57-.86l.65-.72a2.8,2.8,0,0,1,1.44-1c.53-.1.87-.07,1,.07a2.17,2.17,0,0,1,.36,1,14.57,14.57,0,0,1,0,2.09,8.71,8.71,0,0,1-.43,2.16c-.15.52-.3,1-.47,1.47l-.54,1.48a2.86,2.86,0,0,1-.72,1.15l-3.17,2.81c-.72.67-1.43,1.35-2.12,2.05s-1.38,1.43-2.05,2.2a17.56,17.56,0,0,0-1.34,1.65,12.91,12.91,0,0,0-1.11,1.95,2.41,2.41,0,0,0,.39.82l.54.69.54.65a1.16,1.16,0,0,0,.69.36,1,1,0,0,0,0,.25.62.62,0,0,1,0,.25,2.72,2.72,0,0,0,.76.18,1.38,1.38,0,0,1,.75.32h.15a2.82,2.82,0,0,0,1.44-.07,2.26,2.26,0,0,0,1.15-.57,3.35,3.35,0,0,1,1.08-.65,3.61,3.61,0,0,0,1.65-1.51.58.58,0,0,1,.18-.22,1.52,1.52,0,0,0,.26-.22l.86-.79a8.28,8.28,0,0,0,1-1.22c.29-.43.6-.87.94-1.3a2.5,2.5,0,0,1,.57-.79,1.87,1.87,0,0,0,.43-.94l.07-.14a1.56,1.56,0,0,0,.22-.47,2.92,2.92,0,0,1,.22-.54,9.41,9.41,0,0,0,.32-1,6.93,6.93,0,0,1,.22-.75,2.55,2.55,0,0,1,.36-.69,3.2,3.2,0,0,1,.9-.79,7,7,0,0,0,.9-.79,7.29,7.29,0,0,1,1.26-1,5.56,5.56,0,0,1,.72-.61,3.09,3.09,0,0,1,.79-.4,1,1,0,0,1,.32-.21.81.81,0,0,0,.33-.29,1.69,1.69,0,0,1,.79-.61l.68-.34a10.07,10.07,0,0,0-.32,1.6,11.06,11.06,0,0,0-.11,2,16.94,16.94,0,0,0,.18,2l.65,1.94a7.41,7.41,0,0,0,1.22,1.55,3,3,0,0,0,1.66.76,7.81,7.81,0,0,0,1.44.14,5.52,5.52,0,0,0,1.51-.22,1.41,1.41,0,0,1,.72-.28,4.2,4.2,0,0,0,2-1.37.62.62,0,0,1,.43-.43l.5-.36a2,2,0,0,0,.58-.54c.14-.22.29-.45.43-.69l.72-1a6.28,6.28,0,0,0,.65-1.15c.24-.62.5-1.22.79-1.8a6,6,0,0,0,.58-1.8,1.36,1.36,0,0,0,.14-.36c0-.14.14-.21.43-.21h.22l2.55,0c1.08,0,2.19-.1,3.32-.22a16.53,16.53,0,0,0,3.07-.61c.09.54.17,1,.24,1.37a4,4,0,0,0,.32,1,2.2,2.2,0,0,0,.61.75,12.9,12.9,0,0,0,1.05.76,5,5,0,0,0,1.33.43,7.1,7.1,0,0,0,1.47.22,9.75,9.75,0,0,1,1.62-.22,4.91,4.91,0,0,0,2-.57l2.13-1.3a10.48,10.48,0,0,0,2-1.51V228a12.55,12.55,0,0,0-.29,1.65,9.15,9.15,0,0,0,0,1.37c0,.43.08.88.15,1.33s.15,1,.25,1.55a1.76,1.76,0,0,0,1.19,1.37,7.53,7.53,0,0,0,2.3.54,10.5,10.5,0,0,0,2.45-.07,5.24,5.24,0,0,0,1.69-.47A1.59,1.59,0,0,1,219,235c.12-.08.32-.06.61,0a2.26,2.26,0,0,1,.29-.25,2,2,0,0,1,.5-.25c.34-.19.58-.34.72-.43a5,5,0,0,0,.58-.51,3,3,0,0,0,.68-.36,2.4,2.4,0,0,1,.68-.29,21.09,21.09,0,0,0,2.31-2.16L226,230c-.07.89-.11,1.94-.11,3.18.05.53.12,1.13.22,1.8a13.3,13.3,0,0,0,.36,1.73,3.42,3.42,0,0,0,.43,1c.19.29.39.6.58.93a6,6,0,0,0,.79,1.19,11.62,11.62,0,0,0,1.15,1.19,12.72,12.72,0,0,0,1.3,1,2.87,2.87,0,0,0,1.22.5,6.06,6.06,0,0,0,1.37.15,13.9,13.9,0,0,0,1.44-.08,2.53,2.53,0,0,0,.65-.14q.44-.15.93-.36c.34-.14.66-.28,1-.4a3.39,3.39,0,0,0,.68-.32,11,11,0,0,0,1.66-1.51,12,12,0,0,1,1.72-1.59,4.24,4.24,0,0,0,.76-.82c.41-.51.84-1.06,1.3-1.66l1.26-1.66c.38-.5.62-.82.72-1l1.94-3.67,1.37-3.46a1.4,1.4,0,0,0,.21-.46c.1-.27.2-.56.29-.87s.18-.59.25-.83a1.74,1.74,0,0,0,.11-.5c0-.19,0-.31,0-.36s.11-.19.11-.43,0-.11-.22,0a1,1,0,0,1-.58,0l-1.36,3.09a8.61,8.61,0,0,0-.83,2,10.6,10.6,0,0,1-.83,2,8.32,8.32,0,0,1-.83,1.3c-.36.48-.74,1-1.15,1.44s-.82.94-1.22,1.37l-1,1.08c-.09.09-.29.26-.57.5s-.6.48-.94.72-.65.48-.94.72a3.46,3.46,0,0,1-.57.43,2.19,2.19,0,0,1-1.3.36h-1.29a.31.31,0,0,1-.18,0,.14.14,0,0,0-.11,0,3.09,3.09,0,0,0-.33-.39,1.93,1.93,0,0,1-.32-.47,13,13,0,0,1-.47-1.62,13.49,13.49,0,0,1-.25-1.69,15.09,15.09,0,0,1,.07-2.45c.1-1,.22-1.93.36-2.92s.33-1.89.54-2.73a13.64,13.64,0,0,1,.61-1.91,1.56,1.56,0,0,0,.33-.83,1.88,1.88,0,0,1,.25-.83q.28-.44.54-.9a4.83,4.83,0,0,0,.4-1,6.22,6.22,0,0,1,.36-1.08c.14-.34.31-.7.5-1.08l.36-.79c.48-1.2,1-2.38,1.51-3.53a38.57,38.57,0,0,0,1.44-3.6l.15-.22a.85.85,0,0,1,.57-.57l1.66-.22a1.41,1.41,0,0,1,.47-.07.86.86,0,0,0,.46-.14,5.08,5.08,0,0,1,1.52-.22,3.33,3.33,0,0,0,1.29-.11A8.66,8.66,0,0,1,249,208l.07-.07,1.58-.72.51-.36.28-.43Zm-89.1,28.59a20.16,20.16,0,0,1-1.15,1.8,3,3,0,0,1-.47.61,7,7,0,0,0-.54.61l-.43.72a7.38,7.38,0,0,1-.94,1.26,4.58,4.58,0,0,1-1.15.9,5.86,5.86,0,0,1-1.4.5c-.31,0-.51,0-.58-.1s0-.31.11-.54a2.53,2.53,0,0,1,.65-.72l.14-.15a10.33,10.33,0,0,0,1-1,11.42,11.42,0,0,1,1-1,1.75,1.75,0,0,1,.22-.18.41.41,0,0,0,.14-.18,4.3,4.3,0,0,1,.94-1.11,4.81,4.81,0,0,0,.93-1,1.83,1.83,0,0,1,.47-.43,3.29,3.29,0,0,1,.61-.32.45.45,0,0,1,.43,0C161.86,234.41,161.84,234.57,161.69,234.81Zm23.55-6.45a3.75,3.75,0,0,1-.44.9c-.38.82-.79,1.62-1.22,2.41a10.67,10.67,0,0,1-1.58,2.2l-.29.22a.26.26,0,0,1-.15.07,1.59,1.59,0,0,1-.79-.87c-.1-.19-.12-.31-.07-.36v-.57a2.3,2.3,0,0,1,.07-.58l.58-1.62a6.37,6.37,0,0,1,.79-1.47,4.9,4.9,0,0,1,1.44-1.34,2.16,2.16,0,0,1,1.94.18C185.43,227.77,185.33,228.05,185.24,228.36Zm1.87-5.94a2.36,2.36,0,0,1-1.26,1.48,2.17,2.17,0,0,1-1.84-.22,4.69,4.69,0,0,1-1.8-2.05,12.77,12.77,0,0,1-1.29-1.76,8.69,8.69,0,0,1-1-2.16,6.9,6.9,0,0,1-.25-2.31,4.14,4.14,0,0,1,.79-2.19c.15-.15.34-.33.58-.54a4.59,4.59,0,0,1,.79-.58,3.42,3.42,0,0,1,.83-.36.82.82,0,0,1,.75.18,6.11,6.11,0,0,1,.65.43c.19.15.41.31.65.51a1.12,1.12,0,0,1,.54.39,3,3,0,0,0,.4.47,3.83,3.83,0,0,1,1,1.73c.19.77.36,1.53.5,2.3a3,3,0,0,1,.07,1.73A6,6,0,0,1,187.11,222.42ZM239,210.76a8.17,8.17,0,0,1-.43,1.22c-.34.67-.6,1.24-.8,1.69s-.4,1-.64,1.7-.54,1.39-.9,2.16a9.3,9.3,0,0,1-.94,1.65c-.26.34-.41.35-.43,0a12.45,12.45,0,0,1,.54-2.7c.33-1.11.61-2.13.83-3.06s.51-2,.9-3.21a3.31,3.31,0,0,1,1.33-.61c.31,0,.5.06.57.25A1.53,1.53,0,0,1,239,210.76Zm2.3-9.79-.29,1.72-.21,1-.43,2.23a1.13,1.13,0,0,1-.54.72,1.16,1.16,0,0,1-.8.15,1.13,1.13,0,0,1-.68-.43,1.28,1.28,0,0,1-.14-1.08c.09-.39.18-.77.25-1.16s.15-.76.25-1.15l.43-.93.29-.65c.1-.34.2-.66.32-1a9.37,9.37,0,0,1,.4-.9,1.77,1.77,0,0,1,.65-.72c.19-.2.33-.12.43.21s.08.66.11,1A4.65,4.65,0,0,1,241.32,201Z" transform="translate(-112.23 -189.58)"/></svg>