<svg id="Layer_1" data-name="Layer 1" xmlns="http://www.w3.org/2000/svg" viewBox="0 0 142.45 39.97"><defs><style>.cls-1{fill:#f2f2f2;}</style></defs><title>contact</title><path class="cls-1" d="M135.49,266.86a19.66,19.66,0,0,0-.85-4.36,12,12,0,0,0-1.82-3.64,5.85,5.85,0,0,0-2.76-2,4.54,4.54,0,0,0-3.62.54A1.75,1.75,0,0,0,125,258c-.22.23-.72.81-1.48,1.74s-1.56,2-2.41,3.1-1.66,2.27-2.42,3.41a12.75,12.75,0,0,0-1.48,2.73c-.53,1-1,2.06-1.51,3.1s-.94,2.06-1.39,3a2.25,2.25,0,0,0,.4-.51l.28-.51h.23a8.37,8.37,0,0,0-.4,1,10,10,0,0,1-.4,1c-.19.57-.39,1.16-.62,1.79s-.44,1.22-.63,1.79-.36,1.41-.51,2.08-.32,1.33-.51,2c-.08.45-.15.88-.23,1.28a6.92,6.92,0,0,0-.11,1.22,12.85,12.85,0,0,0,0,2,8.18,8.18,0,0,0,.42,2l.23.57a2.9,2.9,0,0,1,.17.63,1.87,1.87,0,0,0,.28.79,4.59,4.59,0,0,0,.52.63,9.21,9.21,0,0,0,1.3,1.28,4.94,4.94,0,0,0,1.6.82,1.73,1.73,0,0,0,.85.12h.54a2.59,2.59,0,0,1,.54,0,6.49,6.49,0,0,0,1.31.43,3.89,3.89,0,0,0,1.36,0,7.26,7.26,0,0,1,2.28,0,1.44,1.44,0,0,0,1.59-.86l.26-.37a1.3,1.3,0,0,1,.31-.31,10.07,10.07,0,0,0,1.45-2.13,32.21,32.21,0,0,0,1.37-2.93c.43-1.06.85-2.13,1.25-3.21s.78-2.06,1.16-2.93a4,4,0,0,0,.23-.86,4.91,4.91,0,0,0,.06-.74,2.36,2.36,0,0,0-.51-1.19,1.5,1.5,0,0,0-1.37-.34l-1.73.25a8.37,8.37,0,0,0-1.74.49,2.29,2.29,0,0,0-1.14,1,1.38,1.38,0,0,0,0,1.31,1.6,1.6,0,0,1,.06,1.25c-.15.5-.28,1-.4,1.45a13.26,13.26,0,0,1-.45,1.51,14.27,14.27,0,0,1-.86,1.77,2.83,2.83,0,0,1-1.08,1.19c-.38.19-.75.05-1.11-.43a7.6,7.6,0,0,1-.88-3.1l-.17-1.3c0-.5-.07-1-.11-1.4a8.06,8.06,0,0,1,0-1.39c.07-.61.17-1.22.28-1.85s.21-1.22.29-1.79c.11-1.18.28-2.41.51-3.7a20.09,20.09,0,0,1,1.36-4.78c.23-.6.49-1.19.77-1.76s.56-1.18.83-1.82a12.44,12.44,0,0,1,.65-1.25,4.84,4.84,0,0,1,.94-1.14,4.12,4.12,0,0,0,.8-1.48,2.06,2.06,0,0,1,.62-.94,3.43,3.43,0,0,1,1.22-.85,1,1,0,0,1,1.09.11c.28.25.35.92.19,2v.46c0,.64-.06,1.32-.08,2s-.07,1.37-.14,2l-.17,2.16-.23,4.32a.42.42,0,0,0,.4.46c.3.07.58.14.85.19l.85.2a5,5,0,0,0,1.88-.11,3.52,3.52,0,0,0,1.65-1.08,5.34,5.34,0,0,0,1.28-2.79A14.94,14.94,0,0,0,135.49,266.86Z" transform="translate(-111.8 -256.66)"/><path class="cls-1" d="M253.71,267.79a3.1,3.1,0,0,0-.54-.05h-3l-2.1.17a1,1,0,0,1-.57-.12,1.36,1.36,0,0,0,.06-.45l.34-1.37.17-.91a1.5,1.5,0,0,0,0-.79,4.15,4.15,0,0,1-.09-.43,3.23,3.23,0,0,1,0-.48,4.06,4.06,0,0,0-.39-1.82,1.82,1.82,0,0,0-.43-.69,1.07,1.07,0,0,0-.88-.11.17.17,0,0,1-.12.06,1.91,1.91,0,0,0-.54.08.73.73,0,0,1-.54,0,1.05,1.05,0,0,0-.74.23l-.39.46a6.52,6.52,0,0,0-1,1.11c-.28.39-.58.82-.88,1.28a13.52,13.52,0,0,0-.8,1.62,15.12,15.12,0,0,1-.79,1.62,3.51,3.51,0,0,1-.29.71,4.11,4.11,0,0,0-.28.65.75.75,0,0,1-.57.46c-.31,0-.59.06-.86.08a3.67,3.67,0,0,0-.79.15l-2.33.51a1.1,1.1,0,0,0-.29.11.75.75,0,0,0,.14.31l.2.2,1,.63a.9.9,0,0,0,.54.23,3.5,3.5,0,0,1,.54.05c.34.08.52.25.54.52a2.81,2.81,0,0,1-.14,1c-.12.38-.26.77-.43,1.17a8,8,0,0,0-.37,1l-.51,1.82c-.08.19-.14.38-.2.57a4,4,0,0,0-.14.57l-.29,1.14c-.34,1.13-.63,2.08-.88,2.84v0l-.36.3a9,9,0,0,0-1.31,1.25l-.85,1a12.93,12.93,0,0,1-1.56,1.39c-.67.51-1.21,1-1.62,1.34a9.81,9.81,0,0,1-1.06.74,11.32,11.32,0,0,1-1.39.71c-.49.21-1,.39-1.42.54a6.61,6.61,0,0,1-1.14.28,1.3,1.3,0,0,0-.46.12,4.54,4.54,0,0,1-.62.19,2.51,2.51,0,0,1-.63.09.55.55,0,0,1-.39-.11,5.32,5.32,0,0,1-.46-.69l-.51-1.13a1.85,1.85,0,0,1-.17-1.2,2.3,2.3,0,0,0,0-.48.94.94,0,0,1,.12-.43l.45-1.45a7.6,7.6,0,0,1,.57-1.34l1.37-2.84a14.4,14.4,0,0,1,1.19-2.05l.71-.91a5.26,5.26,0,0,0,.66-1l.22-.17a1.33,1.33,0,0,0-.05.34,12,12,0,0,0-.57,1.62q-.23.82-.51,1.68l-.17.79a.56.56,0,0,0,.22.57l.17.12a4.45,4.45,0,0,1,.54.25,2.18,2.18,0,0,1,.49.37.44.44,0,0,0,.34.12.37.37,0,0,0,.17,0,.37.37,0,0,1,.17,0,1,1,0,0,0,.74-.68,13,13,0,0,0,1-2.9,5.88,5.88,0,0,0,.05-.86,7.17,7.17,0,0,0-.17-1.59,2.47,2.47,0,0,1-.14-.51c0-.15-.05-.32-.08-.51l.34-.52a.08.08,0,0,1,0-.11s0-.07,0-.11a1.07,1.07,0,0,1-.06-.74.69.69,0,0,0-.22-.63.45.45,0,0,0-.46.06.22.22,0,0,1-.17.06.12.12,0,0,1-.09,0s0,0-.08,0a2.93,2.93,0,0,0-1.88-.57s0,0,0,0a2.61,2.61,0,0,0-1.31.28,1.76,1.76,0,0,1-.51.12,2,2,0,0,0-1.2.4,11.23,11.23,0,0,0-1,.82l-1,.88a4,4,0,0,0-.79.8c-.23.3-.46.63-.69,1l-.45.68-.91,1.59a8.46,8.46,0,0,0-.74,1.76l-.46,1.2a8,8,0,0,0-.25,1,9,9,0,0,1-1,1.22l-.91.8-1.25.74-.54.31a4.49,4.49,0,0,1-.54.26,3,3,0,0,1-.6.17l-.59.11a.54.54,0,0,1-.51-.28,5.42,5.42,0,0,1-.52-1.42,2,2,0,0,1,.17-1.2l.8-1.59a.87.87,0,0,0,.11-.28,7,7,0,0,0-.14-.86,2,2,0,0,0-.37-.79l-.34-.35a1.24,1.24,0,0,0-1.25-.39l-1.19,1.93c-.16.23-.31.45-.46.65a4.77,4.77,0,0,1-.51.6l-.46.51a3.18,3.18,0,0,1-.85,1,19.13,19.13,0,0,0-1.88,1.65l-.22.17v-.23a6.54,6.54,0,0,1,.68-1.87,1.05,1.05,0,0,1,.23-.34l.56-.8c.23-.3.45-.61.66-.91a9.39,9.39,0,0,1,.71-.91l.68-.74a5.92,5.92,0,0,1,.91-1c.34-.31.67-.61,1-.91v-.06a7.53,7.53,0,0,1,.68-.51,4.78,4.78,0,0,1,.74-.4,1,1,0,0,0,.51-1.14l-.17-.45a2.28,2.28,0,0,0-.42-.52c-.17-.15-.36-.32-.54-.51a.42.42,0,0,0-.29-.11.65.65,0,0,1-.4-.14.57.57,0,0,0-.4-.15l-.11-.05a.41.41,0,0,0-.25-.2l-.37-.09a.83.83,0,0,1-.35-.11,2,2,0,0,0-.59-.14,2,2,0,0,1-.6-.15h-.17a4.63,4.63,0,0,0-.54,0l-.54.09a1.19,1.19,0,0,0-.51.11,10.8,10.8,0,0,0-2.16,1.76c-.42.54-.85,1.07-1.28,1.6a19.62,19.62,0,0,0-1.23,1.65.31.31,0,0,0-.11.17,4.55,4.55,0,0,0-.77,1q-.31.54-.6,1.11h0l-1.08,2.45a6.86,6.86,0,0,0-.66,1.53,9.08,9.08,0,0,1-.65,1.6,6.6,6.6,0,0,1-.66,1c-.28.38-.58.76-.91,1.14s-.64.74-1,1.08l-.83.85c-.07.08-.23.21-.45.4s-.48.38-.74.57-.51.38-.74.57a3.21,3.21,0,0,1-.46.34,1.69,1.69,0,0,1-1,.28h-1a.24.24,0,0,1-.15,0l-.08,0a2,2,0,0,0-.26-.32,1.2,1.2,0,0,1-.25-.37,7.84,7.84,0,0,1-.37-1.28,8.37,8.37,0,0,1-.2-1.33,12,12,0,0,1,.05-1.94c.08-.75.18-1.52.29-2.3a17.55,17.55,0,0,1,.43-2.16,10.53,10.53,0,0,1,.48-1.51,1.12,1.12,0,0,0,.25-.65,1.55,1.55,0,0,1,.2-.66,7,7,0,0,0,.43-.71,3.45,3.45,0,0,0,.31-.77,5.66,5.66,0,0,1,.29-.85c.11-.26.24-.55.4-.85l.28-.63c.38-.95.78-1.88,1.19-2.79a30,30,0,0,0,1.14-2.84l.12-.17c.11-.26.26-.42.45-.45l1.31-.18a1.44,1.44,0,0,1,.37,0,.65.65,0,0,0,.37-.12,4.23,4.23,0,0,1,1.19-.17,2.77,2.77,0,0,0,1-.08,6.34,6.34,0,0,1,1-.2l.06-.06,1.25-.57.4-.28.23-.34-.54-.12a3.1,3.1,0,0,0-.54-.05h-3l-2.1.17a1,1,0,0,1-.57-.12,1.75,1.75,0,0,0,0-.45l.34-1.37.18-.91a1.5,1.5,0,0,0,0-.79,4.15,4.15,0,0,1-.09-.43,3.23,3.23,0,0,1,0-.48,3.93,3.93,0,0,0-.4-1.82,1.69,1.69,0,0,0-.42-.69,1.09,1.09,0,0,0-.89-.11.14.14,0,0,1-.11.06,1.91,1.91,0,0,0-.54.08.73.73,0,0,1-.54,0,1,1,0,0,0-.74.23l-.4.46a6.46,6.46,0,0,0-1,1.11c-.29.39-.58.82-.88,1.28a13.52,13.52,0,0,0-.8,1.62,13.52,13.52,0,0,1-.8,1.62,3.5,3.5,0,0,1-.28.71,4.17,4.17,0,0,0-.29.65.71.71,0,0,1-.56.46c-.31,0-.59.06-.86.08a3.67,3.67,0,0,0-.79.15l-2.34.51a1.26,1.26,0,0,0-.28.11.64.64,0,0,0,.14.31l.2.2,1,.63a.9.9,0,0,0,.55.23,3.5,3.5,0,0,1,.54.05c.34.08.52.25.54.52a2.85,2.85,0,0,1-.15,1,10.36,10.36,0,0,1-.42,1.17,6.73,6.73,0,0,0-.37,1l-.52,1.82c-.07.19-.14.38-.19.57s-.11.38-.15.57l-.28,1.14c-.34,1.13-.64,2.08-.88,2.84-.15.45-.27.87-.38,1.28l-.48.4-.68.57-.37.31a5.63,5.63,0,0,1-.85.91q-.57.51-1.2,1c-.41.34-.82.67-1.22,1a10.67,10.67,0,0,1-1,.68l-.46.2-.4.2a2.65,2.65,0,0,1-.62.2,2.86,2.86,0,0,1-.83.06,1.61,1.61,0,0,1-.74-.23.9.9,0,0,1-.37-.71,9.09,9.09,0,0,1,0-1c0-.4,0-.82,0-1.28s.09-.9.15-1.33A9.69,9.69,0,0,1,172,283c.16-.53.27-1,.35-1.4s.17-.86.28-1.39a3.78,3.78,0,0,0,.14-1.17,8.68,8.68,0,0,0-.14-1.16,1.69,1.69,0,0,0-.23-.85,1.47,1.47,0,0,0-1-.86,4,4,0,0,0-1-.08,4.08,4.08,0,0,1-1.08-.09h-.56a1.77,1.77,0,0,0-1.2.85L166.43,278c-.3.34-.58.64-.82.88s-.5.49-.74.71a9.09,9.09,0,0,0-.74.77c-.25.29-.54.62-.89,1l-.65.77-.48.56a5,5,0,0,1-.51.52l-.69.65c-.38.19-.65.13-.82-.17s-.07-.76.31-1.37c.15-.22.27-.39.34-.51a1.38,1.38,0,0,0,.17-.31,3.24,3.24,0,0,0,.12-.34,3,3,0,0,1,.22-.54,20.36,20.36,0,0,0,1.26-3.22,13.11,13.11,0,0,0,.51-3.15,5.25,5.25,0,0,0,0-.88,1.57,1.57,0,0,0-.26-.77l-.85-1.14c-.12-.19-.21-.28-.29-.28a2.55,2.55,0,0,1-1.53-1c-.16-.22-.38-.24-.69-.05a1,1,0,0,1,0,.19.64.64,0,0,0,0,.2,6.86,6.86,0,0,1-.63,1.54q-.23.51-.51,1l-.57,1q-.45.79-1,1.68a18.52,18.52,0,0,0-1,1.79q-1,2.16-1.88,4.26c-.11.24-.2.46-.31.69-.5.07-1,.12-1.36.14l-1.48,0-1.51,0c-.53,0-1.14,0-1.82,0a.68.68,0,0,1-.54-.23.48.48,0,0,1-.09-.51,2.48,2.48,0,0,0,.06-.94,4.18,4.18,0,0,1,0-1s0-.14,0-.31a3.73,3.73,0,0,1,0-.43,2.16,2.16,0,0,1-.11-.65,4.74,4.74,0,0,0-.06-.71c-.07-.3-.13-.59-.17-.85a5.42,5.42,0,0,0-.17-.8,3.28,3.28,0,0,1-.28-.6c-.08-.21-.15-.43-.23-.65a4.09,4.09,0,0,0-1.14-1.71,2.9,2.9,0,0,1-.54-.4l-.54-.45a1.8,1.8,0,0,1-.37-.29l-.57-.48c-.21-.17-.41-.31-.59-.43a1,1,0,0,0-.46-.17,2.59,2.59,0,0,0-1.82.29c-.34.19-.65.38-.94.57s-.54.38-.77.56a.52.52,0,0,0-.39.29,4.93,4.93,0,0,0-.57,1.36,3.43,3.43,0,0,0-.06,1.43,12.63,12.63,0,0,0,.37,1.87,7.61,7.61,0,0,0,.71,1.71.22.22,0,0,1,.06.17c-.08.19-.15.3-.23.34q-.63.79-1.17,1.59a9.56,9.56,0,0,0-.93,1.77,9.19,9.19,0,0,0-1,3.13,8.26,8.26,0,0,0-.09,1.56,14.17,14.17,0,0,0,.15,1.56l.51,1.54a5.89,5.89,0,0,0,1,1.22,2.34,2.34,0,0,0,1.31.6,5.51,5.51,0,0,0,1.14.11,4.22,4.22,0,0,0,1.19-.17,1.11,1.11,0,0,1,.57-.22,3.41,3.41,0,0,0,1.6-1.08.49.49,0,0,1,.34-.35l.4-.28a1.33,1.33,0,0,0,.45-.43c.11-.17.23-.35.34-.54l.57-.79a5.26,5.26,0,0,0,.51-.91,15.44,15.44,0,0,1,.63-1.43,4.44,4.44,0,0,0,.45-1.42.92.92,0,0,0,.12-.28c0-.12.11-.17.34-.17h.17l2,0c.85,0,1.72-.08,2.61-.17a14,14,0,0,0,1.76-.32c-.1.27-.21.53-.3.8a23.49,23.49,0,0,0-1,3.16c-.25,1-.48,2.07-.71,3.1a2.19,2.19,0,0,0,.17,1.53,1.77,1.77,0,0,0,1,.86,2.75,2.75,0,0,0,.57.05,1.45,1.45,0,0,1,.56.12,7.3,7.3,0,0,0,.94,0,3.67,3.67,0,0,1,.94.12.77.77,0,0,0,.4,0,1,1,0,0,0,.51-.2,2.28,2.28,0,0,1,.8-.29,1,1,0,0,0,.74-.34,3.65,3.65,0,0,0,.39-.91c.16-.45.32-.95.49-1.48s.34-1,.51-1.48a2.91,2.91,0,0,1,.48-.91,1.52,1.52,0,0,1,.46-.56,3.42,3.42,0,0,0,.4-.52c.11-.19.24-.39.39-.62a5.78,5.78,0,0,1,1-1.31c.31-.3.61-.63.91-1s.59-.68.85-1a9.61,9.61,0,0,1,1.11-1.34c.44-.43.85-.86,1.23-1.28l.57-.6a4.56,4.56,0,0,0,.51-.65c.3-.34.53-.44.68-.31a1,1,0,0,1,.28.68,4.92,4.92,0,0,1,0,1.14q-.09.64-.15,1.11c0,.38,0,.74,0,1.08s-.05.7-.09,1.08q.06,4.83,3.7,6a5.3,5.3,0,0,0,1,.17,11.1,11.1,0,0,0,1.42,0c.5,0,1-.06,1.4-.12a3.78,3.78,0,0,0,.94-.2l.68-.22.45-.23a1.47,1.47,0,0,0,.4-.29l.63-.65,1-1c.35-.36.67-.71,1-1.06l.39-.43c-.07.76-.1,1.7-.1,2.82,0,.42.09.9.17,1.43a9.22,9.22,0,0,0,.28,1.36,2.76,2.76,0,0,0,.34.8c.15.22.31.47.46.74a5.18,5.18,0,0,0,.62.93,8,8,0,0,0,.91.94,9,9,0,0,0,1,.8,2.27,2.27,0,0,0,1,.4,5.34,5.34,0,0,0,1.08.11,10.88,10.88,0,0,0,1.14-.06,1.56,1.56,0,0,0,.51-.11c.23-.08.48-.17.74-.28l.77-.32a2.83,2.83,0,0,0,.54-.25,8.41,8.41,0,0,0,1.31-1.2,9.4,9.4,0,0,1,1.36-1.25,3.36,3.36,0,0,0,.6-.65c.32-.4.67-.84,1-1.31l1-1.31c.3-.4.49-.65.57-.77l1.54-2.9.93-2.37a4.19,4.19,0,0,0,2.65,3.17c.15.08.29.14.43.2a3.9,3.9,0,0,1,.42.2,2.91,2.91,0,0,0,2.33.17l.66-.23a1.6,1.6,0,0,0,.6-.45l.11-.06.62-.4a6.38,6.38,0,0,1,1.2-.74,3,3,0,0,0,.62.57,5.81,5.81,0,0,0,.74.4l.29.17a2.71,2.71,0,0,0,.94.48l1,.31h.51a3.38,3.38,0,0,1,.69-.14,2.08,2.08,0,0,0,.62-.14,2.84,2.84,0,0,1,.68-.14,4.34,4.34,0,0,0,.74-.14,2.91,2.91,0,0,0,1.09-.57c.18-.19.37-.37.56-.54l.57-.54a.56.56,0,0,1,.28-.22c0,.37,0,.75.06,1.13A5.06,5.06,0,0,0,218.3,290a11,11,0,0,0,2.22,1.26c.38.15.91.35,1.59.59a3.39,3.39,0,0,0,1.65.26,2.11,2.11,0,0,1,.6-.06c.29,0,.57,0,.85,0s.57,0,.86,0h.59a2,2,0,0,0,.6-.17c.29-.12.58-.25.88-.4l.86-.43a5.94,5.94,0,0,0,.57-.31,14.74,14.74,0,0,0,1.93-1.42l1.82-1.94c.19-.22.38-.47.57-.74s.18-.27.27-.4c-.07.75-.1,1.68-.1,2.79,0,.42.09.9.17,1.43a10.73,10.73,0,0,0,.28,1.36,2.76,2.76,0,0,0,.34.8,7.25,7.25,0,0,1,.46.74,4.77,4.77,0,0,0,.63.93,6.68,6.68,0,0,0,.91.94,8.9,8.9,0,0,0,1,.8,2.25,2.25,0,0,0,1,.4,5.34,5.34,0,0,0,1.08.11,10.69,10.69,0,0,0,1.13-.06,1.66,1.66,0,0,0,.52-.11l.74-.28c.26-.12.52-.22.76-.32a2.83,2.83,0,0,0,.54-.25,8,8,0,0,0,1.31-1.2,9.38,9.38,0,0,1,1.37-1.25,3.91,3.91,0,0,0,.59-.65c.33-.4.67-.84,1-1.31l1-1.31c.31-.4.5-.65.57-.77l1.54-2.9,1.08-2.73a1.28,1.28,0,0,0,.17-.37c.08-.21.15-.43.23-.68s.14-.46.2-.65a2.06,2.06,0,0,0,.08-.4c0-.15,0-.25,0-.29s.09-.15.09-.34,0-.08-.18,0a.7.7,0,0,1-.45,0l-1.08,2.45a6.84,6.84,0,0,0-.65,1.53,9.11,9.11,0,0,1-.66,1.6,7.28,7.28,0,0,1-.65,1c-.29.38-.59.76-.91,1.14s-.65.74-1,1.08-.6.62-.83.85a4.73,4.73,0,0,1-.45.4c-.23.19-.47.38-.74.57s-.51.38-.74.57a4.19,4.19,0,0,1-.45.34,1.74,1.74,0,0,1-1,.28h-1c-.08,0-.13,0-.14,0l-.09,0a2.72,2.72,0,0,0-.25-.32,1.06,1.06,0,0,1-.26-.37,9,9,0,0,1-.37-1.28,9.69,9.69,0,0,1-.2-1.33,11.06,11.06,0,0,1,.06-1.94c.07-.75.17-1.52.28-2.3a19.64,19.64,0,0,1,.43-2.16,10.53,10.53,0,0,1,.48-1.51,1.2,1.2,0,0,0,.26-.65,1.42,1.42,0,0,1,.2-.66,7,7,0,0,0,.42-.71,3.48,3.48,0,0,0,.32-.77,5.64,5.64,0,0,1,.28-.85c.11-.26.25-.55.4-.85l.28-.63q.57-1.43,1.2-2.79c.41-.91.79-1.85,1.13-2.84l.12-.17c.11-.26.26-.42.45-.45l1.31-.18a1.5,1.5,0,0,1,.37,0,.63.63,0,0,0,.37-.12,4.3,4.3,0,0,1,1.2-.17,2.72,2.72,0,0,0,1-.08,6.21,6.21,0,0,1,1-.2l.05-.06,1.25-.57.4-.28.23-.34Zm-63.79-.74c.08-.3.14-.6.2-.91s.12-.6.2-.91l.34-.74.23-.51c.07-.26.16-.52.25-.77s.2-.48.32-.71a1.3,1.3,0,0,1,.51-.56c.15-.16.26-.1.34.17s.07.52.09.76a3.33,3.33,0,0,1,0,.77l-.23,1.37-.17.79-.34,1.77a.9.9,0,0,1-1.59.34A1,1,0,0,1,189.92,267.05Zm-2.22,8.88c.27-.87.49-1.68.66-2.42s.4-1.58.71-2.53a2.53,2.53,0,0,1,1.05-.48c.25,0,.4,0,.46.19a1.39,1.39,0,0,1,0,.69,6.57,6.57,0,0,1-.34,1c-.27.54-.48,1-.63,1.34s-.32.81-.51,1.34-.43,1.1-.71,1.7a7.17,7.17,0,0,1-.74,1.31c-.21.27-.32.28-.34,0A10.3,10.3,0,0,1,187.7,275.93Zm-44.48,9.35a2.63,2.63,0,0,1-.34.72c-.3.64-.62,1.27-1,1.9a8.86,8.86,0,0,1-1.26,1.74l-.22.17a.21.21,0,0,1-.12.05,1.23,1.23,0,0,1-.62-.68c-.08-.15-.1-.25-.06-.28v-.46a1.74,1.74,0,0,1,.06-.45c.19-.53.34-1,.45-1.28a5.52,5.52,0,0,1,.63-1.17,3.89,3.89,0,0,1,1.14-1.05,1.68,1.68,0,0,1,1.53.14C143.37,284.82,143.3,285,143.22,285.28Zm1.48-4.69a1.83,1.83,0,0,1-1,1.17,1.7,1.7,0,0,1-1.45-.17,3.73,3.73,0,0,1-1.42-1.62,9.25,9.25,0,0,1-1-1.4,7,7,0,0,1-.77-1.7,5.57,5.57,0,0,1-.2-1.82,3.29,3.29,0,0,1,.63-1.74l.45-.43a3.59,3.59,0,0,1,.63-.45,2.71,2.71,0,0,1,.65-.28.64.64,0,0,1,.6.14,4.11,4.11,0,0,1,.51.34c.16.11.33.25.52.4a.86.86,0,0,1,.42.31,2.83,2.83,0,0,0,.32.37,3,3,0,0,1,.79,1.36c.15.61.29,1.22.4,1.82a2.39,2.39,0,0,1,.06,1.37A4.59,4.59,0,0,1,144.7,280.59Zm99.71-9.21a6.57,6.57,0,0,1-.34,1c-.27.54-.48,1-.63,1.34s-.32.81-.51,1.34-.43,1.1-.71,1.7a6.61,6.61,0,0,1-.74,1.31c-.21.27-.32.28-.34,0a9.92,9.92,0,0,1,.43-2.13c.26-.87.48-1.68.65-2.42s.41-1.58.71-2.53a2.64,2.64,0,0,1,1-.48c.25,0,.4,0,.46.19A1.18,1.18,0,0,1,244.41,271.38Zm1.82-7.74L246,265l-.17.79-.34,1.77a.89.89,0,0,1-.43.56.87.87,0,0,1-.62.12.88.88,0,0,1-.54-.34,1.06,1.06,0,0,1-.12-.86,9.21,9.21,0,0,0,.2-.91c.06-.3.13-.6.2-.91l.34-.74.23-.51c.08-.26.16-.52.26-.77s.2-.48.31-.71a1.44,1.44,0,0,1,.51-.56c.15-.16.27-.1.34.17s.07.52.09.76A3.33,3.33,0,0,1,246.23,263.64Z" transform="translate(-111.8 -256.66)"/></svg>