<svg id="Layer_1" data-name="Layer 1" xmlns="http://www.w3.org/2000/svg" viewBox="0 0 437.2 645.6"><defs><style>.cls-1{fill:#3d79f2;}</style></defs><title>crunican_tinted</title><path class="cls-1" d="M509.6,452.34l-.5-.2C509.1,452.64,509.3,452.34,509.6,452.34Z" transform="translate(-150.4 -133.44)"/><polygon class="cls-1" points="357.4 323.6 357.8 323.2 357.1 323.2 357.4 323.6"/><path class="cls-1" d="M509.2,456.14c-.2-.3-1.6-.1-1.6-1C507,456,508.5,456.14,509.2,456.14Z" transform="translate(-150.4 -133.44)"/><path class="cls-1" d="M507.7,452.94c.1-.5-.7-.7-.9-1.1-.4,0,0,.5.1.8-.2,0-.3-.1-.5-.2C506.4,453.44,507.1,452.24,507.7,452.94Z" transform="translate(-150.4 -133.44)"/><path class="cls-1" d="M502,456.14l.1-.1-.6-.3C501.7,455.94,501.9,456,502,456.14Z" transform="translate(-150.4 -133.44)"/><path class="cls-1" d="M510.8,468.94l.6-1C510.3,467.64,510.9,468.44,510.8,468.94Z" transform="translate(-150.4 -133.44)"/><path class="cls-1" d="M509,469.56l.42-.12A.62.62,0,0,0,509,469.56Z" transform="translate(-150.4 -133.44)"/><path class="cls-1" d="M509.6,452.34l.3.1A.37.37,0,0,0,509.6,452.34Z" transform="translate(-150.4 -133.44)"/><path class="cls-1" d="M510.8,456c-.1-.2-.5-.1-.6-.3.2-.5.1-.4-.3-.5C510.3,455.54,510,456.24,510.8,456Z" transform="translate(-150.4 -133.44)"/><path class="cls-1" d="M508.3,468.24l.3.7c.1-.3-.3-.6.4-.8.2.4,1.1.9,1.5.1C509.5,468.14,509.2,467.84,508.3,468.24Z" transform="translate(-150.4 -133.44)"/><path class="cls-1" d="M474.2,458.54a.87.87,0,0,0-.8.6C473.8,459,473.9,459.14,474.2,458.54Z" transform="translate(-150.4 -133.44)"/><path class="cls-1" d="M501.5,453.54l-.7-.3h.2l-.2-.4c.17.94-.6.35-1.08,0C500.17,453.22,500.73,454,501.5,453.54Z" transform="translate(-150.4 -133.44)"/><path class="cls-1" d="M473.3,458.64c-.6.3-1-.5-1.4.2C472.4,458.64,472.8,459.54,473.3,458.64Z" transform="translate(-150.4 -133.44)"/><path class="cls-1" d="M471.5,464.24l-.1-.1a.6.6,0,0,1-.1.4C471.5,464.54,471.6,464.44,471.5,464.24Z" transform="translate(-150.4 -133.44)"/><path class="cls-1" d="M477.9,460.34c.4-.3,1.5.2,1.3-.7l-1.1.2C478.1,460.14,477.6,460.14,477.9,460.34Z" transform="translate(-150.4 -133.44)"/><path class="cls-1" d="M485.1,457.64v-.8c-.4.3-1.1-.1-.9-.3-.2.5-.7.3-.3,1C484,457.54,485,457.24,485.1,457.64Z" transform="translate(-150.4 -133.44)"/><path class="cls-1" d="M491.7,453.14l-.3.1c.5-.2.4.9,1.1.3l-.4.1c.5-.3-.8-.6,0-1,.3-.1-.7-.4-1.1-.1C491.1,452.94,491.9,452.64,491.7,453.14Z" transform="translate(-150.4 -133.44)"/><path class="cls-1" d="M487.6,456.54c-.1.3-.8.4-1.3.7C486.8,457.84,487.7,456.94,487.6,456.54Z" transform="translate(-150.4 -133.44)"/><path class="cls-1" d="M505.1,474.54h-.5C504.6,474.64,504.7,474.74,505.1,474.54Z" transform="translate(-150.4 -133.44)"/><path class="cls-1" d="M408.4,448.24l.1.4C408.9,448.44,409.1,448.34,408.4,448.24Z" transform="translate(-150.4 -133.44)"/><polygon class="cls-1" points="355.1 336.2 356.3 335.4 355 336.2 355.1 336.2"/><path class="cls-1" d="M313.1,443.14a1.93,1.93,0,0,0,1.1-.4A.78.78,0,0,0,313.1,443.14Z" transform="translate(-150.4 -133.44)"/><path class="cls-1" d="M495.9,477c-.2-.1-.6.1-.8-.2a1.4,1.4,0,0,1,.9-.3.76.76,0,0,1-.2-.4,4.3,4.3,0,0,1-2.15.94l0,.06-.05,0a3.93,3.93,0,0,1-.45,0,.23.23,0,0,0-.05.15l.25.15a.36.36,0,0,1-.07.1c.28.21.78.37,1,.5C493.4,476.24,495.4,477.94,495.9,477Z" transform="translate(-150.4 -133.44)"/><path class="cls-1" d="M504.6,470.44l.9-.3a1.23,1.23,0,0,0-1.2,0c.07.22-.05.38-.26.53l1.16-.23Z" transform="translate(-150.4 -133.44)"/><path class="cls-1" d="M495.8,476.14c.1-.1.2-.2.2-.3C495.8,475.94,495.8,476,495.8,476.14Z" transform="translate(-150.4 -133.44)"/><path class="cls-1" d="M496.3,476.74c-.1-.1-.2-.2-.3-.2C496.1,476.74,496.2,476.74,496.3,476.74Z" transform="translate(-150.4 -133.44)"/><path class="cls-1" d="M292.3,464.54a1.74,1.74,0,0,1,.14.27C292.66,464.65,292.49,464.63,292.3,464.54Z" transform="translate(-150.4 -133.44)"/><path class="cls-1" d="M340,429.24c.8.2,1.2.8,1.3-.6a.36.36,0,0,0-.29-.15H341C340.61,428.52,340.22,429,340,429.24Z" transform="translate(-150.4 -133.44)"/><path class="cls-1" d="M488.4,477.54l.16-.24h-.05l-.51.25Z" transform="translate(-150.4 -133.44)"/><path class="cls-1" d="M471.2,466.24l.4-.4c-.3.2-.3.1-.4,0,.2-.5.7-.3,1-.4-.3-.1-1,0-1.2-.4a2.19,2.19,0,0,1,.3-.5c-.1,0-.3-.1-.4.1s.1.3.1.4C470.6,465.54,470.3,466.14,471.2,466.24Z" transform="translate(-150.4 -133.44)"/><path class="cls-1" d="M504.2,474.54h.4C504.5,474.24,504.7,473.84,504.2,474.54Z" transform="translate(-150.4 -133.44)"/><path class="cls-1" d="M504.4,473.84c.4,0,1.3-.7,1.2-1C505.7,472.64,504.8,473.54,504.4,473.84Z" transform="translate(-150.4 -133.44)"/><path class="cls-1" d="M505.5,471.34c-.1-.2-.4-.2-.7-.2C505,471.14,504.9,471.54,505.5,471.34Z" transform="translate(-150.4 -133.44)"/><path class="cls-1" d="M467.2,466.74l-.3.1c-.2.5.4.4.7.2C467.5,466.94,467.5,466.74,467.2,466.74Z" transform="translate(-150.4 -133.44)"/><path class="cls-1" d="M481.28,478l-.46-.07.28.42Z" transform="translate(-150.4 -133.44)"/><path class="cls-1" d="M493.7,452.14a5.47,5.47,0,0,0-.59-.49,6,6,0,0,1-.67.34C493,452.68,493.12,451.85,493.7,452.14Z" transform="translate(-150.4 -133.44)"/><path class="cls-1" d="M441.3,429.94l-.4.6v-.2l-.5.1c1.2,0-.1.9-.3,1.3C440.4,431.34,441.6,430.94,441.3,429.94Z" transform="translate(-150.4 -133.44)"/><path class="cls-1" d="M462.8,421c-.3,0-.7-.3-.1.4Z" transform="translate(-150.4 -133.44)"/><path class="cls-1" d="M447,461.14c0-.1,0-.2-.3-.3l-.1.1A.52.52,0,0,1,447,461.14Z" transform="translate(-150.4 -133.44)"/><path class="cls-1" d="M467,435.34a2.78,2.78,0,0,0,0,.5Z" transform="translate(-150.4 -133.44)"/><path class="cls-1" d="M443.9,454c-.3-.4.4-1.3-.5-1.3v1.1C443.7,453.84,443.6,454.34,443.9,454Z" transform="translate(-150.4 -133.44)"/><path class="cls-1" d="M462.9,420.54l-.1.5C462.9,420.94,463,420.94,462.9,420.54Z" transform="translate(-150.4 -133.44)"/><path class="cls-1" d="M458.8,419a1.18,1.18,0,0,0,.2,1.9c0-.5.1-1,.1-1.5l-.2.6Z" transform="translate(-150.4 -133.44)"/><path class="cls-1" d="M457.74,415.37c0,.14,0,.29.06.47.2,0,.4-.1.6-.1C458.16,415.5,457.85,415.71,457.74,415.37Z" transform="translate(-150.4 -133.44)"/><path class="cls-1" d="M461.3,419.74c-.1-.1.5.9.7,1.3C462.1,420.74,461.7,419.64,461.3,419.74Z" transform="translate(-150.4 -133.44)"/><path class="cls-1" d="M457.74,415a1.23,1.23,0,0,0,.16-2C457.9,414,457.76,414.46,457.74,415Z" transform="translate(-150.4 -133.44)"/><path class="cls-1" d="M448.5,465.44l.1.4c.5.2.5-.4.3-.8C448.8,465.14,448.6,465.14,448.5,465.44Z" transform="translate(-150.4 -133.44)"/><path class="cls-1" d="M441.77,422l-.1,0-.17.23C441.8,422.29,441.76,422.16,441.77,422Z" transform="translate(-150.4 -133.44)"/><path class="cls-1" d="M463.29,429.4a.13.13,0,0,0,0,.06.26.26,0,0,0,.22.08A.85.85,0,0,0,463.29,429.4Z" transform="translate(-150.4 -133.44)"/><path class="cls-1" d="M465.93,444.18s0,.08,0,.11l.11-.05Z" transform="translate(-150.4 -133.44)"/><path class="cls-1" d="M465.5,436.74h0c0,.1,0,.2-.05.3l.06.1Z" transform="translate(-150.4 -133.44)"/><path class="cls-1" d="M441.2,424.84c1,.2,0-.7.7-1.3h0a4.18,4.18,0,0,1-.92.91,4.31,4.31,0,0,1,.55-.1C441.5,424.54,441.4,424.64,441.2,424.84Z" transform="translate(-150.4 -133.44)"/><path class="cls-1" d="M459.6,420.54V420C459.5,420.14,459.5,420.24,459.6,420.54Z" transform="translate(-150.4 -133.44)"/><path class="cls-1" d="M447,461.34h.27a2.1,2.1,0,0,1-.27-.2C446.9,461.34,446.9,461.44,447,461.34Z" transform="translate(-150.4 -133.44)"/><path class="cls-1" d="M438,438.44c.8-.4,0-.7.4-1.2-.15.12-.35.23-.5.36a3.72,3.72,0,0,1-.19.34C437.7,438.08,437.77,438.24,438,438.44Z" transform="translate(-150.4 -133.44)"/><path class="cls-1" d="M441.1,447.34c.4.3.2.7.8.5,0-.2-.2-1.1.3-1.2l-.7-.2C441.8,446.94,441.3,447.54,441.1,447.34Z" transform="translate(-150.4 -133.44)"/><path class="cls-1" d="M465.6,430.94c-1.8,1-.2-1-1.1-1.5-.1.2,0,.6-.2.8a1.49,1.49,0,0,1-.4-.9.76.76,0,0,1-.4.2,6.36,6.36,0,0,1,1.3,2.6C465.2,432.34,465.5,431.24,465.6,430.94Z" transform="translate(-150.4 -133.44)"/><path class="cls-1" d="M441.7,444c.2.1.3.8.5,1.4C442.9,445,442.1,443.94,441.7,444Z" transform="translate(-150.4 -133.44)"/><path class="cls-1" d="M448.2,461.24c-.5-.2-.2-.7-.2-1-.19.28-.12,1-.52,1.17.56.46,1,.79,1.22-.07a.68.68,0,0,1-.28-.28l-.12-.12C448.4,461.14,448.3,461.14,448.2,461.24Z" transform="translate(-150.4 -133.44)"/><path class="cls-1" d="M441.5,457.44c0,.4.2.8.5.8C442,457.94,442.1,457.74,441.5,457.44Z" transform="translate(-150.4 -133.44)"/><path class="cls-1" d="M439,439.24l.1.4c-.1-.5,1-.2.5-1v.5c-.12-.36-.39,0-.63.09Z" transform="translate(-150.4 -133.44)"/><path class="cls-1" d="M443.5,430.34a.94.94,0,0,0,.28-.21h0a.91.91,0,0,0,.17-.23l0-.05-.1-.1C443.8,429.94,443.6,430.14,443.5,430.34Z" transform="translate(-150.4 -133.44)"/><path class="cls-1" d="M438.72,439.2a.52.52,0,0,1-.12-.26c-.1-.4-.5.6-.3.9C438.52,439.77,438.53,439.31,438.72,439.2Z" transform="translate(-150.4 -133.44)"/><path class="cls-1" d="M441.5,458.34c.2.7-.7.9-.1,1.4C441.3,459.24,442.3,458.94,441.5,458.34Z" transform="translate(-150.4 -133.44)"/><path class="cls-1" d="M444.5,422.34c.1-.1.2-.2.2-.3C444.6,422.14,444.5,422.24,444.5,422.34Z" transform="translate(-150.4 -133.44)"/><path class="cls-1" d="M454.8,407.44a1.46,1.46,0,0,0,0,.2Z" transform="translate(-150.4 -133.44)"/><path class="cls-1" d="M464.1,429c-.1.1-.2.2-.2.3C464.1,429.24,464.1,429.14,464.1,429Z" transform="translate(-150.4 -133.44)"/><path class="cls-1" d="M458.6,412.94l-1.1-1.1C457.4,413.44,458,412.64,458.6,412.94Z" transform="translate(-150.4 -133.44)"/><path class="cls-1" d="M439.7,442.84c0,.1-.1.2-.1.3A.37.37,0,0,0,439.7,442.84Z" transform="translate(-150.4 -133.44)"/><path class="cls-1" d="M458.6,412.94l.4.4A.78.78,0,0,0,458.6,412.94Z" transform="translate(-150.4 -133.44)"/><path class="cls-1" d="M459.6,420c.1-.2.4,0,.4-.6A.55.55,0,0,0,459.6,420Z" transform="translate(-150.4 -133.44)"/><path class="cls-1" d="M445.4,422.94c-.4.1-.4,1.5-1.3,1.3C444.8,425,445.2,423.64,445.4,422.94Z" transform="translate(-150.4 -133.44)"/><path class="cls-1" d="M445.6,421.34c-.2.1-.2.4-.4.5-.4-.2-.3-.1-.5.2C445,421.84,445.6,422.14,445.6,421.34Z" transform="translate(-150.4 -133.44)"/><path class="cls-1" d="M445.5,424.64l.5-.2-.3-.4C445.6,424.24,445.6,424.44,445.5,424.64Z" transform="translate(-150.4 -133.44)"/><path class="cls-1" d="M368.3,644.34a.1.1,0,0,1-.1.1.1.1,0,0,0-.1.1c-.1.1,0,.2.1.3a.76.76,0,0,0,.4.1.35.35,0,0,0,.1-.2C368.6,644.54,368.5,644.34,368.3,644.34Z" transform="translate(-150.4 -133.44)"/><path class="cls-1" d="M433.6,631.44a3.93,3.93,0,0,1-.2-.6,10.13,10.13,0,0,1-.6-1.7c-.5-1.1-.7-1.9-.9-2.3s-.5-1.6-1.1-3.7c-.2-.9-.5-1.8-.8-2.9a16.87,16.87,0,0,1-.3-2.2l-.1-.3a50.24,50.24,0,0,1-.7-5,4.91,4.91,0,0,0-.1-1.1,5.81,5.81,0,0,1-.1-1c0-.5-.1-1-.1-1.8s-.1-1.3-.1-1.5c-1.5-.7-2.3-1-2.5-1.1,0-.1-.1-.1-.3-.1-1.6-.5-2.6-.7-2.9-.8-1.7-.5-2.6,0-2.8,1.6a24.35,24.35,0,0,1-.4,3.5,43.89,43.89,0,0,0-.4,7,7.72,7.72,0,0,0,.6-1.5,5.5,5.5,0,0,0,.3-1.6.82.82,0,0,1,1.2.1,6.91,6.91,0,0,0-.2,1.5v1.4a5.42,5.42,0,0,1-.2,1.5c-.4,1.2-.8,2.2-1.1,3,0,.1.1.3.1.4a2.54,2.54,0,0,1,.2.7,5.64,5.64,0,0,1,.1.7c0,.4.1.6.1.8a1.55,1.55,0,0,0,.2.8,3.26,3.26,0,0,1,.6,1.2,6.47,6.47,0,0,1,.3,1,5.74,5.74,0,0,1,.4.7,7.93,7.93,0,0,1,.4.9,2,2,0,0,1,.3.8.1.1,0,0,0,.1.1.37.37,0,0,1,.1.3,7.08,7.08,0,0,0,1.1,2.1,19.65,19.65,0,0,0,1.5,2,13.89,13.89,0,0,0,2.8,2.5,2.35,2.35,0,0,0,2.3,0,5.47,5.47,0,0,0,3-3.6c.1-.4.1-.7.2-.8s.1-.1.1-.3.2-.3.1-.3Z" transform="translate(-150.4 -133.44)"/><path class="cls-1" d="M254.1,524.74a.84.84,0,0,0,.28.15C254.31,524.66,254.38,524.18,254.1,524.74Z" transform="translate(-150.4 -133.44)"/><path class="cls-1" d="M254.46,525h0Z" transform="translate(-150.4 -133.44)"/><path class="cls-1" d="M457.2,588.44a.84.84,0,0,0-.8-.6h-1.7c-.4.5-.6.8-.7.8a2.26,2.26,0,0,1,.3,1c.2.5.3.9.4,1.1a9.67,9.67,0,0,0,3.1,4.7,5.29,5.29,0,0,0,.6-1.3c.1-.4.1-.7.2-1.2a1.48,1.48,0,0,0-.1-.7A12.09,12.09,0,0,0,457.2,588.44Z" transform="translate(-150.4 -133.44)"/><path class="cls-1" d="M277.9,628.84a8.32,8.32,0,0,0-2.5-1.2,1.31,1.31,0,0,0-1.7.9,3.71,3.71,0,0,0-.2.9,4.72,4.72,0,0,0,1.3,4.3l.8.2h1a5.84,5.84,0,0,1,1.5-.2,2.21,2.21,0,0,0,2-1.1A6.07,6.07,0,0,0,277.9,628.84Z" transform="translate(-150.4 -133.44)"/><path class="cls-1" d="M299.4,632.64a.84.84,0,0,0-.8-.6h-1.7c-.4.5-.6.8-.7.8a2.26,2.26,0,0,1,.3,1c.2.5.3.9.4,1.1a9.67,9.67,0,0,0,3.1,4.7,5.29,5.29,0,0,0,.6-1.3,5,5,0,0,1,.2-1.2,1.48,1.48,0,0,0-.1-.7A12.09,12.09,0,0,0,299.4,632.64Z" transform="translate(-150.4 -133.44)"/><path class="cls-1" d="M150.4,133.44v434.1h.1C154.2,684.94,250.7,779,369,779s214.7-94.1,218.5-211.5h.1V133.44Zm364,320.3-.3.2C514,453.74,513.9,453.54,514.4,453.74Zm-4.5-1.8a4.88,4.88,0,0,1-.3-.7C509.9,451.54,510,451.84,509.9,451.94Zm-24.4.1.8.1v.1l-.8-.1Zm-14.3,7.4-.4-.2c.2-.1.5-.1.6-.3l-.3-.2c.2-.2,2.4-.9,3.6-1.7l-.9-.1,1.4-.1-.5-.6c.7.4,1.9-.7,3.1-1l-.2-.4.8-.1-.4-.2c.66-.28,1.75.13,2.38-.4h-.06c-.4.14-.66-.35-.22,0h.22a.54.54,0,0,0,.18-.1l-.12.1h2.12c0-.33.61-.66.36-.82l-.26-.08a.66.66,0,0,1,.26.08l.74.22-.2-.3a7.83,7.83,0,0,1,2.5-.7,20.85,20.85,0,0,1,2.5,0,20.08,20.08,0,0,0,2.5-.1,5.29,5.29,0,0,0,1.54-.45l0-.05c.26-.42.49-.42.71-.29l.19-.11-.1-.1c.7.2,1.4.5,2.1.7.3-.1.4-.8,1-1.1-.2.7,1.2,0,1.6.6.4-.3-.1-.5-.2-.8,2-.8,3.5.4,5.7.1a11.65,11.65,0,0,1-3.6,1c1.7.5,2-.3,3.8.1l-.8-.4c1.1-1,2.8.8,3.2-.3,1.1.4,1.9,1.6,3.2,1.7l-.4-1.1a5,5,0,0,1,1.2.2l-.1.7c.4.1.6.1.7-.1.3.6.6.7,1.5,1a15.45,15.45,0,0,1,2.2,1.2l.4-.2c.1.1.2.2.2.3a1.84,1.84,0,0,1,1.3-.1c.5.1.8.2,1.1,0-.1,0-.2-.2-.3-.3a2.19,2.19,0,0,0-.5-.3c-.4-.2-.7-.3-.8-.1-.5-.5,0-.5.8-.2.2.1.4.1.6.2s.3.2.5.3a9.22,9.22,0,0,0,.8.5c-1.1-.3-.1.5.2.8.1,0,0-.2.1-.3a1.64,1.64,0,0,1,1.1,1.1.76.76,0,0,0,.2.5c0,.1.2.2.5.3.1.1.2.1.4.1l-.6.4a6.07,6.07,0,0,1,1,.7c-.6.2-.5.6-.4,1s.1.8-.5,1c-.1,1.2.8-.3.6.2a2.87,2.87,0,0,1-.8,2c-.4.6-.9,1-.7,1.2-1.1.6-1.5,1.4-2.6,1.8l.5.3a6.14,6.14,0,0,0-1.8.7c.1.1.2.1.4.1-.5.2-1,.4-1.4.6l-.6.3-.3.2-.2.1-1.2.9c.3.3.5.5,1,.2-.3,1-2.3,1.1-3.2,2.3l.3.1-.9.3c.3,0,.3.2.5.4-1,1.1-2.5,2.5-3.9,2.1.6,0-.1,1,.9.8-1.7.4-3.3,1.8-5.1,2.4v-.1c-.3,0-.5.1-.8.1v.1a1.27,1.27,0,0,1,.6-.1,4.71,4.71,0,0,1-2,.2c-.1.2-.1.8-.4,1.1-.2-.7-1.8,1.3-2.9.7,0,.3.4.1.2.4-2.3.4-5.6-.1-8.1.5-.3-1.3-2.3-1-3.6-1.6-.3.8.8.4,1.1,1-.7-.1-.1,1-1.4.4.1.1,0,.2.3.2-.8.1.1-1-1-.7v.6l-.7-.7c-2.3.4-4.3,0-6.3.6-.1-.2-.1-.4.2-.6-.9,0-2-.9-3-.3l.3.2c-1.7.5-1.7-.7-3.7-.8.4-.1,1.4.3,1.5-.4-.2-.4-1.2-.4-1.5,0l.1-.8c.3.5,1,.4,1.6.6-.2-.1-.2-.2-.3-.4.5.2,1.2.2,1.9.4l-1,.1c.4.7,1.7-.1,2.1.2,0-.7-.6-.6,0-1.2,1.7-.3,1,.7,2.6,1.3l-.3.2c.5.1.9.8,1.6.3-.1-.5-.6-.5-.9-.7.2-.3,1,.8,1.5.3a3.46,3.46,0,0,0-2.6-.9.85.85,0,0,0,0-.7c1.24.25,2.53.57,3.82.78l-.12-.18h.7l-.12.25a11.55,11.55,0,0,0,3.42.05c-1.3-.9.6-.1.3-1,.1.7.9,0,1.6.3.3-.7-1.3-.5-.8-1a24.21,24.21,0,0,1,2.71,1l.09-.05,0,.06a3.76,3.76,0,0,0,1.94.14c-.1-.2-.5-.3-.6-.4,1.06.1,2.68,1.49,3.33.5a.39.39,0,0,1-.18-.25c-.47-.27-1-.6-1.55-.85.2,0,.3-.1.6-.3l-.4-.5c1.17-.29,1.11.93,1.85,1.46l.1,0,.65-.84a4.35,4.35,0,0,1,4,0c.2-.1,1.3-.6.6-1-1-.6-1.5-1.1-2.8-.7a.21.21,0,0,0,0,.14.48.48,0,0,1,.09.13c.29.22,1,.07.69.23-.6,0-1.5.7-2.1.3l1.5-.3a1.85,1.85,0,0,0-.09-.23.2.2,0,0,1-.09-.13c-.25-.24-.5.38-.82.06.2-.9,1.2-.3,1.7-.9h-.1a17,17,0,0,1,2.2-.4c.4.8-.2.7-.6,1.2.9-.3,2.1-.5,3.3-.9a4,4,0,0,0,2.5-2.4c-.5,0-.9.1-1.4.1a6.33,6.33,0,0,1,1.14-.77l-.34.07a1.34,1.34,0,0,1,.6-.6.78.78,0,0,0-.2-.3c-.4.8-.6.1-1,.2v.1c-.1.1-.5.1-.4-.1.8.1,1.7-.5,2.5-.7-.4.1-.1-.6-.2-.8.6-.4.3.3.5.6.3-.3,1.2-.3,1-.9,0-.7-.9.1-1.3-.1.7-.3,1.4-.7,2.1-1l-.1-.1a.67.67,0,0,0,.7-.4c-.1-.4-.5-.1-.7.2.5-1.3,2.4-.5,2.4-2.1l.7-.2c0-.1-.1-.3-.2-.3l.8-.1c.3-.2.4-.2.4-.3s-.1-.2-.2-.3-.4-.5-.4-.6-.1-.5-.3-.5h.9c.8.2,2.1-.2,3.8.2.1-.2,0-.4-.4-.4.3-.2-.1-.2-.4-.3s-.59-.2-.11-.49h-.05c-.33-.07-.35,0-.54.11a.76.76,0,0,1,.5-.2,2.2,2.2,0,0,1-.8-.1c.8,0,.8-.3.7-.5-.4.1-.9.2-1.4.3.7-.2.9-.3.7-.6l-.9.3a3,3,0,0,1,1-.4c.3-.1.5-.2,0-.4a3.13,3.13,0,0,1,1,.5,1.67,1.67,0,0,1,1.1-.9,3.16,3.16,0,0,0,1.3-.7c.1-.3-.2-.6-.5-.7-.5-.2-1.2-.3-1.6-.5s-.7-.4-.6-1c-.6.3-.6.5-1.3.7.5.4.7.7.1,1.3,0,.43.58.23,1.19,0h0c.52-.19,1.07-.38,1.3-.2s.1.2,0,.4c-.7.2-1,.2-1.2.1a.37.37,0,0,1-.1-.3h0a2.14,2.14,0,0,0-1,.69c0,.1-.1.2-.2.3a.1.1,0,0,0-.1-.1,2.79,2.79,0,0,0-1-.1c-.3,0-.6.1-.7,0,.1-.3,0-.8-.3-.7.2-.2.1-.4,0-.7a.81.81,0,0,1,.2-1c-1-.5-.9,1-1.7-.2.2.8-.8.4-.5,1.1.2-.3.6-.1.9.2a1.43,1.43,0,0,1,.3,1,2.15,2.15,0,0,1-1,.2c.4-.1,0-.7-.2-.8l-.3.6c.1-.8-.6-.7-1.4-.6s-1.5.2-1.8-.7c.4.1.9-.3,1,.5.9-.3,0-1.1.5-1.6-1.4-.8-3.6-.1-5.1-1.3.3.5,1,.5,1,1.1a2.77,2.77,0,0,1-1.8-.6,8.17,8.17,0,0,0-2-1.2l.2.8c-1.2-.6-.5.3-1.7.1,0-.1.2-.4-.1-.4-1,.1-.1.7-.7.9-1.3-1.2-.5.8-2.1.3l.1.3a2.92,2.92,0,0,0-2,.4,11.76,11.76,0,0,1-1.9,1c.1-.2,1-.2.8-.9l-1.6.1c0,.2-.7.4-.2.7a.56.56,0,0,0,.6-.2l-.1.4c-1.6-.1-.2-1.1-.3-1.8-.7.4-1.2-.3-1.7-.1-.1.7,1.2.5.7,1.4-.4.5-2,.3-2.8-.2-.3,1.8-2.9,1.2-2.5,2.5a.45.45,0,0,0-.7-.1l.3.2c-.8.9-1.5-.7-2-.2.1.2.4.2.6.4a2.77,2.77,0,0,1-2,.3,1.93,1.93,0,0,0-1.8.7c.1.1.2.2.3.1.1.1-.1.2-.7.2l.2-.7c-1.4-.9-1.6,1.6-2.8,1.9.2.2,1-.3.8.3-.7.4-1.5-1-1.9.2.33-.07.57.22.82.39a.47.47,0,0,1,.38-.19c-.09.19-.19.2-.36.2a.44.44,0,0,0,.36.1c-.5.5-.6,1-1.1.7-.2.1-.1.3,0,.5l-.12,0s0,0,0,0-.12,0-.17,0c-.43,0-.68.5-.93.83l.3.2c-1.5-.7-1.1.7-1.9,1.3l.4.2c-.4.1-1.3.1-1.4,1.1l.6.1c-.7.1-1,1.4-1.9,1.2,0,.2,1,.3.4,1-.4-.1-1.2.2-1,.7.2.1.5.3.5-.1,0-.2-.1-.1-.2-.2h.5c-.3.8-.7.2-1.1.9.1.3.5.2.8.3l-2.7,1.5c-.3-.2-.2-.6-.7-.7l.6-.9c-.1-.8-.9-.1-1.3.1l.4-.6c-.1-.1-.1-.1-.2-.1l.4-.4c-1.7.5.2-1.9-1.4-1.2a1.91,1.91,0,0,1,1.3-.2c.6-.4.2-.5.2-.9l-1.2.4c1.4-1-.6-.3,0-1.5,1.4-.7.7-2.6,1.2-3.2,1.2-.9.1,1,1,.6.7-.4,0-.5.3-1l.8.4c.8-.5-.5-.6.1-.7.2-.9-.4-.1-1-.5a1.15,1.15,0,0,0,1.2-.7c-.1-.2-.9.4-.5-.1C469.4,461.64,469.3,460.54,471.2,459.44Zm.4,16.6c-.4-.6.3-.1.6-.1C472,475.94,471.9,476.34,471.6,476Zm1.6.6a.83.83,0,0,1,.7.3.91.91,0,0,0-.7-.3c-.3,0-.5.3-1.1.1A2.16,2.16,0,0,1,473.2,476.64Zm-1.5.4a.7.7,0,0,1-.5-.4C471.5,476.64,471.6,476.84,471.7,477Zm4.1-14.4c.4-.2.8-.3,1.2-.5C476.3,462.84,476.8,462.24,475.8,462.64Zm2.6,12.9c.9.1.9.6,1.4,1.2a1,1,0,0,0-1-.2C480.3,476.14,478.5,475.84,478.4,475.54Zm3.3,1.3h.07c.37,0,.72.08.53-.3.5.1.7.5.9.8-.59.3-1-.38-1.48-.49a.45.45,0,0,0-.32.09.45.45,0,0,1,.31-.1Zm7.9-1.7c.7-.4.8.1,1,.5A9.25,9.25,0,0,0,489.6,475.14Zm6.8-2.3.7-.3c.3,0-.2.3-.3.4S496.5,473,496.4,472.84Zm3.7-.7.4.7h-.7C500.4,472.54,499.8,472.24,500.1,472.14Zm-1.7-15.7c-.1-.8,1.2-.5,1.6-.6C499.7,456.74,498.9,455.44,498.4,456.44Zm2.7,13.6c.5,0,1,.5.9.5Zm1.8-1.4c.3-.2.7-.4,1-.6l-.5.6Zm2.9-1.7v-.2l.8-.4Zm2.9-2.4a.76.76,0,0,1,.4-.1Zm1.4-5.7.2-.2C510.3,458.74,510.3,458.74,510.1,458.84Zm.7,3.5a1.33,1.33,0,0,1-.5-.3Zm-.5.4c-.1.1-.1.2-.2.2Zm3.4-.4c.2-.1.3-.1.4-.2C514.1,462.24,514,462.34,513.7,462.34ZM468.59,478.8l.21,0a.6.6,0,0,1-.21,0l-.79-.16C468.29,478.39,468.32,478.69,468.59,478.8Zm-3-1.56a6.62,6.62,0,0,1,2.8.1c.2-.1.3-.1.2.1-.1,0-.2,0-.2-.1C467.7,477.44,465.9,478,465.6,477.24Zm2.8.8.1-.3.5.3Zm-13.7-72.4a.76.76,0,0,1,.2.4c-.1-.1-.1-.2-.2-.3s-.2.1-.3.2A.75.75,0,0,1,454.7,405.64Zm-3.3,3.1c0,.2.1.3,0,.5h-.1Zm-8.1,9.8.2.2C443.3,418.84,443.2,418.84,443.3,418.54Zm-1.8,2.8a1.48,1.48,0,0,1-.7.1A.62.62,0,0,1,441.5,421.34ZM437.7,438l-.1.1.11-.2a.51.51,0,0,1,.19-.34c.3-.51.58-1,.8-1.46-.1-.4-.8-.6-.9-1.2.7.4.2-1.1.9-1.4-.2-.5-.5-.1-.8,0a5.19,5.19,0,0,1,.4-2.8,7.67,7.67,0,0,0,.8-2.8,30.68,30.68,0,0,1,.2,3.8,4.91,4.91,0,0,0,.4-1.8,3.8,3.8,0,0,1,.4-1.9l-.6.7c-.7-1.3,1.4-2.6.4-3.2a3.64,3.64,0,0,1,1.05-1.1c-.17,0-.3,0-.25-.2.39-.1.78-.86,1.17-.71a1.77,1.77,0,0,0,.33-.69l-1.2.1a11.73,11.73,0,0,0,.5-1.1l.17.07.13-.17c0-.1.1-.2.2-.3l-.2.3a.82.82,0,0,0,0,.21l.43.19a.58.58,0,0,0,0-.7c1.1-.4,1.2-1.6,2.3-2.3l-.2-.3c.1,0,.2-.1.3-.1-.4-.5.3-1.2-.2-1.5-.3.3-1.1.9-.7,1-1,.5.3-1.2.6-1.7,0,.7.5,0,.8-.2,0-.1-.1,0-.3,0,.3-1.2,2-.6,1.4-1.9l.7.2.1-1c.6.3.9,0,1.2-.4s.6-.7,1.1-.3c.9-1.1-.6-.5-.2-.8a6.9,6.9,0,0,1,1.8-1.6c.6-.4,1.1-.7,1.2-1.2a1.15,1.15,0,0,0,.17-.06,3.16,3.16,0,0,0-.57.16l.2-.2h.47c.79-.36,1.5-1.43,2.13-1.7l.1-.9a6.89,6.89,0,0,0,.8-.3,1.38,1.38,0,0,0,.3.4,4.33,4.33,0,0,1-.1-.5,33.59,33.59,0,0,0,2.6,4.8,1.82,1.82,0,0,0-.2-1.7,8,8,0,0,1,1.5,2.7,21.65,21.65,0,0,0,1.5,3.4c.1-.1.1-.2.2-.3v1c.1-.2.3-.2.5-.3.8,1.3,1.6,3,.9,4.2.1-.5.9.3,1-.7,0,1.7.9,3.5,1.3,5.1h-.1v.7h.1v-.5a4.08,4.08,0,0,1,.1,1.9,1.68,1.68,0,0,1,1.1.3c-.7.2,1.2,1.7.7,2.7.2,0,0-.4.3-.2.2,1,.3,2.4.5,3.7a18.43,18.43,0,0,0,.7,4.2c-1.4.4-.9,2.5-1.6,3.8.8.4.5-.7,1.1-1.1-.2.8,1,.2.3,1.6.06-.06.13-.05.16-.11a.49.49,0,0,0,0-.19.35.35,0,0,1,0,.19c-.16.42-.94-.27-.76.81l.6.1-.8.7c.2,2.5-.7,4.4-.7,6.6-.2.1-.4,0-.5-.3-.2,1-1.5,1.7-1.3,2.9l.3-.2c-.2,1.8-1.3,1.4-2.3,3.1.2-.5,1-1.2.4-1.6-.5,0-.8,1-.7,1.4l-.6-.5c.5-.1.8-.8,1.2-1.2-.1.1-.2.1-.4.1.4-.4.6-1,1.1-1.6l-.3,1c.9-.1.6-1.6,1-1.9-.7-.3-.7.4-1.1-.4.3-1.6,1-.6,2.1-2l.2.3c.2-.5,1-.8.7-1.6a.48.48,0,0,0-.4.1l-.1.11a2.5,2.5,0,0,1-.4.49c-.1-.1.16-.26.4-.49l.1-.11a.63.63,0,0,0,.2-.8,4.06,4.06,0,0,0-1.5,2.3.84.84,0,0,0-.7-.2,19.05,19.05,0,0,0,1.89-4.25l-.49.25.1-.7.43.34a7.77,7.77,0,0,0,.27-2.94c-.9,1.3.1-.6-.9-.3.7-.2.1-.9.3-1.6-.7-.2-.5,1.3-1,.8.07-.82.63-1.95.84-3.1-.08-.13-.16-.24-.24-.4l.29.1a3.16,3.16,0,0,0-.09-1.3c-.3.1-.3.5-.4.6.1-1.1,1.4-2.9.1-3.4a15.39,15.39,0,0,1-.8,1.9c0-.1-.1-.3-.4-.5-.1.2-.3.3-.4.5,0,0,0,0,0,0a.3.3,0,0,1-.09.22,6.89,6.89,0,0,0-.4,1c-.4-.6.1-.7.4-1a1.21,1.21,0,0,1,.08-.25c-.43-1.14.83-1.17,1.32-2.05l-.9-.6a4.17,4.17,0,0,1-.62-2.38.81.81,0,0,1-.08-.12l.09.06a4,4,0,0,1,.41-1.56c0-.3-.4-1.3-.9-.7-.6,1-1.1,1.5-.7,2.9.6,0,.3-1.3.5-.9,0,.7.8,1.6.4,2.2l-.4-1.5c-.9.3.2.6-.2,1-.8-.1-.3-1.2-.9-1.7v.1a8.52,8.52,0,0,1-.4-2.3c.8-.3.7.2,1.2.7-.6-1.9-.2-5.1-2.4-6.4l-.2,1.4c-.4-.6-.2-2.1-1.2-1.6.7.7-.1.6-.1,1.1h.1c0,.1,0,.4-.2.3a8.16,8.16,0,0,0,0-2.7c-.1.4-.7-.1-.9-.1-.2-.7.4-.2.7-.3-.1-.4.2-1.2-.5-1.2-.7-.2-.2.9-.5,1.2l-.1-1.1-.1-.6v-.4l-.1.1c.1-.2.1-.5-.1-.5-.4.2-.3.5-.1.6-.4-.1-.3-.5-.3-1s-.1-1-.6-.6v-.7a.76.76,0,0,0-.2.4,2,2,0,0,1-.1-.8c-.3-1.2-.4.9-.6,1s-.3.5-.3.7a3.4,3.4,0,0,0-.1-1c0-.2-.1-.2-.1-.2-.1-1-.9-.5-1.2-2.1-.1.3-.2.8-.1.9-.5.4.4,1.1-.3,1.6.1.2.2.1.3.1-.1.2-.2.2-.3.1.1.2.1.4.2.6-.2-.5-.4-.1-.5.1a2.65,2.65,0,0,1,.6.5c-.3-.2-.5-.2-.6.1.1.1.3.2.4.3-.4.2-.7-.8-.8,0v-.8c-.6.4-1.2-.4-1.9-.3a2.73,2.73,0,0,0-1.4,1.6c-.4.6-.8,1.2-1.7,1.2.4.4.6.4.8.9.7-.6,1-.9,1.9-.8,1.5-.9-1.4-1.4.6-2.2.4.4.1.9-.4,1.1.4.3,1,0,1.5-.1-.9.7-1,2.2-1.4,2.7-.4.1-1.2.5-1.2.9-.06-.06-.16-.05-.27,0a.7.7,0,0,1,.07.22.28.28,0,0,1-.09-.21c-.44.15-1.14.73-1.61.11-.7.9.8,1.2-.6,1.7.9-.1.2.8,1,.7-.4-.6,1-1.2,1.7-1.4l-.3,1.5c0-.4-.6-.2-.8,0l.5.4c-.7-.2-.8.5-.8,1.3s-.2,1.5-1.1,1.6c.2-.4-.1-1,.7-.9-.1-.9-1.2-.2-1.5-.8a6.13,6.13,0,0,0-1,2.3,5.18,5.18,0,0,1-.7,1.7h0l0,.05a2,2,0,0,1-.17.23h0a2.46,2.46,0,0,1-.38.41c.5-.1.7-.8,1.3-.7,0,.73-.64,1.39-1.31,2.07.34.44-.6.91.11,1.53-.64,0-.39-.77-.31-1.33a7.35,7.35,0,0,0-1,1.13l.8-.1c-.9.9.1.5-.3,1.6-.1-.1-.4-.3-.4,0-.1,1,.6.2.7.9-1.4,1.1.7.7-.1,2.1l.3-.1c-.6,1.2.4,2.8.6,4-.2-.1,0-1-.8-.9l-.2,1.6c.2.1.3.7.7.3.1-.2-.1-.4-.1-.6l.4.2c-.4,1.5-1.2,0-1.9,0,.3.8-.4,1.1-.4,1.7.7.3.7-1.1,1.5-.4.4.5,0,2.1-.6,2.7a1.79,1.79,0,0,1,1.2,1.7c.2.6.3,1.2.9,1.1-.2,0-.6.4-.3.7l.3-.3c.7.9-.9,1.3-.5,1.9.2-.1.3-.3.5-.5.3.7,0,1.3-.1,2a1.91,1.91,0,0,0,.4,1.9c.1-.1.2-.2.1-.3.2-.1.2.1.1.7l-.6-.3c-.6.6-.3,1.1.2,1.5s1.2.8,1.2,1.5c.2-.2-.1-1.1.4-.8.3.8-1.2,1.3-.1,1.9,0-.5.7-.7.7-1.1.4.5.9.7.5,1.2a.45.45,0,0,0,.5,0c-.2.6.4,1,.7,1.3l.2-.2c-.32.45-.37.72-.28.92l.28.28h0c.32.21.8.36,1,.8l.3-.4c.1.4,0,1.3.9,1.5l.2-.6c0,.3.3.6.6.9s.5.6.3,1c.2.1.4-1,1-.3-.1.3.1,1.1.6,1,.2-.1.3-.4,0-.4-.1-.1-.1,0-.2.1l.1-.5c.7.3,0,.7.7,1.1.4-.1.2-.5.4-.8.3.9.7,1.8,1.1,2.7-.3.3-.6.2-.8.7l-.8-.6c-.8.1-.2.9,0,1.3l-.5-.5c-.1.1-.1.1-.1.2l-.3-.4c.3,1.7-1.9-.3-1.3,1.3a1.9,1.9,0,0,1-.1-1.3c-.3-.6-.5-.2-.9-.3l.3,1.2c-.9-1.4-.4.6-1.5-.1-.6-1.3-2.6-.9-3.1-1.5-.8-1.3.9.1.7-.9-.4-.8-.6-.1-1-.5l.5-.8c-.4-.8-.7.4-.7-.2-.9-.3-.2.4-.6.9,0-.3-.1-1.2-.6-1.3-.2.1.3,1-.1.5a6.06,6.06,0,0,0-1.4-2.3,7,7,0,0,1-1.4-2.1l-.3.4c-.1-.3,0-.5-.2-.7l-.2.2a28.41,28.41,0,0,0-1.1-3.8l-.2.9.1-1.4-.7.4c.5-.7-.4-2-.5-3.2l-.5.1.1-.8-.3.3a19.37,19.37,0,0,0,.08-2.07l-.08.47c-.6-.1.1-.4-.1-.9a1.36,1.36,0,0,1,.18.43l.32-1.93c-.4,0-.6-.9-.9-.2l.4-1-.4.1a9.41,9.41,0,0,1,.1-5A8.54,8.54,0,0,0,437.7,438Zm22-13.1.8-.3-.2.7C460.1,424.74,459.7,425.24,459.7,424.94Zm.4,4.1-.3-.8c0-.3.3.2.4.3S460.3,428.94,460.1,429Zm.7,26.9c-.2.6-.7,2.5-1.6,2.2A11.22,11.22,0,0,1,460.8,455.94Zm.2-.2c-.1,0-.1.1-.2.2C460.9,455.74,461,455.64,461,455.74Zm.3-3.8c0,.3.3.5-.1.6C460.5,452.64,461.2,452.24,461.3,451.94Zm.4,3.8c-.1.2-.2.3-.2.5l-.3-.2A2.19,2.19,0,0,0,461.7,455.74Zm-.1-2.5c.1-.3.3-.3.5-.2A.76.76,0,0,1,461.6,453.24Zm.8,3.1-.7.7C461.7,456.44,462,456.74,462.4,456.34Zm.5-5.4a2.65,2.65,0,0,0-.6.5C462.4,451.24,462.6,451.14,462.9,450.94Zm-.1-4.6a1.34,1.34,0,0,1,.69-.72c.08-.09.16-.13.23-.11a4.08,4.08,0,0,0,.58-.27,1.24,1.24,0,0,0-.4.9c0-.42-.09-.59-.18-.63l-.23.11C463.27,445.83,463,446.29,462.8,446.34Zm-.4,5.1c-.1.3,0,.6-.3,1A1.49,1.49,0,0,1,462.4,451.44Zm2.1-8.6c.1-.5.6-.6.9-.8.2.6-.4,1-.6,1.4v.3a.3.3,0,0,1,0-.4v.1C464.8,443,464.9,442.64,464.5,442.84Zm-6.1-20.1-.6.8C457.7,422.94,458.4,422.64,458.4,422.74Zm-1.6-2-.1.5-.3-1.2Zm-1-2.8h-.2v-.6A2,2,0,0,1,455.8,417.94Zm-.8-2.4v.3Q454.85,415.84,455,415.54Zm-.7,0-.1-.1A.1.1,0,0,1,454.3,415.54Zm-6.6,43.4a.35.35,0,0,1,.1-.2C448,458.74,447.9,458.84,447.7,458.94Zm-1-1.2c-.1-.1-.1-.2-.2-.4C446.6,457.54,446.7,457.64,446.7,457.74Zm-.9-1.3-.3-1.2C446.1,456,445.6,455.54,445.8,456.44Zm-8.6-11.8-.2.8-.1-.1Zm-63.6-19.9-.8.9C372.9,425,372.4,424.54,373.6,424.74Zm-.8.8c0,.1,0,.2-.1.2Zm-10.33-2.39a4.55,4.55,0,0,1,1.23-.11c.09,1.39-.28.29-1.23.11a1.86,1.86,0,0,1-.47,0A1.23,1.23,0,0,1,362.47,423.15Zm-11.27,2.19.4,1.2-.6-1.2Zm-.5,1.3-.6.3A1,1,0,0,1,350.7,426.64Zm-4.8.9c.1,0,.1.1,0,.4Zm-9.6-.3a4.67,4.67,0,0,1,1,.5c-.4,0-.8.1-1-.2ZM292.7,454l1.4,3.6-2.3-1.7C292.5,455.74,292.9,455.54,292.7,454Zm-11,9.3c1.3.7.8.9.5,1.9-.1-.5-1.2.6-1.3-.1C282.5,464.54,280.1,464.14,281.7,463.34Zm.4,2a2.14,2.14,0,0,1-.1.6C282,465.64,282.1,465.54,282.1,465.34Zm-11.9,14a1.64,1.64,0,0,0-.9.2A.68.68,0,0,1,270.2,479.34Zm-10.4,16.2c-1,.9-.5-.4-.7-.8C260,493.34,259.6,495.24,259.8,495.54Zm-.9,3.5c-.4,0-.7-.1-1,.1,0-.3-.1-.6-.1-.9Zm-4.1,13.1h0c.5-.39,1-.73,1-1.1.19.48-.63,1.14-1,1.1h0l1.27.29c1.3-1.1.8-2.7.7-4-.9.7-.1-1.5-1.3-1.3l-.2.8c-.7.1-.7-.8-.8-1.5a21.74,21.74,0,0,0,2.9-4c.8-1.5,1.5-2.7,2.3-2.8-.7.2-.9,1.2-.8,1.9l1.1-.8c-.4.9-1.9.9-2.2,2.5.9.2,1.4,1.6,3,1.3,2.5-1.7-.8-3.1,1.3-5.8,0-.4.9,1.4,1.5-.4.4-2.4-.1-4.9-1.7-6-.1,1.1-.3,3.5-1.6,2.9a14.81,14.81,0,0,1,.3-1.9c.1-.7.1-1.2-.2-1.5,1.9.2-.8,1.8,1.1,1.5a3,3,0,0,0,.1-1.6c.2.8,1.3.2,1.7.2,1.4-1.8,2.7-2.5,4.3-4.3a1.5,1.5,0,0,1,1.1.4c.4-1.3-.5-4.1-1.5-4.3.9-1.1,1.5-.8,1.9-1.9-2.4.6.3-.1-.7-1.2.7-1,.8.2,1.5,0a1.94,1.94,0,0,0-.3-1.2c1.3.2,1.4,3,3,3.2a14.91,14.91,0,0,0,4-.9c-.7-1.2-4.7-4.6-6.6-5-.6-.7,1.5-.3,1.9-.6,2.1-.1.8-2.4,2-3v1.2c.4,0,1.3-1.6,1.1-2.2.4.4,1.3,2.5,2.1,2.5,1.7-1.5,1.1-5-.1-5.9-.4,1.1-.9,2.4-1.2,3.6-1-.8.8-2.7-.4-3.6l2.6-2.1c-.2.4-.9,1.5,0,1.6.9-1.1.7-.4,1.7-.7a39.56,39.56,0,0,0,1.9,9.2l.4-1.8.8.2c.7-2.3-1.5-7-2.1-8.3,1.1-.7,2.8,1.4,2.9,2,1.8-1.5-1-4.3,1-5.8l-1.1.2c.4-.6,2.3-1.7,1.7-1.9.7.2,2.3,1.1,2.2,1.8l-.2-3.4c0,.4,1.7,1.9,1.8,2.2.7-.6-.5-2.8-1.2-2.7,2.4,0,1.5-.3,3.7.1.2-.5-1.6-1.7-2-1.6a2.59,2.59,0,0,1,1.8-1.7c-.9,1.9,2.8,3.9,3.6,5.4-.4-2.5-.8-4.9-1.1-7.5a12.56,12.56,0,0,0,1.3,2.3c-1-1.7,2.6-4.8,4.6-6l-.2.2c0,.8,1.9,0,2.1-1,.1.5-.1.5-.3.7,2,.2,0-3.4,2.2-3-1.3.7-1,1.4-.6,2,.6-1.2,3.2-2.1,1.5-3.7.9,0,1.3-.7,1.9.3l1.7-2.8c-.1.4.1,1,.9.7-1.4.7-1.5,3.4-3.1,2.6.8,1.1,1.7,1.5,1.7,2.8a10.74,10.74,0,0,0,2-3.8c.4-1.3.8-2.6,1.2-3.8l2.9-.6-.2-.6,1.2,1.1c.1-.5.2-.9.3-.8s.1.4.1.6c.2-.3.4-.5.4-.7a4.32,4.32,0,0,1,.6,2.8,7.6,7.6,0,0,0-1.1-.4c-.1,1,0,1.9.9,2a.76.76,0,0,1,.1-.4c0,.7.1,1.2.4,1.3l1.3-1.7a10.12,10.12,0,0,0-1.05-.44c-.08.28-.17.59-.25.84v-.93l-.2-.07c.6-1.6,1.4-3.4-.2-3.8h-.7a2.36,2.36,0,0,1,1.2,0h-.5l1.9.1c1-2.2.9-1.8,2.5-3.9.4.4,0,1.1.6,1.3a2.12,2.12,0,0,1,2.6-1c1.1.3,1.9.5,1.8-.3,1.1-.9,0-1.4.7-2.2,0,.1.1.5.3.4l.6-1.5c.6.2-.5,1.1.7,1.1a11.41,11.41,0,0,1,2-1.9,3.23,3.23,0,0,1,2.2-.7c2.2-1-1.7-1.8.3-2.2.7.8,1.3,1.8,2.5,1.6.4-.7.1-1.4,1.1-2.2l.3,1.5a3.37,3.37,0,0,1,1.2-.4c.4,0,.7.1.8.7a1.76,1.76,0,0,1,1.8-.7c1.5-1.1-1.7-2.6-2.3-3,1.8.6,2.8-.2,4,1.3l-1.2.7a3.93,3.93,0,0,0,.66.14H341c2.46.29,1.84-2.63,3.59-.15-1.1.1-2.1,1.1-1.3,1.8l1.2-1c.2.4-.8.4,0,.7.3-.5,1-1.2,1.3-1.8v.1l2.42-.65a.37.37,0,0,1,.18-.05l-.18.05c-.26.14-.32.55.18.55l1.6-1c-.4.5.1.8.9.9,2.3.1,1.5-3.4,3.4-2.1-.3-.1-.4.1-.6.1l1,.6c0-3,5.3-.7,5.4-3.7,1.4,1.2.1.6-1.5,2.2l1.3.8a11.17,11.17,0,0,0-3.1.5c1.9,1.1,3.5-.4,4.5-1.2.6.5-.6,2.2,1.3,1.8,2.8-.6-.5-2.3,1.2-2.6l1.1,1.6a3.78,3.78,0,0,1,2.9-.3c.9.2,1.7.6,2.6.8a1.4,1.4,0,0,0,.8-.4c.9.5,1.9.1,2.9-.1a4.68,4.68,0,0,1,2.6-.1c-.3.4.7,1.2.8,1.6l2.7-.6c-1.3.2-1.4,1.1-1.7,1.9.8,0,1.2-.4,1.8-.4-.4.2-.7.6-.4,1,1-.3,1.9-.7,2.9-.9-.1-.2-.5-.3-.7-.4.7.1,2.2,0,3,.9-.1.3-.6.6-.7.9-.6-1.1-1.2-.5-1.8.1,1.8.2.4.3,1.1,1.1a1.53,1.53,0,0,0,1.9-1.6c1.4.7,1.8,1,3.5.6l-.6,1.1H390l-1.5,1.1c2.3,1.6,1-1.9,3.6-.3l-.3,1c1.3-.1,2.2-1.7,2.6-.2,1.2-.4-1.4-2.1,1.2-1.5a3.89,3.89,0,0,0,1.7,1.9c.83-.17.21-1.08-.36-1.39a3.38,3.38,0,0,0-.34-.11.84.84,0,0,1,.34.11c3.36,1.1.68,4.19,4.36,4.29-.8-1.2,1.8-1.6-.9-2.7,1.6,0,1.9,2.4,3.7,2.1l-1.5.8a4.27,4.27,0,0,0,1.6,0l-.6.9c2.5-.9,2.5,2.3,4.6.7-1.5,1.3,1.3.6,1.5,1.6-1.9.3-3.6-2.2-4.6-.7.4.8,1.3.3,1.6,1.1a4,4,0,0,0-1.7.3,2.76,2.76,0,0,0,2.5,1.1,20.78,20.78,0,0,1,2.5,0l-2.2-.9c1-1.5,1,.2,2.3-.6.5,1.5,2.1.9,2.5,1.9-.3-.2-.4-.1-.6-.2a3.38,3.38,0,0,1,1.3,2.8c.1,1,0,1.8.3,2.1.6.8,2.6,1.2,2.6.2,1,.2-2.9-1.8-.3-2.6-.2,1.5.5,1.9,1.5,2.2,1,.5,2.3.9,2.7,2.7-1.7-.4-.6,1.5-1.9,1.2,1.3,1,1.6.7,2.6.7l-.3.9c2.7.2,1.6-.8,4.3.8-1.1-.3-.1,1.7-1,1.5a2.76,2.76,0,0,0,1.9,1.2h-.1c2.2,2,.8,2.5,3.1,4l.2-.6c.7.6,1.5,1.1,2.2,1.8a16.46,16.46,0,0,1,2,2.3,67.85,67.85,0,0,1,3.7,5.7,6.8,6.8,0,0,0-.2-1.5c0,.6,2,2.2,1.7,3.7a1.41,1.41,0,0,1-.6-.8,1.62,1.62,0,0,0-.9,1.9h.9l-.4.6c.5,1.2,1.1-.8,1.5.4-1,.8-.5,2.2-.1,3.4.4,1.4,1.1,2.5.3,3.5,1.9,0-.7-2.1,1.1-2a2.38,2.38,0,0,0-.1,1.5l.8-.7a13.61,13.61,0,0,1,.7,2.2c.1.2.1.6.2.8a1.45,1.45,0,0,0,.2.7,8.09,8.09,0,0,0,2.3,2.9l-.2.1a1.59,1.59,0,0,0,2.2,1c-.1.6-1,.1-.9.8,1.7-.3,2.3.7,2.6,1.8.5,1,.7,2.1,1.8,1.8-1.5,1.7-.5,5-2.5,5.6l.8.3c-1.1.9-2.3-1.7-3.6-.9l-.53-1.21a2.12,2.12,0,0,1-.77-.59c.2.1.39.38.77.58l-.77-1.78c-.2.4-1.1.8-.9,1.2-.6-.5-1.1-.8-.9.4a26.31,26.31,0,0,0-3.1-4.8l-1.9-2.2a12.7,12.7,0,0,1-1-1.2l-.4-.7-.3-.6c-2.1-3.2-3.8-6.6-4-10-.2-.4-.7.1-.9.3.8-1.5-1.1-.8-1.5-1.2a22.5,22.5,0,0,0,1.1-2.2c-.8-.3-1.2.5-1.5.6a21.78,21.78,0,0,1-1.8-3.8,9.3,9.3,0,0,0-1.1-1.9,4.86,4.86,0,0,0-1.7-1.5c0-1.1,1.4-.9.8-1.9-.7,2.5-3-2-3.4-.3,1-2.2-2.3-3.4.3-5-.8-1.2-1.7,0-1.7.4-.9-1.3-1.8-2.3-3.4-2.5,0-.6-1.3-1.7-2.7-2.9s-2.6-2.6-2.5-3.9c-.1,1.8-.5.6-1.6.6l-.1,1.6c-.5-.4-.9-.8-1.5-1.2q-.45-.15-.3-.3c-.2-.2.6-.5,0-1.3-1-.9-1.5-.3-2.5-.1l.1.2-.8-.3c-.6-.5,2.7.2,1.1-1.6-.2.2-2.2,1.1-2.2,0,1,.5,1.3-.2,1.1-.8l-1.3-.9-.3,1.7c-4-2.2-7.9-5.2-12.8-6.5.5-1.3-3.3-1.1-2.3-3l.1.2c1.2.2.1-1.7-1-1.7.8.9-2.5,1.6,0,2.5l-2.1.4c-1,1.8-2.3,1.5-3.6.7-.4-.3-.8-.5-1.1-.7a3,3,0,0,0-1.1-.6,4.44,4.44,0,0,0-2.3-.2.54.54,0,0,0,.3-.4c-1.3.4-2.8-.2-3.9-.6-1.3-.5-2.2-1-2.5-.7l-.1-1.1a13,13,0,0,1-2.6,1.2,4.48,4.48,0,0,1-1.1-.1,6.13,6.13,0,0,1-1.6-.3c0-.2.3-.6-.1-.8a3.08,3.08,0,0,1-3.1,1.3l.1-.3c-.9.1-1.9.1-2.8.2,0-1.8-1.2-1.1-2.6-.6s-2.7,1.1-3.4-.7c-.5,1-2.5,1.6-3.4,2.2-.1-.2-.1-.3-.3-.4-.3,1-1.1,1-2,.8-.3-.1-.8-.2-1.2-.3a2,2,0,0,0-1.1,0c-.7.6-.2,1.2.2,1.6-1.8-1.1-3.8,2.4-4.5,2-1.1.1-.8-1.1-1.2-1.8-1.6.7,1.1,2.9-1.5,2.2.2-.3.6-.6.4-.7-.7,0-3.4-3.2-4.1-2.2l.8.4c-.7.7-1.8.2-2.7,0s-1.5-.3-1.3.8l.6,1c-3.1-.3-.9.8-4,.7v-.2c-1.1.7-2.2-.3-2.1,1.5h.4a19.46,19.46,0,0,1-2.9,1.3c-.1.3-.7.8-1,.6.5,1.4-2.9,2.2-3.6,2.5.9-.7.2-1-.4-1.3-.1,1.5-.5,1.8-1.8,1.6.8,1.7,1.5,3.5-.1,4.5.1-.4.4-.8.1-1s-.5.4-.6.6c-.3-.2.2-.8-.4-1.2-.3,2.1-2,1.1-3.2,2.8.2-.9-.3-.9-.9-1.2,1,1.8-3.1,0-1.1,1.8-4.2.8-7.9,5.7-10.1,5.3-.7-.3-.9,1.3-1.3,1.7l-.4-.8c-.3,2.4-.6,1.4-1.2,4.1-.1-1.5-.7-1.6-1.9-1.6l.1,2.3-1.1-.8a2,2,0,0,1-1.46,1.48c.63,1.53-1.12,3.17-.84,4-1.7-.9-.9,1.6-2.5.7a3.4,3.4,0,0,1-.1,1c.8.3,1.5.9.8,1a.1.1,0,0,0-.1.1l-1-.6a5,5,0,0,1-.89,1.49h0a1.86,1.86,0,0,1,.77-.09,6.73,6.73,0,0,0-.77.09h-.13l-.1.1v-.1a1,1,0,0,0-.9,1c-2.7.6-1.7,5.2-4.9,5.4.5-.1.9-.5.7-.8-1.2,1.6-3.7,2.1-3.9,3.6l.8.6a13.27,13.27,0,0,1-1.9,3.4l.8.8a16.93,16.93,0,0,0-2,2.8c-.7,1-1.5,1.9-2.7,1.6.5.9-1.7,1.8-2,2.7l-.8-.3a4,4,0,0,0-1.5,2.5,4.12,4.12,0,0,0-2.7,2.6,29.62,29.62,0,0,1-1.5,3.1l-.2-.1a14.16,14.16,0,0,0-.7,2.2h0c.07.33.12.89-.2,1.1a2.73,2.73,0,0,1-1.7,2.1l-.8,1.2c.2-1.7-1.2-.5-2.1-.9l.3,1.2c-.6,0-.5-1-.9-.4.2.8-.7,2.4,0,3.4a2.92,2.92,0,0,0,.9-.2.76.76,0,0,0,.2.4c-.8.9-.2.8.2.9a2.45,2.45,0,0,0-1.7.9,2.26,2.26,0,0,1-1.7.7c2.5-.4-1.1,2.7,1,2.7-1.8.3-.3.6-1.8.6.9-1,.1-2.8-.1-4.1l-1.3.6c-.76-.7-.26-1.23.33-1.69Zm.4-2.1a3.55,3.55,0,0,1-.2,1A1.23,1.23,0,0,1,255.2,510Zm-.1-.4.8-1c.3.1-.3.7-.6,1.4C255.3,509.84,255.3,509.74,255.1,509.64Zm1,.7q.3.15.3.3Q256.4,510.49,256.1,510.34Zm6.2-14c.1-.4.6-.6.8-.3l-.4,1.3C262.2,497.34,262.3,496.84,262.3,496.34Zm11-15.7.2-.3,1.6,1.8ZM315.4,440a.42.42,0,0,1,.4.4A.78.78,0,0,0,315.4,440Zm92.5-.3v-.1C408.3,439.64,408.6,439.74,407.9,439.74Zm40.4,58.4-.1.1-.1.1-.3.2c.2-.4.6-.8.8-1.2v.2Zm-1.6.3-.5-1h.4Zm-72.6,22.2a3,3,0,0,1-1.9.9c0-.1-.3-.2-.6-.4s-.6-.4-.8-.4-.4-.2-1-.6c0-.1-.2-.4-.8-.8a3.55,3.55,0,0,1,.1-.7c0,.1-.1-.1-.3-.2s-.3-.3-.4-.4v-.6q-.15,0-.3-.3c-.1-.2-.2-.3-.2-.4a3.55,3.55,0,0,1-.1-.7,5.38,5.38,0,0,0-.1-.8,4.24,4.24,0,0,1-.6-1.5,8.24,8.24,0,0,1-.7-3.1c-.2-.1-.3-.7-.6-1.8l-.1-.3a6.19,6.19,0,0,1-.7-1.8l-.2-1.8-.2-.2c-.1-.1-.2-.2-.3-.2,0-.7.1-1,.5-1.3a6.59,6.59,0,0,1-.3-1c.1,0,.2-.1.3-.2s.2-.2.2-.3a1.5,1.5,0,0,1,1.5-.6c1.3.1,2.2.2,2.8.3a8.4,8.4,0,0,1,3.9,2.3,13.07,13.07,0,0,1,1.1,1.2,5.24,5.24,0,0,1,1,1.8,9.12,9.12,0,0,1,.6,1.6,6.38,6.38,0,0,1,.6,1.5,4.45,4.45,0,0,1,.6,1.2c0,.1.1.2.1.3.1.3.1.7.2.9a4.53,4.53,0,0,0,.3,1.6,4.14,4.14,0,0,1,.4,2.1c.1.1,0,.2,0,.3a6.7,6.7,0,0,0-.6,1.1,1,1,0,0,1-.7.8,1.14,1.14,0,0,0-.8.7,2.23,2.23,0,0,1-.7.7l-.7.3c-.2,0-.3.1-.6.2A1.27,1.27,0,0,0,374.1,520.64Zm-23.9-84c0,.3,0,.5-.3.7C349.8,437.14,350.1,436.94,350.2,436.64Zm-61,35.7c.3-.2.8-.4,1-.9l.9.6C291.9,472.64,290.3,472.34,289.2,472.34Zm-20.1,24.3a2.79,2.79,0,0,0,.7-1.3c.1,0,.2-.1.3-.1C270.3,496.14,269.6,496.44,269.1,496.64Zm-.1,0a6.47,6.47,0,0,1-1.5,1C266.9,497.14,268.1,497,269,496.64Zm-8,11.9c.3-2,1.3,1.7.6.8C261.9,509.34,260.7,508.74,261,508.54Zm-.2,1.8a6.13,6.13,0,0,1-.6.4.87.87,0,0,1,.6-.4,5.74,5.74,0,0,0,.4-.7,1.23,1.23,0,0,0-.2.7C260.9,510.24,260.9,510.34,260.8,510.34Zm.1,0c.1.1-.1.4,0,0Zm-.2.5c0,.5-.3.5-.2.3S260.6,510.94,260.7,510.84Zm-1.4,3.1-.1,1c.1-.4-.3-.2-.6-.3A1,1,0,0,0,259.3,513.94Zm-7.1,28.8a.46.46,0,0,0,.5.1c0,.4,0,.6-.1.7l-.1.1a3.69,3.69,0,0,0-.3-.9Zm0-8.8.3,1.1C252.2,535,251.8,534.94,252.2,533.94Zm.5,9.6c.6-.4,0,.7,0,0Zm.8,16.7c-.1-.1-1,.2-1-.2C252.3,560.14,253.3,559.54,253.5,560.24Zm-.6-18.9a7.93,7.93,0,0,1-.4-.9c.7-.6,1-.7,1.2.2C253.5,540.44,253.2,541.24,252.9,541.34Zm.5-11.9a.77.77,0,0,0-.3.1,2,2,0,0,1-.1-.8,5.74,5.74,0,0,1,.4.7C253.6,529.34,253.7,529.44,253.4,529.44Zm-.2.1v.1C253.1,529.54,253.1,529.54,253.2,529.54Zm-.2-.9a.74.74,0,0,1-.1-1c0-.1.2-.1.2-.1A4.48,4.48,0,0,0,253,528.64Zm-.2,2.6a3.15,3.15,0,0,1-.2.8C252.7,531.64,252.8,531.34,252.8,531.24Zm-.1.7,1-.2a1.37,1.37,0,0,1-1.1.6A.76.76,0,0,1,252.7,531.94Zm.3,3.8-.3-.7a5.7,5.7,0,0,1,1.3-.1C253.4,534.94,253.1,535.54,253,535.74Zm.2-8.1a13,13,0,0,1,.8-1.7,2.22,2.22,0,0,0,.1,1.6C253.8,528.14,253.4,527.74,253.2,527.64Zm.8-1.8a4.48,4.48,0,0,1,.1-1.1c-1,1.3-1.2-1.5-1.3.5-.2-.9-1-.7-.8-2,1.1-.3,1.3.9,2.1,1.5a3.88,3.88,0,0,1,.5-1.8,13.08,13.08,0,0,0-.1,2,.17.17,0,0,1,.1,0h.08a6.47,6.47,0,0,1,.62-.6c.2.2-.3.5-.7.7l0,0A3.28,3.28,0,0,0,254,525.84Zm.5-10.3v-.1h0c.09-.76.13-1.4,1-1.11.1.9.2,1.79-1,1.11C254.51,515.48,254.5,515.51,254.5,515.54Zm-.2.9a2.54,2.54,0,0,0,.2-.7C254.5,516.14,254.7,516.74,254.3,516.44Zm1.3,4.1c-.1.1-.1,0-.2,0Zm0,.1c.3.1.5.4.7,1.2a3.84,3.84,0,0,0-1.49.78v0h0a1.8,1.8,0,0,0-.19.21v-.4l.19.19h0Zm.1,6.4a4.18,4.18,0,0,1-.4-1A1.28,1.28,0,0,1,255.7,527Zm-.4,4.9-.7-.7-.3-.5Zm-.2-3.2a2,2,0,0,0,.8-1.8,3.25,3.25,0,0,1,.7,2C256.3,528.44,255.7,529.34,255.1,528.74Zm1.1-8.2-.2-.9,1,1.4Zm.6-2.2.5-.4.2.8Zm-3.1-7.2-.4.6-.4.3Zm-.6,2.1.6.7-1.1-.1Zm-2.6,3.5c.3-.3.5.3.8.5a8.08,8.08,0,0,1-.1-1.5c1.6.3,1.3,2.8,2.5,2.6-.6.6-1.3,0-1.3,1.6.4,1.1,1.7-.6,2.3-.8.1,1.3.5,1.4.8,1.5-1.9.3-4.9,0-5.1-1.2A1.59,1.59,0,0,0,250.5,516.74Zm-1.7,33.5.3-.2c.5-1.2-1.5-3,.2-3.7a.74.74,0,0,0-.1.9,5.16,5.16,0,0,0,.2,1.1,10.1,10.1,0,0,1,.7,2.3Zm1.1,2.9h-.4l-.6-.9Zm-.9-17.5c.9-1.1,1.4.2,1.8.9C250,535.54,249.6,536.14,249,535.64Zm.7,3.4v-.3l1,2.1Zm2,2.5c.2,1.7-.9,1.9-1.1.2C251.1,542.64,251.4,541.94,251.7,541.54Zm-.5-9.4.3.2-.2.4.5,1.2c-.2-.3-.7-.2-.9-.2l.4-1Zm.4,7.7-.2-.4C251.8,539.74,251.7,539.84,251.6,539.84Zm.1.5c-.9-.3-.3-.3-.1-.4l.3,1C251.7,540.54,251.3,540.34,251.7,540.34Zm-2-19.3c.5-.5.7,0,.4.7l-.4-.1C249.6,521.34,249.8,521.24,249.7,521Zm.8,6v1.7c-.3-.2-1-.1-.6-.9l-.4-.1Zm-.48,5.64c.09,0,.16-.06.18,0l-.18,0a4.58,4.58,0,0,0-1.82,1.56l.1.2c-.5.9-.9,0-1.1-.3.4,0,.5.5.8.1.2-.6-.1-.7-.2-.9A11.15,11.15,0,0,1,250,532.68Zm-2.22,14.76c-.3-.3-.4-.5-.6-.7l.4-.7C248,546,247.4,547,247.8,547.44Zm-.6-13.3H247C247.1,533.94,247.1,534,247.2,534.14ZM231,614.64c-.3.7-.5,1.3-.7,1.7a4.92,4.92,0,0,1-1,1.5,2.68,2.68,0,0,1-1.3,1,5.34,5.34,0,0,0-1.8,1.6,10.83,10.83,0,0,1-4.4,3,4.5,4.5,0,0,0-.8.2c-.3.1-.7.1-.9.2a19.93,19.93,0,0,1-9.6.4,21.17,21.17,0,0,1-4.6-1.2c0-.1-.3-.2-.6-.3a1.91,1.91,0,0,1-.8-.4,54.87,54.87,0,0,1-7-5.7,27.12,27.12,0,0,1-4.9-7c-.5-1-1.6-3.3-3.1-6.9a4.57,4.57,0,0,1-.7-1.7c-2.4-8.6-3.9-13.7-4.3-15.4a35.25,35.25,0,0,1-1.1-5.3l-.1-.4c-.1-.6-.2-1.4-.4-2.5-.4-2.2-.8-3.8-1-4.8a48.58,48.58,0,0,1-.4-9,33.86,33.86,0,0,1,2.3-11,12.68,12.68,0,0,1,3.7-5.4,10,10,0,0,1,3.9-2.1,8.67,8.67,0,0,0,3-1,5,5,0,0,0,2-.2,9.22,9.22,0,0,1,1.8-.3h1a12.15,12.15,0,0,1,5.8-.1,15.6,15.6,0,0,0,4.4.6,6.67,6.67,0,0,1,2.6.9,3.73,3.73,0,0,1,.8.6,5,5,0,0,1,2.9,2.3,10.33,10.33,0,0,1,.8,1.2,3.8,3.8,0,0,1,.8,1.8,5.4,5.4,0,0,0,.4,1.2,3.92,3.92,0,0,1,.3,1.3,10.22,10.22,0,0,1,.7,2.7,6.57,6.57,0,0,0,.3,1.3c.2.8.3,1.1.3,1.2.3,1.1,0,2.7-.4,4.8a1.77,1.77,0,0,1-1.7-1.2,18.5,18.5,0,0,0-2.2-4.8v-.7a4.56,4.56,0,0,0-1.1-3.6,9.62,9.62,0,0,0-.9-1.5c-.5-.7-.7-1.2-.9-1.5a20.68,20.68,0,0,0-2.2-2.9,10.22,10.22,0,0,0-9.6.3l-.4,1c-1,1-1.3,2.6-.9,4.7a27.19,27.19,0,0,0,1,3.5,7.2,7.2,0,0,1,.8,2.7,2.48,2.48,0,0,0,.1.9,20.49,20.49,0,0,1,.2,4.6,38.5,38.5,0,0,0,.4,8.2,36.86,36.86,0,0,0,1.2,5.4c1,3.8,1.6,5.8,1.6,5.9a24.28,24.28,0,0,0,1.1,5,8.88,8.88,0,0,1,.6,1.5,1.27,1.27,0,0,0,.1.6,1.45,1.45,0,0,0,.2.7c.1.3.2.4.2.6s.5,1.9,1.3,4.8,1.4,5.1,2,6.6a29.9,29.9,0,0,0,3.6,7.7,16.48,16.48,0,0,0,2.8,3.2,10.91,10.91,0,0,0,7,2.3,5.33,5.33,0,0,0,4-2.1,8.62,8.62,0,0,0,2.1-5.4,34.41,34.41,0,0,0-.6-6.3,35.44,35.44,0,0,1-.8-5l-.3-3.4c.4-.5.8-.6,1.1-.3a4,4,0,0,1,.8,1.2c.2.1.3.5.3.8a9.44,9.44,0,0,0,.3.9c.7,2.2,1.2,3.5,1.3,3.7s.2.4.1,1.1c.5,3.4.7,5.6.7,6A13.36,13.36,0,0,1,231,614.64Zm60.9,47.3c0,.5-.3,2.5-.7,6a1.45,1.45,0,0,1-.2.7c-.1.2-.8,1.9-2,4.9v.6a2.15,2.15,0,0,1-.3,1.5,20.44,20.44,0,0,0-1.2,3.4c-.9,2.8-1.8,4.7-2.8,5.5-.1.1-1,1.3-2.7,3.5a8.25,8.25,0,0,1-1.9,1,14,14,0,0,1-5.4,2.3,4.08,4.08,0,0,1-.7.2c-2,.9-5.1,1.3-9.4,1.1a13.06,13.06,0,0,1-2.5-.4,11.8,11.8,0,0,0-3-1c-1.7-.5-3-1-3.9-1.3a22.16,22.16,0,0,1-6.6-4.5,28.16,28.16,0,0,1-5.1-6.4c-.2-.3-.5-.9-1.2-1.9s-1.1-1.7-1.3-2.1a43.32,43.32,0,0,1-3.1-7.2,44.47,44.47,0,0,0-2-5.9c-.1-.7-.3-1.2-.4-1.9-.1-.5-.2-1.3-.3-2.1a16.45,16.45,0,0,0-.3-1.8c-.1-.6-.2-1.5-.3-2.6s-.1-1.9-.2-2.5a24.58,24.58,0,0,1-.2-2.8,40.72,40.72,0,0,1,1.2-10.4,29.87,29.87,0,0,1,2-6,54.64,54.64,0,0,1,3.9-7.6,3.65,3.65,0,0,1,1-1.3c.2-.1,1.5-1.2,4-3.2a2.24,2.24,0,0,1,1-.7,6.26,6.26,0,0,0,1.7-.8,4.58,4.58,0,0,1,1.1-.7c.3-.2,1-.5,1.9-1.1a17.25,17.25,0,0,1,2.2-1.2,4.49,4.49,0,0,1,2.1-.6,8.79,8.79,0,0,0,2.1-.9,6.34,6.34,0,0,1,2.8,1.8,2.49,2.49,0,0,0,.8-.1,2.81,2.81,0,0,1,.8-.1,11.53,11.53,0,0,1,1.8,1.6,10.49,10.49,0,0,0,1.5,2.6,9.85,9.85,0,0,1,1.3,2.1c-.2,1.3-.3,2.1-.3,2.2a8.51,8.51,0,0,1-2.5,4.8c-.1.1-.2.2-.3.2-.2.6-1.2,1.5-2.9,2.8-1.1.9-1.8,1.5-2,2.1a3.19,3.19,0,0,1-.7.6,13.12,13.12,0,0,0-3.7,4.9,9.57,9.57,0,0,1-.9,1.6,2.7,2.7,0,0,0-.7,1.3,12.13,12.13,0,0,0-1.1,3.2c-.2,1.3-.6,2.4-.9,3.6a10.88,10.88,0,0,0-.6,3.6,26.32,26.32,0,0,0,.4,4.7,11.29,11.29,0,0,1,.6,2.1,7,7,0,0,1,.4,1.9,8.66,8.66,0,0,1,.2,1c.1.4.1.9.2,1.1a18.87,18.87,0,0,0,.9,3.4,2.3,2.3,0,0,0,.3.9c.1.5.3.7.3.9a35.77,35.77,0,0,0,4,7.9c.3.3.7,1.1,1.6,2.3a18.85,18.85,0,0,0,2,2.7,12.92,12.92,0,0,0,4.5,3.7l3.9,1.8a11.12,11.12,0,0,0,6.7-2.7,7.77,7.77,0,0,0,2.5-2.6c2.5-4.5,4.4-7.9,5.6-10a12,12,0,0,0,1.3-4.5,37.25,37.25,0,0,0,0-6.7,29.18,29.18,0,0,1-.3-3.6v-.7a13.88,13.88,0,0,1-.3-1.7c-.1-.8-.2-1.4-.3-2s-.1-1.1-.2-1.7c-.4-3-.6-4.8-.6-5.5a10,10,0,0,0-1.2-5.9,6.89,6.89,0,0,1-.3-.8,4.5,4.5,0,0,1-.2-.8l-.7-.8c-2.2.2-3.3.4-3.5.4a5.6,5.6,0,0,1-4-.2,10.12,10.12,0,0,1-5.7-4.1,7.79,7.79,0,0,1-1.1-4.8,7.51,7.51,0,0,1,1-3.8,3.76,3.76,0,0,1,2-.8,12.62,12.62,0,0,1,6.7,0,9.54,9.54,0,0,1,1.7.4,8.68,8.68,0,0,0,1.6.6,7.37,7.37,0,0,1,3.8,2.8c.1.1.5.7,1.3,1.8.8-.2,1.1-.4,1.2-.4.8-.7,1.8-1.6,3.1-2.7s2.6-2.1,3.7-3.1a26.43,26.43,0,0,0,2.9-2.9c.2-.3,1.2-1.6,2.9-3.7q.6-.9,2.1-2.7c.9-1.2,1.5-1.9,1.6-2.1s.5-1,1.2-2.2a.37.37,0,0,1,.3.1c.2.1.3.1.4.2a2,2,0,0,1,.3,1.1c.2.1,0,.3.2.7-1.2,2.1-2.3,4.2-3.4,6.2a4.82,4.82,0,0,1-.8,1l-3,3.6c-.3.3-.7.7-1.5,1.6s-1.4,1.6-1.7,2a14.07,14.07,0,0,0-1.9,2.1c-.8.9-1.4,1.6-1.6,1.9a2.09,2.09,0,0,0-.6.4l-.4.4a6.75,6.75,0,0,0-1.8,2.6c-.1,0-.4.6-1.2,1.5.1.3.4,1.3.8,3.1.8,2.8,1.2,4.2,1.2,4.3a6.57,6.57,0,0,0,.3,1.3,2,2,0,0,1,.1,1.3c-.1,0,0,.4.2,1.2a8.67,8.67,0,0,1,.3,1.3,6,6,0,0,1,.2,1.2,15.48,15.48,0,0,0,.4,4.7c0,.2.1.8.2,1.7s.2,1.5.3,2.1v.2a6.45,6.45,0,0,0-.1,2.5A9.18,9.18,0,0,1,291.9,661.94Zm169.3-51.4a6.65,6.65,0,0,1-.6,1.6c0,.1-.2.3-.4.9s-.3.9-.4,1.2a4.65,4.65,0,0,0-.4,2.3,3.08,3.08,0,0,1-.1.9c-1.1,3.7-1.7,5.9-2,6.6a2.34,2.34,0,0,0-.2,1.1,10.86,10.86,0,0,1-1.3,3.9,4.42,4.42,0,0,0-.3.8c.2.4,0,.9-.4,1.7a3,3,0,0,0-.6,1.1,11.13,11.13,0,0,1-4.6,5.6.37.37,0,0,0-.3.1c-.2.1-.3.2-.4.2-1.5.6-2.4.9-2.6,1a6.16,6.16,0,0,1-2.9.4,10.59,10.59,0,0,1-4.4-1.1,13.4,13.4,0,0,1-3.4-2.6c-.1.4-.2.5-.2.6-.2.4-.6.9-1,1.6a5.52,5.52,0,0,0-.8,1.3,1.38,1.38,0,0,0-.3.4,1.38,1.38,0,0,1-.3.4l-.3.8c-.4.3-1.1.6-2,1.1a6.25,6.25,0,0,1-1.6.7,7.82,7.82,0,0,0-2.6.1,8,8,0,0,1-4.6-.1,18.07,18.07,0,0,1-6.2-3.7,2.09,2.09,0,0,0-.4-.6c-.1.5-.2.7-.2.8-.2.7-.5,2.1-1.2,4.1a30.54,30.54,0,0,1-1.3,3.1,25.19,25.19,0,0,0-1.2,3.6,8.33,8.33,0,0,1-2.5,4.1,35.64,35.64,0,0,1-3.5,2.2,12.2,12.2,0,0,1-8.5.3,3.92,3.92,0,0,1-.8-.9,10,10,0,0,0-1.2-1.1c-.2,0-.3-.4-.4-.7a2.28,2.28,0,0,0-.9-1.5,5.35,5.35,0,0,1-1.8-2.2,7.55,7.55,0,0,0-1-1.6,2.85,2.85,0,0,1-.9-1.9,28.16,28.16,0,0,0-1.6-5.1,20,20,0,0,1-1.5-5.4,3.55,3.55,0,0,1-.2-1l-.4-1.6c-.2-.8-.3-1.4-.4-1.7-.2-.9-.5-1.4-1.1-1.6a43.24,43.24,0,0,0-1.5-8.2,7.26,7.26,0,0,1-.6-2.2,2.25,2.25,0,0,0-.3-1.5,3.36,3.36,0,0,1-.8-1.8,2.15,2.15,0,0,0-1-1.5,14.28,14.28,0,0,0-5,3.6,1.69,1.69,0,0,0-.6.7,8.51,8.51,0,0,1-.7,1.6,13.79,13.79,0,0,0-.8,2,5.26,5.26,0,0,0-.4,1.7,3.71,3.71,0,0,1-.2.9c-.1.4-.2.7-.2.8a25.63,25.63,0,0,1-.3,2.7,4.34,4.34,0,0,0,.2,1.3c.1.5.2,1,.4,1.8s.3,1.4.4,1.7.1.6.1.9a3.2,3.2,0,0,1,.1.7c.1.4.2.6.2.7a2.7,2.7,0,0,1,.6,1.9c-.1.1,0,.4.1.7s.2.5.2.6a4.17,4.17,0,0,1,.2,1.1c0,.1.1.4.2,1a3.42,3.42,0,0,1,.2,1.3,1,1,0,0,0,.1.4,15.27,15.27,0,0,1,1.2,4.4c0,.3.1.5.1.7a13.7,13.7,0,0,1,.4,2,11.9,11.9,0,0,1,.3,1.7,4.48,4.48,0,0,1,0,2.3l-1,.4a4.6,4.6,0,0,0-2.1,1.1,2.69,2.69,0,0,1-2.3.7h-1.1c-.3-.2-.4-.7-.4-1.5a10.69,10.69,0,0,1-2.3-2.9,2,2,0,0,1-.3-.8,13.52,13.52,0,0,0-1.3-3,3.63,3.63,0,0,1-.3-.7,8.3,8.3,0,0,0-1.2-2.8l.8-.8a1.6,1.6,0,0,0-.3-.8c-.2-.4-.3-.5-.3-.6s-.2-.1-.4-.1h-.4l-.2-.4c-.1-.1-.1-.3-.2-.4-.2.5-.6,1.2-.9,2.1a12,12,0,0,1-.9,2.3,17.39,17.39,0,0,0-1.3,3.4,17.18,17.18,0,0,1-1.1,2.5c-.6,1.5-1.1,2.3-1.2,2.6a5.48,5.48,0,0,1-.9,1.6c-.9,1.5-1.5,2.6-2.1,3.4a8,8,0,0,1-1.1,1.5l-.1.2a2.3,2.3,0,0,0-1.3,1,1.72,1.72,0,0,1-.6.6,5.92,5.92,0,0,0-.6.4,9.87,9.87,0,0,1-2.3,1.2,4.65,4.65,0,0,1-.9.3,1.58,1.58,0,0,0-.8.3l-.8.2c-.3,0-1.1.1-2.1.2-1.2.1-1.9.1-2.5.1a9.78,9.78,0,0,1-4.4-1.3,21.64,21.64,0,0,1-2.2-1.6,4.47,4.47,0,0,1-1.6-1.3,5.5,5.5,0,0,1-.7-.9,16.7,16.7,0,0,0-.6,2,12,12,0,0,0-.4,1.7,14.81,14.81,0,0,1-1.3,3.1c-.1.4-.3.6-.4.6a.52.52,0,0,0-.4.2c-.1.2-.1.4-.2.6a2.18,2.18,0,0,1-.1.6c-1.6,1-2.4,1.6-2.5,1.6a17.65,17.65,0,0,0-2.1.4c-.9.8-2.4,1.4-4.9,1.8a3.43,3.43,0,0,1-1.7-.1,8,8,0,0,1-3.6-1.2c-1.6-1-2.7-1.6-3.1-2.2a14.35,14.35,0,0,1-3.8-6,2,2,0,0,0-.3-.8,2,2,0,0,1-.3-.8,4.87,4.87,0,0,1-.6-1.6c-.2-.6-.3-1.1-.4-1.3a28,28,0,0,1-1.3-7.6v-3.4l-.1-.9a6.82,6.82,0,0,0-1.8-.2c-.8-.1-1.5-.2-1.9-.3s-1.5-.4-3.6-1c-2,1.4-3.3,2.4-4,3a2.75,2.75,0,0,1-1.6-.3c-.2-.1-.3-.1-.4-.2a.76.76,0,0,1-.4-.2c-.1-.1-.2-.2-.3-.2,0-.4.1-.6.4-.6,1.2-.2,2.6-1.2,4.4-3-.6-.6-.8-.9-.9-.9a23.63,23.63,0,0,1-2.1-3.8,7.66,7.66,0,0,1-.4-2.7,10.29,10.29,0,0,1,1-3.6,4.33,4.33,0,0,1,1.3-1.6,5.83,5.83,0,0,1,4.3-1.2c1.2,1.6,2.1,2.8,2.9,3.8,0,.1.1.2.1.4a5.85,5.85,0,0,1-.1,5,3.08,3.08,0,0,0-.3,1.3,5.27,5.27,0,0,0,4.7,1.2c.5-.4.7-.6.7-.7a4,4,0,0,1,2.8-1.9,3.38,3.38,0,0,1,1-.4h1a3.75,3.75,0,0,0,1,.1,1.45,1.45,0,0,1,.7.2,7.91,7.91,0,0,0,2.8,1.2,9.62,9.62,0,0,1,.9,1.5,2.93,2.93,0,0,1-.4.8,15.8,15.8,0,0,1,1,2.8,5.64,5.64,0,0,1,.3,2,3.08,3.08,0,0,0,.1.9c1.8,6.8,3,10.9,3.6,12.6.1.4.4,1.2.7,2.1a17.28,17.28,0,0,1,.6,1.8,4.21,4.21,0,0,0,1.7,1.8,1.25,1.25,0,0,0,1.3-.4,31.22,31.22,0,0,0,3.7-4.8c.7-1.2,1.2-2.5,1.8-3.7-.3-.4-.7-.9-.9-1.2a36.13,36.13,0,0,1-3.2-7.8,47,47,0,0,1-1.3-9.3,20.73,20.73,0,0,1,.9-5.9,14.31,14.31,0,0,1,3-5.7,8.72,8.72,0,0,1,5-3.4,14.5,14.5,0,0,1,2-.8,11.05,11.05,0,0,0,1.8.2,27.93,27.93,0,0,1,4.6.7,7.23,7.23,0,0,1,2.6,1,1.06,1.06,0,0,1,.6.7c.6.9,1.1,1.6,1.3,1.9.4.5.6,1,.8,1.2a1.86,1.86,0,0,1,.7,1.3,4.09,4.09,0,0,1,.7,1.3,12.27,12.27,0,0,0,.1,1.7,5.91,5.91,0,0,1,0,1.9,2.7,2.7,0,0,1-.8.7c-.1,0-.2-.4-.3-.8a5.53,5.53,0,0,0-.1-.9,5.92,5.92,0,0,0-1.6-3.6,17.47,17.47,0,0,0-1.8-2,5.46,5.46,0,0,0-2.5-1.3,19.1,19.1,0,0,0-3.9-.4c-.1,0-.4.1-.8.2a4.84,4.84,0,0,0-.7,2.6c-.2,2-.5,4.2-.9,6.3a23.65,23.65,0,0,0-.1,3,17.47,17.47,0,0,0,.2,2.9,39.27,39.27,0,0,0,1.3,5.3c.5,1.3.7,2.1.8,2.3a5.35,5.35,0,0,1,.6,1.3,9.25,9.25,0,0,1,.3,1,6.89,6.89,0,0,0,.7,1.5c.2.4.5.9.8,1.5a5.69,5.69,0,0,1,.7,1.2,6.6,6.6,0,0,0,3.1,2.8,7.84,7.84,0,0,0,2.9.8,6,6,0,0,0,4.3-.9,15.91,15.91,0,0,0,3.6-3.7,26.76,26.76,0,0,0,2.8-4.6,21.49,21.49,0,0,1,1.1-2.2,21.66,21.66,0,0,0,1.1-2.3c.6-1.3,1.4-3.2,2.3-5.7v-.1c-.2-.6-.6-1.4-.8-2.2a16.71,16.71,0,0,0-.7-1.9,2.54,2.54,0,0,1-.2-.7,5.76,5.76,0,0,0-.7-2.1l-.4-1.3c-.7-1.9-1-2.8-1.1-3,0,0-.1-.4-.3-1.1l-1-3a10,10,0,0,1-.4-1.1,7.78,7.78,0,0,1-.3-.9,2.15,2.15,0,0,1-.3-1c-.1-1.2-.8-2.8-1.9-5.3a.44.44,0,0,1-.1-.3.37.37,0,0,1-.1-.3c-.6-1.4-.9-2.2-1-2.3a1.08,1.08,0,0,1-.2-.7,7,7,0,0,0-.4-1.9,5.49,5.49,0,0,1-.6-1.9,5.59,5.59,0,0,0-.4-2,8.42,8.42,0,0,1-.7-2.7,44.46,44.46,0,0,1-.9-4.5,2.36,2.36,0,0,1,1.5-.7,6.87,6.87,0,0,1,3.2.2c1.1.3,2.4.7,3.7,1a4.34,4.34,0,0,1,1.6,1,6.71,6.71,0,0,1,1.2,1.2,6.75,6.75,0,0,0,1.1,1.2,1.38,1.38,0,0,1,.3.4c.8,1.9,1.1,2.9,1.2,2.9a16.17,16.17,0,0,1,.8,2c.4,1,.5,1.6.6,1.8a49.38,49.38,0,0,1,1.7,4.8,4.37,4.37,0,0,1,.6,1c.2.4.3.9.4,1.1a6.89,6.89,0,0,1,.3.8,2.6,2.6,0,0,1,.3.7l.6,1.5a.1.1,0,0,0,.1-.1c.1-.1.1-.2.2-.2a23.72,23.72,0,0,1,3.1-4.1,1.38,1.38,0,0,1,.4-.3q.3-.15.3-.3a23.65,23.65,0,0,1,5-3.2,10.24,10.24,0,0,1,4.5-.9,9.48,9.48,0,0,0,1.7,0,10.74,10.74,0,0,1,3,.8.52.52,0,0,1,.4.2c.2.2.9.8,2,1.8a9.06,9.06,0,0,1,2.6,3.6,36.76,36.76,0,0,1,1.5,3.9,11.43,11.43,0,0,1,.8,2.7,23.46,23.46,0,0,0,1.5,3.7,4.87,4.87,0,0,1,.4,1.1c.3,2.2.6,3.6,1.2,4.4l.1.1c1,3.9,1.6,6.2,1.6,6.6l.3,1s.1.5.4,1.5a9.23,9.23,0,0,1,.6,2.2,2.54,2.54,0,0,1,.2.7,15.7,15.7,0,0,0,1.2,4.9,3.87,3.87,0,0,0,2.9.8,4.2,4.2,0,0,0,1.5-1.7c.4-1.1.8-2,1.1-2.7.2-.9.6-1.8.8-2.6.6-1.8,1.4-4.7,2.5-8.7.1,0,.2-.5.4-1.5-.2-.3-.4-.7-.6-1a22,22,0,0,1-2.1-5.3c-.1-.5-.4-1.6-1-3.5a13.86,13.86,0,0,1-.7-5.4v-1.7a10.4,10.4,0,0,1,.6-4.5,34.49,34.49,0,0,1,1.9-4.7,11.1,11.1,0,0,1,2.1-3.2,7.1,7.1,0,0,1,4.1-2.8,8.81,8.81,0,0,0,2.6-.9,1.55,1.55,0,0,1,2.1.2c.4.2,1.1.5,2.6,1.2s2.5,1.1,2.8,1.2a2,2,0,0,1,.8.3.76.76,0,0,0,.1-.4c0-.3.3-1.9.6-5.3a1.77,1.77,0,0,1,1.8-1.7,10.87,10.87,0,0,0,1.3-.1,13.65,13.65,0,0,1,3.5.3,1.39,1.39,0,0,1,.9.4,7.54,7.54,0,0,1,2.8,3.8,2.84,2.84,0,0,0,.6,1,10.86,10.86,0,0,1,1.7,3.2,16.41,16.41,0,0,1,1,2.8,6,6,0,0,1,.6,2.2,16.74,16.74,0,0,1,.3,2.8c0,.2,0,.3.1.4a5.75,5.75,0,0,1,.4,2.1c.3,2.7.4,4.1.4,4.3a12.77,12.77,0,0,0,.2,1.7,11,11,0,0,1,.2,3.2,10.57,10.57,0,0,0,.2,3.1,23,23,0,0,1,.8,3.7A3.82,3.82,0,0,0,447,635a1.93,1.93,0,0,0,1.8.7,4.18,4.18,0,0,0,1.5-1.9,10,10,0,0,1,1.2-2.2,27.25,27.25,0,0,0,1.7-3.6c0-.1.1-.2.1-.3a7.5,7.5,0,0,0,1-2c.2-.8.6-1.6.9-2.6s.7-1.7.8-2.1a68.29,68.29,0,0,1,3.7-8.1c.1-.3.3-.6.4-.9a3,3,0,0,0,.4-1,6.31,6.31,0,0,0,.4-.9,3.52,3.52,0,0,1,.4-1C461.9,609.24,462.2,609.54,461.2,610.54Zm78.9-14.7c-.5,2.7-1,4.5-1.2,5.3a15.15,15.15,0,0,1-.9,2.6c-.1.3-.2.7-.4,1.6a4.34,4.34,0,0,1-.8,1.8v.5a12.27,12.27,0,0,1-.8,2.5,8.45,8.45,0,0,1-1.5,1.8,7.39,7.39,0,0,1-2.9,2.1c-.7.3-1.3.7-1.9,1a3.22,3.22,0,0,1-1.8.6,12.41,12.41,0,0,1-6-.4.52.52,0,0,1-.4-.2,4.45,4.45,0,0,0-1.8-1,6.41,6.41,0,0,0-.9-.7,1.13,1.13,0,0,0-.7-1.1c0-.1-.1-.1-.2-.1a.49.49,0,0,1-.3-.1c-.1,0-.2-.1-.3-.1a3.09,3.09,0,0,0-1.1-2c0,.1-.2.1-.4.2l-.4-.4v2.1a6.76,6.76,0,0,1-.7,2.6,5.42,5.42,0,0,0-.6,1.1c-.4.6-.5.9-.6,1a2.74,2.74,0,0,0-.7.4c-.3.3-.7.5-.9.7v.7l-.2.2a5,5,0,0,0-2.2,1.2c-2.3,1.2-4.2,1.9-5.7,1.8a5.72,5.72,0,0,1-2.8-.2,16,16,0,0,1-9-5.6,1.72,1.72,0,0,1-.1.8,19.12,19.12,0,0,0-.6,2.1,12,12,0,0,0-.4,1.7,14.81,14.81,0,0,1-1.3,3.1c-.1.4-.3.6-.4.6a.52.52,0,0,0-.4.2c-.1.2-.1.4-.2.6-.1.4-.2.5-.2.6-1.6,1-2.4,1.6-2.5,1.6a17.65,17.65,0,0,0-2.1.4c-.9.8-2.4,1.4-4.9,1.8a3.43,3.43,0,0,1-1.7-.1,8,8,0,0,1-3.6-1.2c-1.6-1-2.7-1.6-3.1-2.2a14.35,14.35,0,0,1-3.8-6,2,2,0,0,0-.3-.8,2,2,0,0,1-.3-.8,4.87,4.87,0,0,1-.6-1.6c-.2-.6-.3-1.1-.4-1.3a28,28,0,0,1-1.3-7.6v-3.4l-.1-.9c-.3-.1-1-.1-1.8-.2s-1.5-.2-1.9-.3-1.5-.4-3.6-1c-2,1.4-3.3,2.4-4,3a2.75,2.75,0,0,1-1.6-.3c-.2-.1-.3-.2-.4-.2a.76.76,0,0,1-.4-.2c-.1-.1-.2-.2-.3-.2,0-.4.1-.6.4-.6,1.2-.2,2.6-1.2,4.4-3-.6-.6-.8-.9-.9-.9a23.63,23.63,0,0,1-2.1-3.8,7.66,7.66,0,0,1-.4-2.7,10.29,10.29,0,0,1,1-3.6,4.33,4.33,0,0,1,1.3-1.6,5.83,5.83,0,0,1,4.3-1.2c1.2,1.6,2.1,2.8,2.9,3.8,0,.1.1.2.1.4a5.85,5.85,0,0,1-.1,5,3.08,3.08,0,0,0-.3,1.3,5.27,5.27,0,0,0,4.7,1.2c.5-.4.7-.6.7-.7a4,4,0,0,1,2.8-1.9,3.38,3.38,0,0,1,1-.4h1a3.75,3.75,0,0,0,1,.1,1.45,1.45,0,0,1,.7.2,7.91,7.91,0,0,0,2.8,1.2,9.62,9.62,0,0,1,.9,1.5,2.93,2.93,0,0,1-.4.8,15.8,15.8,0,0,1,1,2.8,5.64,5.64,0,0,1,.3,2,3.08,3.08,0,0,0,.1.9c1.8,6.8,3,10.9,3.6,12.6.1.4.4,1.2.7,2.1a17.28,17.28,0,0,1,.6,1.8,4.21,4.21,0,0,0,1.7,1.8,1.25,1.25,0,0,0,1.3-.4,31.22,31.22,0,0,0,3.7-4.8,37.29,37.29,0,0,0,2-4,.35.35,0,0,0,.1-.2,5.32,5.32,0,0,1-1-1.6c-.5-1-1.2-2.2-2-3.7-.1-.2-.1-.4-.2-.6q-1.8-4.95-1.8-5.1l-.4-.6a13.7,13.7,0,0,1,.2,1.6,177707914921,177707914921,0,0,0-.2-.2,14.44,14.44,0,0,1-.9-5.8v-1.7a21.33,21.33,0,0,0,.1-2.2,10.77,10.77,0,0,1,.9-4.5c.7-1.7,1-2.7,1.1-2.9a8.32,8.32,0,0,1,2.2-3.4c.2-.2.3-.3.4-.3a10.81,10.81,0,0,0,2.1-1.1,5.52,5.52,0,0,1,2.1-1,7.15,7.15,0,0,1,5.9-.1,5,5,0,0,0,2.5.7,8.16,8.16,0,0,1,2.5,1c.9.8,1.7,1.4,2.1,1.8a11.34,11.34,0,0,1-.7-2.6v-.6a14.36,14.36,0,0,0-1.1-4.6,1.33,1.33,0,0,1-.3-.7,2.49,2.49,0,0,0-.1-.8,4.5,4.5,0,0,1-.2-.8,19.72,19.72,0,0,1-.7-3.6c-.2,0-.3-.7-.6-1.8A54,54,0,0,1,501,563c0-.4-.2-1.5-.4-3.1.1-.1.1-.4.2-.7s.1-.7.2-1,.1-.4.2-.4l1.8-.6c.2,0,.5.2.8.6s.6.7.7.7H506a2.39,2.39,0,0,1,.9.2,11.52,11.52,0,0,0,1.1.7,10.14,10.14,0,0,0,1.3.9v.4a28.85,28.85,0,0,1,2.7,1.9,1.66,1.66,0,0,1,1,1.3.6.6,0,0,1,.1.4,13.56,13.56,0,0,0,2,4.5,5.86,5.86,0,0,1,.7,2.7,10.36,10.36,0,0,0,1.1,3.8,14.68,14.68,0,0,1,.4,1.7v.6c.2.1.3.4.3.8a5.53,5.53,0,0,0,.1.9c.4.5.6,1,.8,1.2a2,2,0,0,1,.6,1.6.73.73,0,0,0,.2.6c.2.2.2.3.2.4a3,3,0,0,0,.7,1.6,1.08,1.08,0,0,1,.1.6v.6l.6.3.6-.1.2.4a8.41,8.41,0,0,1,.6,1.9,2.3,2.3,0,0,0,.3.9,3.71,3.71,0,0,1,.2.9.73.73,0,0,0,.2.6,1.55,1.55,0,0,1,.3.6,7,7,0,0,0,.6,1.7,2.7,2.7,0,0,1,.3,1.6,2.39,2.39,0,0,1,.3.7c.3.6.6,1.1.9,1.7.1.1.1.4.2.8a3,3,0,0,0,.3.9,14.7,14.7,0,0,1,1.2,2.5c0,.1.1.8.4,2.3a10.08,10.08,0,0,1,1.2,2.3,3.29,3.29,0,0,0,2.2,2.1,5.69,5.69,0,0,0,1.7-1.2,35.9,35.9,0,0,0,4.8-6.3c.4-.6.9-1.8,1.7-3.5a.37.37,0,0,0,.1-.3v-.4c0-.1.1-.2.1-.3.1-1,.4-1.3.7-1.1A.49.49,0,0,1,540.1,595.84Zm12.9-97.4a17.71,17.71,0,0,1-.6,3.4c-1,8.2-3.8,18.1-8.4,29.8a4.37,4.37,0,0,0-.6,1c-.4.4-.6.9-.8,1.1a1.82,1.82,0,0,1-1.1.4,4.72,4.72,0,0,1-3.5.9,15.67,15.67,0,0,1-3.4-.7,9.34,9.34,0,0,1-2-1,21.07,21.07,0,0,1-6.2-7.8c-.1-.4-.4-.9-.7-1.7a8.51,8.51,0,0,1-.7-1.6c-.1-.3-.7-2-1.7-5-.1-.3-.2-.6-.3-1s-.2-.6-.2-.7a2,2,0,0,1-.2-.9,5.38,5.38,0,0,0-.1-.8,4.37,4.37,0,0,1-.6-1.8,5.07,5.07,0,0,0-.2-.9,8.14,8.14,0,0,1-.2-.9,3.71,3.71,0,0,0-.2-.9c-.1-.5-.2-.8-.2-.9l-.6-1.8a9,9,0,0,1-.7-2.2c-.1-.5-.2-.8-.2-.9a6.41,6.41,0,0,1-1-3.7c.1-.1.1-.2.1-.4v-.6c-.1,0-.1-.1-.4-.3s-.4-.3-.6-.3a23.12,23.12,0,0,1-.7-2.5c.1-.2-.6-1.9-1.8-5.3a3,3,0,0,0-2.9-2.1,1.71,1.71,0,0,0-1.6.4c-1.8,1.4-3.1,2.8-3.5,4.6a11.26,11.26,0,0,0-.4,3.2,17.19,17.19,0,0,0-.2,2.6,9.85,9.85,0,0,1-.1,2.1,8.28,8.28,0,0,0,1.2,5.7c.1.2.1.5.2.8.2.8.6,1.8,1,3,.4,1.4.8,2.1,1,2.7l.3.8a4.42,4.42,0,0,1,.3.8c.1.3.4.9.7,1.8a13.61,13.61,0,0,0,.7,1.8c.7,1.6,1.3,3.2,2,4.8.1.3.4,1.5,1.1,3.5a5.76,5.76,0,0,0,.2,1,8.66,8.66,0,0,0,.2,1,9.54,9.54,0,0,1,.6,4v.4a1.73,1.73,0,0,1-.9,1.8c-.2.1-.6.4-1.5,1-.4,0-.6-.1-.8-.1l-.9.4-.7-.1a1.21,1.21,0,0,0-1.2-.3c-1.6-.4-2.4-.6-2.5-.6a12.13,12.13,0,0,0-3-1.1l-.3-.2c-.2-.7-.6-1.5-1-2.7a16.06,16.06,0,0,1-1-2.7,184.44,184.44,0,0,0-1.3-3.3c-.5,1.3-.7,2.4-.9,2.8a3.18,3.18,0,0,0-.2,1.3,14.71,14.71,0,0,1-1.6,4.6,6.47,6.47,0,0,0-.3,1,4.19,4.19,0,0,1-.6,2,2.56,2.56,0,0,0-.7,1.2,14.27,14.27,0,0,1-2.6,4.1,9,9,0,0,1-3,2.6c0,.1-.1.1-.3.2a.76.76,0,0,1-.4.2c-1.8.6-2.8,1.1-3.1,1.2a8.6,8.6,0,0,1-3.5.4,13.26,13.26,0,0,1-5.1-1.3,15.51,15.51,0,0,1-4-3,2.6,2.6,0,0,0-.3.7c-.3.4-.6,1.1-1.2,1.9a9.62,9.62,0,0,0-.9,1.7,2.09,2.09,0,0,1-.4.6,1.54,1.54,0,0,1-.4.6l-.3,1a9.36,9.36,0,0,1-2.3,1.3,12,12,0,0,1-1.8.8,7.76,7.76,0,0,0-3,.1,10.32,10.32,0,0,1-5.5-.2,18.29,18.29,0,0,1-7.4-4.4c-.6-.6-1.8-2.1-3.8-4.4a12.58,12.58,0,0,0-1.3-2.3,6.72,6.72,0,0,1-.6-1.2.1.1,0,0,0-.1.1,23.54,23.54,0,0,0-1.6,4,28.93,28.93,0,0,1-1.3,3c-.8,1.7-1.4,2.7-1.5,3a12,12,0,0,1-1.1,1.9c-1.1,1.8-1.9,3.1-2.6,4-.1.1-.5.7-1.3,1.7l-.1.3a2.59,2.59,0,0,0-1.7,1.2,1.58,1.58,0,0,1-.7.7,6,6,0,0,0-.7.6,8.54,8.54,0,0,1-2.8,1.6,3,3,0,0,0-1.1.3,4.13,4.13,0,0,0-.9.4l-.9.2a19.27,19.27,0,0,0-2.5.3,10.49,10.49,0,0,1-2.9.2,12.56,12.56,0,0,1-5.3-1.6,25.53,25.53,0,0,1-2.6-1.9,10.35,10.35,0,0,1-1.8-1.6,6.13,6.13,0,0,1-.4-.6,12.62,12.62,0,0,1-.7,1.6,20.72,20.72,0,0,0-1.7,4.1.64.64,0,0,0,0,.6.85.85,0,0,1,0,.7l-2.2,2.2a17.14,17.14,0,0,1-3.7,2.2,7.38,7.38,0,0,0-1.3.8,27.43,27.43,0,0,1-4.3,1.7,12.83,12.83,0,0,1-1.8.1c-.3,0-.8-.1-1.2-.1a15.76,15.76,0,0,1-5.4-1.3c.1,0,.2-.1.3-.2s.2-.2.2-.3c-.5-.4-1-.9-1.8-1.5s-1.4-1-1.6-1.2a31.27,31.27,0,0,1-5.1-6.3,155.62,155.62,0,0,1-6.3,19,4.37,4.37,0,0,0-.6,1c-.4.4-.6.9-.8,1.1a1.82,1.82,0,0,1-1.1.4,4.72,4.72,0,0,1-3.5.9,15.67,15.67,0,0,1-3.4-.7,9.34,9.34,0,0,1-2-1,21.07,21.07,0,0,1-6.2-7.8c-.1-.4-.4-.9-.7-1.7a8.51,8.51,0,0,1-.7-1.6c-.1-.3-.7-2-1.7-5-.1-.3-.2-.6-.3-1s-.2-.6-.2-.7a2,2,0,0,1-.2-.9,5.38,5.38,0,0,0-.1-.8,4.37,4.37,0,0,1-.6-1.8,5.07,5.07,0,0,0-.2-.9,8.14,8.14,0,0,1-.2-.9,3.71,3.71,0,0,0-.2-.9c-.1-.5-.2-.8-.2-.9l-.6-1.8a9,9,0,0,1-.7-2.2c-.1-.5-.2-.8-.2-.9a6.41,6.41,0,0,1-1-3.7c.1-.1.1-.2.1-.4V546c-.1,0-.2-.1-.4-.3s-.4-.3-.6-.3a23.12,23.12,0,0,1-.7-2.5c.1-.2-.6-1.9-1.8-5.3a3,3,0,0,0-2.9-2.1,1.71,1.71,0,0,0-1.6.4c-1.8,1.4-3.1,2.8-3.5,4.6a11.26,11.26,0,0,0-.4,3.2,17.19,17.19,0,0,0-.2,2.6,9.85,9.85,0,0,1-.1,2.1,8.28,8.28,0,0,0,1.2,5.7c.1.2.1.5.2.8.2.6.4,1.1.6,1.8.2.1.2.2.2.4s.2.6.3.8c.4,1.4.8,2.1,1,2.7l.3.8a4.42,4.42,0,0,1,.3.8c.1.3.4.9.7,1.8a13.61,13.61,0,0,0,.7,1.8c.7,1.6,1.3,3.2,2,4.8.1.3.4,1.5,1.1,3.5a5.76,5.76,0,0,0,.2,1,8.66,8.66,0,0,0,.2,1,9.54,9.54,0,0,1,.6,4v.4a1.73,1.73,0,0,1-.9,1.8c-.2.1-.6.4-1.5,1-.4,0-.6-.1-.8-.1l-.9.4-.7-.1a1.21,1.21,0,0,0-1.2-.3c-1.6-.4-2.4-.6-2.5-.6a12.13,12.13,0,0,0-3-1.1l-.3-.2c-.2-.7-.6-1.5-1-2.7a9.76,9.76,0,0,1-.7-1.6,13.51,13.51,0,0,1-1.3,3.4l-.3.9a3.3,3.3,0,0,1-.7,2.1c0,.2-.1.3-.2.6a12.32,12.32,0,0,1-2.6,4.9,17.53,17.53,0,0,1-11.4,6.2,25.18,25.18,0,0,1-6.3-.4,5.42,5.42,0,0,0-1.1-.6c-1.5-.9-2.6-1.6-3.4-2a3.74,3.74,0,0,1-1.6-2,5.42,5.42,0,0,0-1.1-.6c-.6-.2-.8-.4-1-.4a1.63,1.63,0,0,0-1.5,1.1,28.34,28.34,0,0,1-2.7,4.1,12.81,12.81,0,0,1-4.4,3.8c-.1,0-.5.3-1.3.7s-1.4.7-1.7.9a7.69,7.69,0,0,1-4.1.4c-1.7-.2-3.2-.6-4.3-.8a26.7,26.7,0,0,1-8.2-4,23.93,23.93,0,0,1-2.8-2.8c-.4-.6-1.1-1.6-1.9-2.8a12.24,12.24,0,0,1-.3,3.6v.3a5.45,5.45,0,0,1-.1,2.2,17.07,17.07,0,0,1-.7,2.6,15.63,15.63,0,0,0-.6,2,26.35,26.35,0,0,1-1.6,3.8c-.3.5-.5.7-.6.7a1.63,1.63,0,0,0-.6.3,2.39,2.39,0,0,0-.3.7,3.93,3.93,0,0,0-.2.6c-1.8,1.1-2.8,1.8-2.9,1.8-.3,0-1,.3-2.6.6-1,.9-2.9,1.7-5.8,2.1a9.69,9.69,0,0,1-2-.2,12.6,12.6,0,0,1-4.3-1.5,14.24,14.24,0,0,1-3.7-2.7,17.11,17.11,0,0,1-4.5-7.3c-.1-.2-.2-.6-.4-1s-.3-.8-.4-1a5.84,5.84,0,0,1-.7-1.9,8.68,8.68,0,0,1-.6-1.6,31.41,31.41,0,0,1-1.6-9.1v-3.9l-.2-1a9.1,9.1,0,0,0-2.1-.2,7.12,7.12,0,0,1-2.3-.3c-.4-.1-1.8-.5-4.3-1.2-2.5,1.8-4,2.9-4.8,3.6a3.61,3.61,0,0,1-1.8-.3,1.63,1.63,0,0,1-.6-.3,3.33,3.33,0,0,1-.6-.3c-.2-.1-.3-.2-.4-.2,0-.5.2-.7.6-.7,1.3-.3,3-1.6,5.1-3.7-.6-.7-.9-1.1-1-1.1a19.43,19.43,0,0,1-2.5-4.5,5.1,5.1,0,0,1-.6-3.1,11.88,11.88,0,0,1,1.1-4.3,5.4,5.4,0,0,1,1.6-1.9,6.25,6.25,0,0,1,5-1.5c1.5,1.9,2.6,3.5,3.5,4.6a1.27,1.27,0,0,0,.1.6,7.16,7.16,0,0,1-.2,5.9,3.73,3.73,0,0,0-.4,1.6,6.64,6.64,0,0,0,5.6,1.3c.6-.5.8-.7.8-.8a4,4,0,0,1,3.2-2.2,4.27,4.27,0,0,1,1.2-.6h1.2a6.25,6.25,0,0,0,1.2.1,3.09,3.09,0,0,1,.8.2,7.67,7.67,0,0,0,3.4,1.6c.5.8.9,1.4,1.1,1.8a2.47,2.47,0,0,1-.4.9c.8,2.1,1.1,3.2,1.2,3.4a6.39,6.39,0,0,1,.4,2.5,5.76,5.76,0,0,0,.2,1c2.4,8.1,3.7,13.1,4.4,15,.2.6.5,1.5.9,2.6s.6,1.8.7,2.1a3.49,3.49,0,0,0,1.9,2.1,1.91,1.91,0,0,0,1.6-.6,30.23,30.23,0,0,0,4.4-5.8c.8-1.6,1.6-3.2,2.3-4.8q0-.15,1.2-3a5.64,5.64,0,0,0,.7.1c.3,0,.5.1.7.1-.5-.8-1-1.7-1.6-2.8a38.59,38.59,0,0,1-3.8-9.1l-.4-1.2a7.78,7.78,0,0,1-.3-.9,30.91,30.91,0,0,1-2-7,6.05,6.05,0,0,0-.2-1.5,30.93,30.93,0,0,1-.2-7,13,13,0,0,0-.3-4.6,9.22,9.22,0,0,1,2.8-1,37,37,0,0,1,4.4,1.9,5.87,5.87,0,0,1,2.5,2.1c.4.5,1.3,1.6,2.6,3.4s2.2,3.3,2.9,4.3a5.76,5.76,0,0,1,1.2,2.6,16.71,16.71,0,0,0,2.2,5.9c.3.7.8,1.4,1.1,2.2s.8,1.6,1.2,2.6.8,1.6,1,2.2c.2.1.4.5.6.8a6.31,6.31,0,0,1,.4.9,16.27,16.27,0,0,1,1.1,2.3,23.33,23.33,0,0,0,1.8,4.3l.8,2c1.6.9,2.4,1.5,2.6,1.5a3.23,3.23,0,0,0,3.8-.6,11.61,11.61,0,0,0,2.8-4.5,14.55,14.55,0,0,0,1.5-6.7,10.34,10.34,0,0,1-1.1-1.5,4.37,4.37,0,0,1-1.1-2.9l-.1-.4a123.47,123.47,0,0,1-3.6-11.9c-.3-1.6-.7-3.7-1.1-6.3-.1-.3-.2-2.5-.3-6.5V550a12.5,12.5,0,0,1,2.8-2.5,12,12,0,0,1,3-1.6,15,15,0,0,1,7.5,6.4,10.13,10.13,0,0,0,1,1.5,17.21,17.21,0,0,1,1.2,2.1c.3.8.8,1.9,1.6,3.6s1.4,2.9,1.8,3.8a8,8,0,0,1,.6,1.7,11.92,11.92,0,0,0,.8,2,8.47,8.47,0,0,0,1,1.7,4.08,4.08,0,0,0,.2.7c1.3,4.5,2,6.9,2,7.3a31.79,31.79,0,0,0,3,6.7,14.61,14.61,0,0,0,3.2,3.7c1.2.1,1.9.2,2,.2a2.22,2.22,0,0,0,2.2-1.3c.1-.1.4-.8,1.1-2a30.47,30.47,0,0,0,1.7-3.6,1.24,1.24,0,0,0,.2-.3c.1-.3.2-.4.2-.6a.1.1,0,0,0,.1-.1c0-.1,0-.1.1-.1.9-1.9,1.7-3.9,2.5-5.8.3-.8.5-1.5.7-2.1-.2-.5-.5-1.3-.8-2.2-.7-2-1.2-3.6-1.5-4.7a26.78,26.78,0,0,1-1-2.8,27.77,27.77,0,0,0-.9-2.7c-.2-.7-.9-2.8-2-6.4-.7-2.3-1.2-4.3-1.8-6.3a15.72,15.72,0,0,1-.4-2.3c0-.1,0-1.4-.2-3.5a1.44,1.44,0,0,1-.3-.2,1.38,1.38,0,0,0-.3-.4,1.27,1.27,0,0,1-.1-.6,2.46,2.46,0,0,1,.6-1.9,3,3,0,0,0,1,.2c.3.1.7.4,1.5.7a8.94,8.94,0,0,0,1.8.7,2.23,2.23,0,0,0,1.2.7c.6.2.9.4,1,.4a12.59,12.59,0,0,1,2.2,2.1,11.64,11.64,0,0,1,1.6,2l.2.6c0-.1,0-.1.2-.1q.3-1.65.3-1.8a14.48,14.48,0,0,1,3.2-6.6,11.09,11.09,0,0,1,4.6-3.4.37.37,0,0,1,.3-.1,9.87,9.87,0,0,1,4.3-.9,8.61,8.61,0,0,1,2.1.2A19.93,19.93,0,0,1,352,534a9.88,9.88,0,0,1,3.1,3,23.29,23.29,0,0,0,1.3,2.1,5.9,5.9,0,0,0,.4.8,2.71,2.71,0,0,1,.3.8,9.54,9.54,0,0,1,1.6,2.9,3.12,3.12,0,0,1,.6,1.3,6.88,6.88,0,0,0,.7,1.3,2.39,2.39,0,0,1,.3.7c.1.4.5,1.1.8,1.9s.7,1.3.8,1.5c1,2.4,1.6,3.9,1.7,4.3s.6,2.2,1.3,5l.3,1.1a19.14,19.14,0,0,1,.9,4.1,4.51,4.51,0,0,0,.3,1.3,3.14,3.14,0,0,1,.1,1.2c0,.7.1,1,.3,1.1s.1.1.1.2a5.7,5.7,0,0,0-.1,1.3c.1.4.1.9.2,1.1a11.06,11.06,0,0,1,.4,1.3c.3.5.5,1,.6,1.1a2.48,2.48,0,0,0,1.3,1.8,2,2,0,0,0,1.5-.8,37.63,37.63,0,0,0,1.9-3.7c.7-1.8,1.9-4.9,3.2-9.4.7-2,1.2-4.2,1.9-6.5-.2-.6-.6-1.4-.9-2.5a16.23,16.23,0,0,0-1.1-3c-1.2-4-2-6.5-2.2-7.5a8.65,8.65,0,0,1-.6-2.7,1.45,1.45,0,0,0-.2-.7,6.71,6.71,0,0,1-1-3.6q-.3-4.5-.3-7.5c0-.2.3-.2.7-.2a2,2,0,0,1,.7-.1,9.37,9.37,0,0,1,3.1.1,2.39,2.39,0,0,0,.9.2,4.27,4.27,0,0,1,2.6,1c.5.4.7.6.8.6a7,7,0,0,1,3.2,3.2,11.55,11.55,0,0,0,.8,1.5,8.47,8.47,0,0,0,1,1.7c.3.4.6.9.9,1.3a7,7,0,0,1,.6.9c.3.5.5.7.6.9a2.86,2.86,0,0,1,.6,2,2.65,2.65,0,0,0,.3,1c.2.5.6,1.7,1.5,3.6a8.45,8.45,0,0,1,.7,1.6,16.52,16.52,0,0,0,2.3,5.5c0,.3.1.5.1.7a3.55,3.55,0,0,0,.1.7,1.79,1.79,0,0,1,.6,1,10.08,10.08,0,0,1,.9,1.8,3.54,3.54,0,0,0,.1.6c-.3.4,0,.9.3,1.3.1.1.2.1.2.2a7.43,7.43,0,0,0,2,3.8,2.65,2.65,0,0,1,.6,1.1,2.26,2.26,0,0,0,1.9,1.5c.3,0,.7.1,1.2.1s.9.1,1.1.1c.7-.7,1-1,1.1-1a22.79,22.79,0,0,0,2.2-3.6c.5-1,1.2-2.6,2-4.6a2.49,2.49,0,0,1,.1-.8c.1-.4.1-.6.2-.7s.1-.6.2-.8c-.5-.8-1-1.5-1.3-1.9a58.06,58.06,0,0,1-3.8-9.4,45.31,45.31,0,0,1-1.6-11,26.45,26.45,0,0,1,1.1-7,16.64,16.64,0,0,1,3.6-6.8,11.63,11.63,0,0,1,6-4,19.43,19.43,0,0,0,2.3-.9,15.64,15.64,0,0,0,2.1.2,43.75,43.75,0,0,1,5.4.8,10.52,10.52,0,0,1,3,1.2c.3.1.5.5.7.8.8,1.1,1.3,1.8,1.6,2.2a5.73,5.73,0,0,0,.9,1.5,3.45,3.45,0,0,1,.8,1.6,10.43,10.43,0,0,1,.8,1.6,7.57,7.57,0,0,0,.1,2,4.07,4.07,0,0,1,0,2.2,7.27,7.27,0,0,1-.9.8c-.2-.1-.3-.4-.4-1a8.38,8.38,0,0,1-.2-1,7.62,7.62,0,0,0-1.9-4.3c-.2-.3-1-1.1-2.1-2.3a5.12,5.12,0,0,0-2.9-1.7,17.24,17.24,0,0,0-4.7-.6c-.1,0-.3.1-.9.2a5.29,5.29,0,0,0-.9,3,39.71,39.71,0,0,1-1,7.4,16.32,16.32,0,0,0-.2,3.6,20.14,20.14,0,0,0,.3,3.5c.3,1.4.8,3.5,1.6,6.2.6,1.6.8,2.5.9,2.8a5.93,5.93,0,0,1,.7,1.6c.2.5.3,1,.4,1.2.3.6.6,1.1.9,1.7a12.75,12.75,0,0,1,1,1.7,12,12,0,0,1,.8,1.5,7.93,7.93,0,0,0,3.8,3.4,16.82,16.82,0,0,0,3.5.9,7.19,7.19,0,0,0,5.1-1,18,18,0,0,0,4.3-4.4,37.88,37.88,0,0,0,3.4-5.5,15.21,15.21,0,0,1,1.3-2.7,20.42,20.42,0,0,0,1.3-2.8,6.89,6.89,0,0,0,.7-1.5,30.12,30.12,0,0,1-1.2-3.6c-.1-.4-.4-1.9-1.1-4.1a17.09,17.09,0,0,1-.8-6.4,17.22,17.22,0,0,0,.1-2,11.54,11.54,0,0,1,.7-5.4,29.59,29.59,0,0,1,2.2-5.6,15.51,15.51,0,0,1,2.6-3.9,9,9,0,0,1,4.9-3.4,13.3,13.3,0,0,0,3-1.1,2,2,0,0,1,2.6.2,18.72,18.72,0,0,0,3,1.5,33.08,33.08,0,0,0,3.4,1.6,1.85,1.85,0,0,1,1,.4,2.14,2.14,0,0,0,.1-.6c0-.3.3-2.3.7-6.3a2.08,2.08,0,0,1,2.1-1.9,14.78,14.78,0,0,0,1.6-.1c.3,0,1.7.1,4,.4a2.84,2.84,0,0,1,1,.6,10.19,10.19,0,0,1,3.4,4.5c0,.2.3.5.7,1.1a23.64,23.64,0,0,1,1.9,3.9,13.77,13.77,0,0,1,1.2,3.4c.1.4.4,1.2.7,2.7a17.65,17.65,0,0,1,.4,3.4.56.56,0,0,0,.1.6,6.59,6.59,0,0,1,.6,2.6c.4,3.1.6,4.8.6,5a19.09,19.09,0,0,0,.2,2,16.15,16.15,0,0,1,.2,3.9,10.91,10.91,0,0,0,.3,3.7,28.38,28.38,0,0,1,.9,4.5,4.75,4.75,0,0,0,1.5,2.6,2.21,2.21,0,0,0,2.1.8,6.82,6.82,0,0,0,1.7-2.3,20.59,20.59,0,0,1,1.5-2.6c1.1-2.4,1.8-3.7,2-4.3,0-.1.1-.2.1-.4a7.14,7.14,0,0,0,1.2-2.3c.3-.9.7-1.9,1.1-3,.5-1.3.7-2,.9-2.6.6-1.5,1.1-2.9,1.7-4.1-.5-1.6-1-2.9-1.2-3.9a26.78,26.78,0,0,1-1-2.8,27.77,27.77,0,0,0-.9-2.7c-.2-.7-.9-2.8-2-6.4-.7-2.3-1.2-4.3-1.8-6.3a15.72,15.72,0,0,1-.4-2.3c0-.1,0-1.4-.2-3.5a1.44,1.44,0,0,1-.3-.2,1.38,1.38,0,0,0-.3-.4,1.27,1.27,0,0,1-.1-.6,2.46,2.46,0,0,1,.6-1.9,3,3,0,0,0,1,.2,14.09,14.09,0,0,1,1.5.7,8.94,8.94,0,0,0,1.8.7,2.23,2.23,0,0,0,1.2.7c.6.2.9.4,1,.4a12.59,12.59,0,0,1,2.2,2.1,11.64,11.64,0,0,1,1.6,2l.2.6c0-.1,0-.1.2-.1q.3-1.65.3-1.8a14.48,14.48,0,0,1,3.2-6.6,11.09,11.09,0,0,1,4.6-3.4.37.37,0,0,1,.3-.1,9.87,9.87,0,0,1,4.3-.9,8.61,8.61,0,0,1,2.1.2,19.93,19.93,0,0,1,4.5,1.9,9.88,9.88,0,0,1,3.1,3,23.29,23.29,0,0,0,1.3,2.1,5.9,5.9,0,0,0,.4.8,2.71,2.71,0,0,1,.3.8,9.54,9.54,0,0,1,1.6,2.9,3.12,3.12,0,0,1,.6,1.3,6.88,6.88,0,0,0,.7,1.3,2.39,2.39,0,0,1,.3.7c.1.4.5,1.1.8,1.9s.7,1.3.8,1.5c1,2.4,1.6,3.9,1.7,4.3s.6,2.2,1.3,5l.3,1.1a19.14,19.14,0,0,1,.9,4.1,4.51,4.51,0,0,0,.3,1.3,3.14,3.14,0,0,1,.1,1.2c0,.7.1,1,.3,1.1s.1.1.1.2a5.7,5.7,0,0,0-.1,1.3c.1.4.1.9.2,1.1a11.06,11.06,0,0,1,.4,1.3c.3.5.5,1,.6,1.1a2.48,2.48,0,0,0,1.3,1.8,2,2,0,0,0,1.5-.8,37.63,37.63,0,0,0,1.9-3.7c.7-1.8,1.9-4.9,3.2-9.4s2.8-9.8,4.3-15.7a1.8,1.8,0,0,0,.6-.9c.1-.3.2-.7.3-1s.3-.7.4-1c.1-1.4.2-2.2.2-2.3,0,.2.3.5.6,1.1s.5.9,2.3,1.8A27.6,27.6,0,0,0,553,498.44Z" transform="translate(-150.4 -133.44)"/><path class="cls-1" d="M469.9,536.34a2.6,2.6,0,0,1-.3-.7c0-.1-.3-.8-.7-2s-.8-2.2-1-2.8c-.2-.4-.6-1.9-1.3-4.4-.3-1-.7-2.2-1-3.5a25.67,25.67,0,0,1-.3-2.7l-.1-.3a42.22,42.22,0,0,1-.8-5.9,10.5,10.5,0,0,0-.2-1.3,5.38,5.38,0,0,1-.1-1.1c0-.4-.1-1.2-.1-2.1a10.85,10.85,0,0,0-.2-1.7,25.29,25.29,0,0,1-2.9-1.2c-.1,0-.2-.1-.4-.1-1.9-.5-3.1-.8-3.5-.9-1.9-.6-3,0-3.2,1.9s-.4,3.1-.6,4.1a38.21,38.21,0,0,0-.6,9.6c.1,1.5.2,2.4.2,2.5s.1.3.2.7a4.54,4.54,0,0,0,.2.8,6.37,6.37,0,0,0,.2.7,2.94,2.94,0,0,1,.3.9,2.81,2.81,0,0,0,.1.8c.1.3.1.7.2.9a2.39,2.39,0,0,0,.2.9,3.45,3.45,0,0,1,.8,1.6c.2.6.4,1.1.4,1.2.1.3.3.6.4.9.3.2.4.6.6,1a9.44,9.44,0,0,0,.3.9c.1.1.1.2.2.2,0,.2.1.3.1.4a10,10,0,0,0,1.3,2.5c.9,1.2,1.5,1.9,1.8,2.3a15.69,15.69,0,0,0,3.2,2.9,3.08,3.08,0,0,0,2.8.1c1.9-1.3,3.2-2.7,3.6-4.4a2.39,2.39,0,0,1,.2-.9c0-.1.1-.2.1-.4s.1-.3.2-.8C470.1,536.94,470.1,536.64,469.9,536.34Z" transform="translate(-150.4 -133.44)"/><path class="cls-1" d="M227.1,561.54a1,1,0,0,0-.9-.7h-2.1c-.5.7-.7,1-.8,1,.1.2.2.6.4,1.2a6.83,6.83,0,0,0,.4,1.3,14,14,0,0,0,3.8,5.6,7.81,7.81,0,0,0,.7-1.7,4.51,4.51,0,0,1,.3-1.3,2.49,2.49,0,0,0-.1-.8A18.56,18.56,0,0,0,227.1,561.54Z" transform="translate(-150.4 -133.44)"/><path class="cls-1" d="M492.2,608.44l-.3-.9A.61.61,0,0,0,492.2,608.44Z" transform="translate(-150.4 -133.44)"/><path class="cls-1" d="M512.4,603.24c-.1-.5-.2-.7-.2-.8a4.84,4.84,0,0,1-.9-2.7c0-.2,0-.3-.1-.3-.2-.7-.7-1.7-1-2.9-.5-1.3-.7-2.1-.9-2.5a19,19,0,0,1-1-2.9,30,30,0,0,1-2.3-3.5,6.7,6.7,0,0,1-.6-1.1c-.2-.3-1-1.2-2.2-2.5a2.85,2.85,0,0,0-1.9-.9c-1.1-.1-2.1-.2-2.8-.3a3.08,3.08,0,0,0-2.1.4,4,4,0,0,0-1.3,1.9l.3,1.7a25,25,0,0,0,.8,4,12.27,12.27,0,0,1,.6,3.2,9.63,9.63,0,0,0,.3,2,7.14,7.14,0,0,0,.7,1.8,8.8,8.8,0,0,1,.6,1.7,34.66,34.66,0,0,0,2.5,5.1,2.5,2.5,0,0,1,.4.8,8.42,8.42,0,0,0,1.6,2.8,20.47,20.47,0,0,0,3.4,3.7,8.34,8.34,0,0,0,3.4,1.5,2,2,0,0,0,2.3-1.1,6.47,6.47,0,0,1,.3-1c0-.2.4-1.5.7-3.8a4.39,4.39,0,0,0-.2-2.8A5.62,5.62,0,0,1,512.4,603.24Z" transform="translate(-150.4 -133.44)"/></svg>