<svg id="Layer_2" data-name="Layer 2" xmlns="http://www.w3.org/2000/svg" viewBox="0 0 433.02 240"><defs><style>.cls-1{fill:#76f2e1;}</style></defs><title>logo_outline</title><path class="cls-1" d="M640.62,195,505.53,429l-49.66-86,85.44-148h99.31m3.47-2H540.16l-86.6,150,52,90L644.09,193Z" transform="translate(-453.56 -193)"/><path class="cls-1" d="M625.61,345l49.65,86H509.33l59.2-86h57.08m1.16-2H567.48l-62,90h173.2l-52-90Z" transform="translate(-453.56 -193)"/><path class="cls-1" d="M744.2,195,685,281H605.26l40.1-86H744.2m3.81-2H644.09l-42,90h83.93l62-90Z" transform="translate(-453.56 -193)"/><path class="cls-1" d="M748,197l49.65,86L713.37,429l-49.65-86L748,197m0-4-86.6,150,52,90L800,283l-52-90Z" transform="translate(-453.56 -193)"/><path class="cls-1" d="M833.46,345l49.65,86H717.17l59.21-86h57.08m1.16-2H775.33l-62,90H886.58l-52-90Z" transform="translate(-453.56 -193)"/></svg>