<svg id="Layer_1" data-name="Layer 1" xmlns="http://www.w3.org/2000/svg" viewBox="0 0 448.08 342.2"><defs><style>.cls-1{fill:#79f2dc;}.cls-2{opacity:0.09;}.cls-3{font-size:41px;fill:#f2f2f2;font-family:Avenir-Light, Avenir;letter-spacing:0.37em;}</style></defs><title>logo</title><g id="colour1"><g id="logo"><g id="logo-2" data-name="logo"><polygon class="cls-1" points="190.53 0 51.97 240 51.96 240 0 150 86.6 0 190.53 0 190.53 0"/><polygon class="cls-1" points="294.45 0 242.49 90 138.56 90 190.53 0 294.45 0"/><polygon class="cls-1" points="346.41 90 259.81 240 207.85 150 294.45 0 346.41 90"/><polygon class="cls-1" points="433.02 240 259.81 240 311.77 150 381.06 150 433.02 240"/><polygon class="cls-1" points="225.17 240 51.97 240 103.92 150 173.21 150 225.17 240"/></g><g id="shadow"><polygon class="cls-2" points="190.53 0 148.57 90 138.56 90 190.53 0"/><polygon class="cls-2" points="51.97 240 113.93 150 103.92 150 51.97 240"/><polygon class="cls-2" points="232.49 90 242.49 90 294.45 0 232.49 90"/><polygon class="cls-2" points="311.77 150 321.77 150 259.81 240 311.77 150"/></g><text class="cls-3" transform="translate(1.55 331)">ADRIAN ZHAO</text></g></g></svg>