<svg xmlns="http://www.w3.org/2000/svg" xmlns:xlink="http://www.w3.org/1999/xlink" viewBox="0 0 1155.62 149.16"><defs><style>.cls-1{fill:url(#linear-gradient);}.cls-2{fill:url(#linear-gradient-2);}.cls-3{fill:url(#linear-gradient-3);}.cls-4{fill:url(#linear-gradient-4);}.cls-5{fill:url(#linear-gradient-5);}.cls-6{fill:url(#linear-gradient-6);}.cls-7{fill:url(#linear-gradient-7);}.cls-8{fill:url(#linear-gradient-8);}.cls-9{fill:url(#linear-gradient-9);}.cls-10{fill:url(#linear-gradient-10);}.cls-11{fill:url(#linear-gradient-11);}.cls-12{fill:url(#linear-gradient-12);}.cls-13{fill:url(#linear-gradient-13);}.cls-14{fill:url(#linear-gradient-14);}.cls-15{fill:url(#linear-gradient-15);}.cls-16{fill:url(#linear-gradient-16);}.cls-17{fill:url(#linear-gradient-17);}.cls-18{fill:url(#linear-gradient-18);}.cls-19{fill:url(#linear-gradient-19);}.cls-20{fill:url(#linear-gradient-20);}.cls-21{fill:url(#linear-gradient-21);}.cls-22{fill:url(#linear-gradient-22);}.cls-23{fill:url(#linear-gradient-23);}.cls-24{fill:url(#linear-gradient-24);}.cls-25{fill:url(#linear-gradient-25);}.cls-26{fill:url(#linear-gradient-26);}.cls-27{fill:url(#linear-gradient-27);}.cls-28{fill:url(#linear-gradient-28);}.cls-29{fill:url(#linear-gradient-29);}.cls-30{fill:url(#linear-gradient-30);}.cls-31{fill:url(#linear-gradient-31);}.cls-32{fill:url(#linear-gradient-32);}.cls-33{fill:url(#linear-gradient-33);}.cls-34{fill:url(#linear-gradient-34);}.cls-35{fill:url(#linear-gradient-35);}.cls-36{fill:url(#linear-gradient-36);}.cls-37{fill:url(#linear-gradient-37);}.cls-38{fill:url(#linear-gradient-38);}.cls-39{fill:url(#linear-gradient-39);}</style><linearGradient id="linear-gradient" x1="107.43" y1="413.83" x2="107.43" y2="290.4" gradientUnits="userSpaceOnUse"><stop offset="0" stop-color="#7c5734"/><stop offset="0.03" stop-color="#89643d"/><stop offset="0.1" stop-color="#a37f4f"/><stop offset="0.17" stop-color="#b8945d"/><stop offset="0.25" stop-color="#c7a367"/><stop offset="0.35" stop-color="#cfac6d"/><stop offset="0.49" stop-color="#d2af6f"/><stop offset="0.61" stop-color="#cfab6d"/><stop offset="0.72" stop-color="#c4a165"/><stop offset="0.82" stop-color="#b28e59"/><stop offset="0.91" stop-color="#997548"/><stop offset="1" stop-color="#7c5734"/></linearGradient><linearGradient id="linear-gradient-2" x1="150.73" y1="385.2" x2="150.73" y2="312.35" xlink:href="#linear-gradient"/><linearGradient id="linear-gradient-3" x1="203.77" y1="385.65" x2="203.77" y2="312.48" xlink:href="#linear-gradient"/><linearGradient id="linear-gradient-4" x1="265.91" y1="414.53" x2="265.91" y2="312.35" xlink:href="#linear-gradient"/><linearGradient id="linear-gradient-5" x1="309.1" y1="385.65" x2="309.1" y2="312.48" xlink:href="#linear-gradient"/><linearGradient id="linear-gradient-6" x1="353.54" y1="385.77" x2="353.54" y2="313.44" xlink:href="#linear-gradient"/><linearGradient id="linear-gradient-7" x1="401.39" y1="385.77" x2="401.39" y2="313.44" xlink:href="#linear-gradient"/><linearGradient id="linear-gradient-8" x1="457.31" y1="385.42" x2="457.31" y2="311.21" xlink:href="#linear-gradient"/><linearGradient id="linear-gradient-9" x1="521.33" y1="385.59" x2="521.33" y2="312.47" xlink:href="#linear-gradient"/><linearGradient id="linear-gradient-10" x1="564.57" y1="385.82" x2="564.57" y2="311.73" xlink:href="#linear-gradient"/><linearGradient id="linear-gradient-11" x1="615.33" y1="385.2" x2="615.33" y2="312.35" xlink:href="#linear-gradient"/><linearGradient id="linear-gradient-12" x1="660.73" y1="385.2" x2="660.73" y2="319.03" xlink:href="#linear-gradient"/><linearGradient id="linear-gradient-13" x1="694.07" y1="384.91" x2="694.07" y2="311.9" xlink:href="#linear-gradient"/><linearGradient id="linear-gradient-14" x1="771.06" y1="385.42" x2="771.06" y2="311.21" xlink:href="#linear-gradient"/><linearGradient id="linear-gradient-15" x1="819.78" y1="385.71" x2="819.78" y2="312.75" xlink:href="#linear-gradient"/><linearGradient id="linear-gradient-16" x1="887.36" y1="384.97" x2="887.36" y2="312.73" xlink:href="#linear-gradient"/><linearGradient id="linear-gradient-17" x1="936.23" y1="385.2" x2="936.23" y2="312.35" xlink:href="#linear-gradient"/><linearGradient id="linear-gradient-18" x1="989.27" y1="385.65" x2="989.27" y2="312.48" xlink:href="#linear-gradient"/><linearGradient id="linear-gradient-19" x1="1065.84" y1="403.32" x2="1065.84" y2="299.46" xlink:href="#linear-gradient"/><linearGradient id="linear-gradient-20" x1="1102.06" y1="385.2" x2="1102.06" y2="319.03" xlink:href="#linear-gradient"/><linearGradient id="linear-gradient-21" x1="1144.81" y1="385.25" x2="1144.81" y2="312.58" xlink:href="#linear-gradient"/><linearGradient id="linear-gradient-22" x1="1197.68" y1="385.42" x2="1197.68" y2="312.35" xlink:href="#linear-gradient"/><linearGradient id="linear-gradient-23" x1="171.36" y1="301.36" x2="171.36" y2="265.37" xlink:href="#linear-gradient"/><linearGradient id="linear-gradient-24" x1="190.7" y1="293.01" x2="190.7" y2="271.77" xlink:href="#linear-gradient"/><linearGradient id="linear-gradient-25" x1="211.52" y1="293.15" x2="211.52" y2="271.81" xlink:href="#linear-gradient"/><linearGradient id="linear-gradient-26" x1="237.16" y1="301.32" x2="237.16" y2="265.57" xlink:href="#linear-gradient"/><linearGradient id="linear-gradient-27" x1="248.28" y1="293.08" x2="248.28" y2="271.44" xlink:href="#linear-gradient"/><linearGradient id="linear-gradient-28" x1="269.63" y1="293.23" x2="269.63" y2="271.61" xlink:href="#linear-gradient"/><linearGradient id="linear-gradient-29" x1="288.53" y1="292.85" x2="288.53" y2="271.62" xlink:href="#linear-gradient"/><linearGradient id="linear-gradient-30" x1="321.92" y1="293.08" x2="321.92" y2="271.44" xlink:href="#linear-gradient"/><linearGradient id="linear-gradient-31" x1="340.63" y1="293.16" x2="340.63" y2="271.89" xlink:href="#linear-gradient"/><linearGradient id="linear-gradient-32" x1="365.06" y1="292.95" x2="365.06" y2="271.88" xlink:href="#linear-gradient"/><linearGradient id="linear-gradient-33" x1="385.47" y1="293.01" x2="385.47" y2="271.77" xlink:href="#linear-gradient"/><linearGradient id="linear-gradient-34" x1="406.29" y1="293.15" x2="406.29" y2="271.81" xlink:href="#linear-gradient"/><linearGradient id="linear-gradient-35" x1="438.22" y1="298.3" x2="438.22" y2="268.01" xlink:href="#linear-gradient"/><linearGradient id="linear-gradient-36" x1="449.39" y1="293.01" x2="449.39" y2="273.72" xlink:href="#linear-gradient"/><linearGradient id="linear-gradient-37" x1="465.27" y1="293.03" x2="465.27" y2="271.84" xlink:href="#linear-gradient"/><linearGradient id="linear-gradient-38" x1="485.04" y1="293.08" x2="485.04" y2="271.77" xlink:href="#linear-gradient"/><linearGradient id="linear-gradient-39" x1="501.93" y1="293.2" x2="501.93" y2="271.59" xlink:href="#linear-gradient"/></defs><title>logo</title><g id="Layer_1" data-name="Layer 1"><path class="cls-1" d="M142.66,311.5l-.37.68a3,3,0,0,1-2.22.34l-.34-.57a5.16,5.16,0,0,0,.86-1.83,26.72,26.72,0,0,0-1.63-7.07,6.38,6.38,0,0,0-4.89-4.28,11.12,11.12,0,0,0-1.17-.8,5.64,5.64,0,0,0-2.65.06,6.61,6.61,0,0,1-2.75.17,2.58,2.58,0,0,0-1.18.34,4.82,4.82,0,0,1-1.42.46,35.88,35.88,0,0,1-3.71.74q-1.34,0-4,.12c-.35,0-.85.41-1.48,1.11a5.66,5.66,0,0,0-1.2,1.8q-.13,1.31-.52,3.77-.85,2.05-2.12,5.93a26.71,26.71,0,0,0-.73,7.25q-.24,2.28-.68,6.9l-2.1,12a14.43,14.43,0,0,1,.07,2.79,6.08,6.08,0,0,1-.92,2.22,15.58,15.58,0,0,0-1,1.6q.13.51,1,.91a2.08,2.08,0,0,1,0,1.25,9.28,9.28,0,0,1-1.47,1.88,16.05,16.05,0,0,1,.36,2.85,13.17,13.17,0,0,1-1.12,4.51,14.31,14.31,0,0,0-1.29,4,23,23,0,0,0-.2,3.51,22.86,22.86,0,0,1-.19,3.45,11.62,11.62,0,0,1-1,3.25,3.32,3.32,0,0,0-.35,1.08,1.6,1.6,0,0,0,.83.74,1.84,1.84,0,0,1,0,1.43q-.81,2.34-2.18,7.07,0,.12-1.31,11.35-.37,2-.95,5.88a20.12,20.12,0,0,0,.59,6.33,8.45,8.45,0,0,1,.94,1.14,26.3,26.3,0,0,0,1.53,4.22,3.54,3.54,0,0,0,1.91,1.37q1.4.17,4.15.63a1.6,1.6,0,0,1-.16,1.54h-12q-.22,0-2-.34t-2-.34H83.83q-.09,0-1.87.46a11.93,11.93,0,0,1-2.6.46,54.61,54.61,0,0,1-7-.23,1.29,1.29,0,0,1,0-.57q.24-1.48,3-1.94a12.9,12.9,0,0,0,3.76-1.31,20.68,20.68,0,0,0,5.32-7,22,22,0,0,0,1.49-5l.85-4.45q.43-1.08,1.27-3.08a12.84,12.84,0,0,1,.21-2.4,18.24,18.24,0,0,0,1.63-5.3,14.31,14.31,0,0,0,.12-4.74A10.16,10.16,0,0,1,90.3,375q.71-3.59,2.48-11.35,0-.23.55-1.83a12.07,12.07,0,0,0,.55-2.34c-.08-.23-.17-.55-.28-1a2.06,2.06,0,0,1,.33-.83,3.26,3.26,0,0,0,.37-.83q1.44-9,1.26-8.33.75-2.79.75-3a3.69,3.69,0,0,1-.28-1.2q.34-1.54.81-4.73a31.4,31.4,0,0,1,1.09-5.42,4.57,4.57,0,0,1,1.09-2.2,2.14,2.14,0,0,1,1.38-.49,5,5,0,0,1,1.74.51,5,5,0,0,0,1.83.51,2.86,2.86,0,0,0,2-1q-.1-1-1.5-1.43-1.12-.28-2.23-.63a3.55,3.55,0,0,0-.74-1A4.49,4.49,0,0,1,99,327.13q.26-1.08,1.13-6.45.05-.34.14-1.8t.2-2.2q.13-.8.69-3.19.36-2,.52-3.19.1-.63-.3-.8a2.94,2.94,0,0,1-.73-.57.77.77,0,0,1,0-.29,2.25,2.25,0,0,1,.66-1,3,3,0,0,0,.69-.91,28.7,28.7,0,0,0,1.15-5.82,1.75,1.75,0,0,0-1.55-.86h-1.51q-1.43,0-2-1.83a18.37,18.37,0,0,1-3.57,2.56,4.29,4.29,0,0,1-1,.12,9,9,0,0,1-2.47-.48,8.84,8.84,0,0,0-2.34-.49,4.21,4.21,0,0,0-2.37.74,30.63,30.63,0,0,1-3.59,1.08,7.85,7.85,0,0,0-1.92,1.71l-7.26,9.07a28.17,28.17,0,0,0-1.37,3.14q-.93,2.28-1.84,2.28a1.48,1.48,0,0,1-1-.51,9.67,9.67,0,0,1,.77-2.34q.87-1.94,1-2.22,1-3.42,3.1-10.38.06-.11,1.21-5.65a12,12,0,0,1,2.09-5.19,17.47,17.47,0,0,1,5-.57,10.07,10.07,0,0,0,1.63.91,1.89,1.89,0,0,0,1-.26,7.58,7.58,0,0,1,.93-.37h2a16.08,16.08,0,0,1,2.06-.68,5.73,5.73,0,0,1,2.53.14,11.55,11.55,0,0,0,2.59.55,3.9,3.9,0,0,0,1-.34,3.75,3.75,0,0,1,1.07-.34H104a6.93,6.93,0,0,0,.87-.17,1.79,1.79,0,0,1,1-.06q.64.34,1.64.8,8,.57,10.36.11-.18.06,1.76.34a30.49,30.49,0,0,0,3.6-.34h1.6a3.29,3.29,0,0,0,.69-.38,1.68,1.68,0,0,1,.72-.33q3.63,0,7.73-.2a29.64,29.64,0,0,1,3.73.23,2.25,2.25,0,0,1,.93.43,2.18,2.18,0,0,0,1.06.43q.74-.06,5.24-1.08a3.46,3.46,0,0,1,.43,3l-.81,3.42q-.15.91-.44,3-.28,2.28-.3,2.39l-.81,5s0,.55-.08,1.54A23.46,23.46,0,0,1,142.66,311.5Z" transform="translate(-69.38 -265.37)"/><path class="cls-2" d="M185.53,313.67a1.9,1.9,0,0,1-.7,1.14,11.93,11.93,0,0,0-3.39,1.71,11.5,11.5,0,0,0-2.17,2.62,8.91,8.91,0,0,0-1.5,3q-.83,5.13-.57,4-.57,1.37-1.42,4-.11.68-.38,5.88-.11,1.77-.57,4.62-.54,3.37-1.6,8.19t-1,4.48l-1.36,8.44q-2.08,12.89-.59,17.85a4.23,4.23,0,0,0,1.58,2,4.84,4.84,0,0,0,2.32,1.14q-.35.57-1.23,1.71h-20.2a6.5,6.5,0,0,0,0-1.06,6.33,6.33,0,0,1,0-1q1-.57,3-1.71,1.48-.86,3.36-5.25a28.35,28.35,0,0,0,2-6l1.34-8.33q.14-.86.45-4.68a25.89,25.89,0,0,1,.75-4.68,12.27,12.27,0,0,0,0-4.45,16.37,16.37,0,0,1-6.9,3.08,9,9,0,0,1-3.93.23q-2.17-.51-2.3-.51h-10.9a19.49,19.49,0,0,0-3,2.74,8.45,8.45,0,0,0-1.06,3.88,25.67,25.67,0,0,1,.33,2.79q0-.8-.81,3.14-.09.29-1.14,9-1.16,9.35,3.2,10.5.16.06,1.71.91a5,5,0,0,1-3.67,2.11A5.27,5.27,0,0,1,134,385a7.63,7.63,0,0,0-1.05-.17l-17-.34q.21-1,2.32-2.05a10.48,10.48,0,0,0,4.1-3.71,24,24,0,0,0,2.35-7.07,75,75,0,0,0,1.58-9.24q-.1-.46-.32-1.26.66-4.39,2.49-13.06.09-.28.77-1.83a7.52,7.52,0,0,0,.7-2.17,22.55,22.55,0,0,1-.67-3.37q0,.69.91-3.76a18.9,18.9,0,0,0,.28-2.68q.09-1.77.13-2l1.48-9.18a6.77,6.77,0,0,0-1.24-4.39,8,8,0,0,0-3.31-3.37q.06-.11,1.26-1.94,1.57-.06,4.91-.4l3.3-.34h8.22a4.63,4.63,0,0,0,1.2-.17,4.1,4.1,0,0,1,.85-.17q.86,0,2.67,2.22-1.67,1-3.35,2a11,11,0,0,0-3.19,2.91q-1.79,2.51-2.9,9.41l-2,12.21a2.31,2.31,0,0,0,0,.74,2.06,2.06,0,0,1,0,.63,6.21,6.21,0,0,0,3.27,1.2H159a21.45,21.45,0,0,1,2.56.74s.38.23,1.06.68a2.54,2.54,0,0,0,1.26.51,1.21,1.21,0,0,0,.54-.11,11,11,0,0,0,2.23-5.25,29.6,29.6,0,0,0,.24-4.45,23.72,23.72,0,0,1,.22-4.05q.15-.91.32-3.59.2-3.14.37-4.45.67-5.53-4.81-9.87,1-1.14,1.44-1.14h6.45q-.56,0,3.61-.11,3.66-.17,5.59-.06Z" transform="translate(-69.38 -265.37)"/><path class="cls-3" d="M223.86,366q-.61,3-1.91,8.38-.76,1.48-2,4.16-.36,1.14-1.16,3.19a11.74,11.74,0,0,1-1.47,2.11q-1.42,1.83-2.11,1.83h-11l-3.87-.17-3.86-.17h-6.66q-.26,0-2.61-.31t-2.65-.31H178l-.43-.8a27.39,27.39,0,0,1,4.34-3.42,7,7,0,0,0,3-4.56l2.91-18a100.92,100.92,0,0,1,2.9-11.81,17.33,17.33,0,0,1,.7-5.7A3.08,3.08,0,0,1,191,338q0-.11,1.62-4.68a4.06,4.06,0,0,0-.18-1.6q-.38-1.42-.41-1.48a15.74,15.74,0,0,1,.35-3.76l.63-3.88a10,10,0,0,0-.1-3.14,4.38,4.38,0,0,0-1.7-2.62q-1.18-.74-2.35-1.54.91-1.88,1.62-2a31.26,31.26,0,0,0,3.85,0q2.89-.74,2.8-.74h7.66q.17,0,2.56.35t3.64.39q.52,0,8.77-.74a89.45,89.45,0,0,1,9.68.34,1.75,1.75,0,0,1,.44,1.55,6.6,6.6,0,0,1-.52,1.49,6.59,6.59,0,0,0-.51,1.43q-.35,1.9-2.93,12.51a4.59,4.59,0,0,1-1.43,1.09q-.17-.57-.62-6.1-.29-3.59-2.57-3.94l-1.86-.57a3.29,3.29,0,0,0-2.06-.11q-2,.63-8.28.06a15.37,15.37,0,0,0-5.31.17q-.55.17-.91,1.32a24.34,24.34,0,0,1-1.76,11.86q.16-.34-.36,2.87-.13.8-.72,3.32a18.13,18.13,0,0,0-.61,3.32,2.5,2.5,0,0,0,.58,1.49h16.28l1.62-.68a4,4,0,0,0,2-1.77,42.4,42.4,0,0,1,2.26-4.11,1.38,1.38,0,0,1,1.57,1.25q-.7,3.25-1.69,8.33-.59,3.37-2.19,9.87-.33,1-1.83.63a20.17,20.17,0,0,0-1.41-3.59q-2.21-2.62-4.37-2.62h-6a15.07,15.07,0,0,1-2.16-.29,15.06,15.06,0,0,0-2.42-.29,3.24,3.24,0,0,0-3.18,1.77,11.69,11.69,0,0,0-1.19,3.08q-.17,1-.32,3.88a35.8,35.8,0,0,1-.45,4.39q-.17.8-.89,3a24.21,24.21,0,0,0-.92,3.45,8.33,8.33,0,0,0-.11,1.77,6,6,0,0,0,1.82,3.31,6.38,6.38,0,0,0,3.16,2.22l.39.23a2,2,0,0,0,.75.17H208a8.41,8.41,0,0,0,4.23-1,18.9,18.9,0,0,0,5.18-4.56,16.14,16.14,0,0,0,3.63-6.73A2.77,2.77,0,0,1,223.86,366Z" transform="translate(-69.38 -265.37)"/><path class="cls-4" d="M293.89,313.15q-.21,3.71-3.67,21.16a7.86,7.86,0,0,1-1.63,3.14,9,9,0,0,1-1.44.06,74.66,74.66,0,0,0,.63-7.93q-.06-4.73-1.9-5.79t-8.59-1.06h-7.53q-2.12,0-3.33,7.53.15-.91-.92,8.38a62.89,62.89,0,0,1-1.37,6.62q-1.24,5-1.62,7.36a21.92,21.92,0,0,0-.27,6H268a7.9,7.9,0,0,1,1.34.43,6.23,6.23,0,0,0,1.47.43h5.54q3.12,0,6.38-6,.36-1.14,1.14-3.31a2.19,2.19,0,0,1,2-.63q-.18,2.45-.76,7.13-1.07,5.82-4.72,22.81-.49,2.23-2.51,1.88.13-3.25.28-6.56,0-4-1.69-5.08-.95-.57-5.27-.57h-6.4q-.46.46-2.13.34a2.23,2.23,0,0,0-2.24,1.25q-.26,1.88-1,5.65-.16.74-1.42,4.79a26.75,26.75,0,0,0-1.16,4.79,25.87,25.87,0,0,1,.11,3.08q-.22,1.37-.85,4.33t-.87,4.45q-1,6.28.76,9.75s1.91,1.58,5.66,4.62a3.31,3.31,0,0,1-2.73,1.94,5.42,5.42,0,0,1-1.16-.17l-1-.23q-4-.17-9.79-.74a12.13,12.13,0,0,0-4.12.06,13.66,13.66,0,0,1-1.8,1.48,2.3,2.3,0,0,1-1.49-.4l-1.54-.91a12.08,12.08,0,0,1,2.64-3.74,15.62,15.62,0,0,0,2.69-3.51,41.82,41.82,0,0,0,3.28-10.44l3.09-19.17s.25-1.81.78-5.53.95-6.56,1.26-8.5q-.07.4.53-2.74a34.55,34.55,0,0,0,.58-3.88,14.31,14.31,0,0,0,0-3.88,30.13,30.13,0,0,0,3-9.47,57.15,57.15,0,0,0,.47-12.32q.23-1.42.54-3.88a10.54,10.54,0,0,0,.1-2.22,23.29,23.29,0,0,0-1.52-6.39q-.35-.8-2-1.08a9.82,9.82,0,0,1,.27-3.31l6-.23q9.61-.28,29.25-.57A21.39,21.39,0,0,1,293.89,313.15Z" transform="translate(-69.38 -265.37)"/><path class="cls-5" d="M329.2,366q-.61,3-1.91,8.38-.76,1.48-2,4.16-.36,1.14-1.16,3.19a11.74,11.74,0,0,1-1.47,2.11q-1.42,1.83-2.11,1.83h-11l-3.87-.17-3.86-.17h-6.66q-.26,0-2.61-.31t-2.65-.31h-6.53l-.43-.8a27.39,27.39,0,0,1,4.34-3.42,7,7,0,0,0,3-4.56l2.91-18a100.92,100.92,0,0,1,2.9-11.81,17.33,17.33,0,0,1,.7-5.7,3.08,3.08,0,0,1-.39-2.4q0-.11,1.62-4.68a4.06,4.06,0,0,0-.18-1.6q-.38-1.42-.41-1.48a15.74,15.74,0,0,1,.35-3.76l.63-3.88a10,10,0,0,0-.1-3.14,4.38,4.38,0,0,0-1.7-2.62q-1.18-.74-2.35-1.54.91-1.88,1.62-2a31.26,31.26,0,0,0,3.85,0q2.89-.74,2.8-.74h7.66q.17,0,2.56.35t3.64.39q.52,0,8.77-.74a89.45,89.45,0,0,1,9.68.34,1.75,1.75,0,0,1,.44,1.55,6.6,6.6,0,0,1-.52,1.49,6.59,6.59,0,0,0-.51,1.43q-.35,1.9-2.93,12.51a4.59,4.59,0,0,1-1.43,1.09q-.17-.57-.62-6.1-.29-3.59-2.57-3.94l-1.86-.57a3.29,3.29,0,0,0-2.06-.11q-2,.63-8.28.06a15.37,15.37,0,0,0-5.31.17q-.55.17-.91,1.32a24.34,24.34,0,0,1-1.76,11.86q.16-.34-.36,2.87-.13.8-.72,3.32a18.13,18.13,0,0,0-.61,3.32,2.5,2.5,0,0,0,.58,1.49h16.28l1.62-.68a4,4,0,0,0,2-1.77,42.4,42.4,0,0,1,2.26-4.11,1.38,1.38,0,0,1,1.57,1.25q-.7,3.25-1.69,8.33-.59,3.37-2.19,9.87-.33,1-1.83.63a20.17,20.17,0,0,0-1.41-3.59q-2.21-2.62-4.37-2.62h-6a15.07,15.07,0,0,1-2.16-.29,15.06,15.06,0,0,0-2.42-.29,3.24,3.24,0,0,0-3.18,1.77,11.69,11.69,0,0,0-1.19,3.08q-.17,1-.32,3.88a35.8,35.8,0,0,1-.45,4.39q-.17.8-.89,3a24.21,24.21,0,0,0-.92,3.45,8.33,8.33,0,0,0-.11,1.77,6,6,0,0,0,1.82,3.31,6.38,6.38,0,0,0,3.16,2.22l.39.23a2,2,0,0,0,.75.17h7.17a8.41,8.41,0,0,0,4.23-1A18.9,18.9,0,0,0,322.7,373a16.14,16.14,0,0,0,3.63-6.73A2.77,2.77,0,0,1,329.2,366Z" transform="translate(-69.38 -265.37)"/><path class="cls-6" d="M378.54,368q-1.59,4.22-3.17,8.39a55.16,55.16,0,0,1-4.72,9.41l-38.34-.46a12.38,12.38,0,0,0-1.9-.54,10.76,10.76,0,0,1-1.86-.54,3.32,3.32,0,0,1,1.21-2.22,7,7,0,0,0,3.72-1.08,7.91,7.91,0,0,0,3.62-4.39,19.15,19.15,0,0,0,.77-4.22q.47-3.48.76-4.73.15-.68,1.23-4.68.8-3.08,1.08-4.85,3.31-20.53,3.92-27.55l.67-1a64.13,64.13,0,0,0,.39-9.41,4.58,4.58,0,0,0-2.1-3.22q-2-1.51-3.09-1.11a2.46,2.46,0,0,1,2.67-2.34,10.27,10.27,0,0,1,1.74.2,10.66,10.66,0,0,0,1.4.2h21.67q-.13,1.37-2.5,2.11l-3.32,1q-2.14,1.2-2.29,1.31a5.33,5.33,0,0,0-1.93,2.34,71.45,71.45,0,0,0-3,10.61L352.87,342a22.4,22.4,0,0,1-.08,5.88,30.7,30.7,0,0,1-.88,3.56A30.59,30.59,0,0,0,351,355l-2.5,15.52q.25,2.74.71,7.93.1,1,1.44,1.25,1.68.29,4.78,1a1.75,1.75,0,0,0,1.08,0q3.21-.57,6.42-1.2a14.94,14.94,0,0,0,6.28-2.74,15.14,15.14,0,0,0,2.46-4,23.13,23.13,0,0,1,2.7-4.68,2.42,2.42,0,0,1,1.88-.91A7.09,7.09,0,0,1,378.54,368Z" transform="translate(-69.38 -265.37)"/><path class="cls-7" d="M426.38,368q-1.59,4.22-3.17,8.39a55.16,55.16,0,0,1-4.72,9.41l-38.34-.46a12.38,12.38,0,0,0-1.9-.54,10.76,10.76,0,0,1-1.86-.54,3.32,3.32,0,0,1,1.21-2.22,7,7,0,0,0,3.72-1.08,7.91,7.91,0,0,0,3.62-4.39,19.15,19.15,0,0,0,.77-4.22q.47-3.48.76-4.73.15-.68,1.23-4.68.8-3.08,1.08-4.85,3.31-20.53,3.92-27.55l.67-1a64.13,64.13,0,0,0,.39-9.41,4.58,4.58,0,0,0-2.1-3.22q-2-1.51-3.09-1.11a2.46,2.46,0,0,1,2.67-2.34,10.27,10.27,0,0,1,1.74.2,10.66,10.66,0,0,0,1.4.2h21.67q-.13,1.37-2.5,2.11l-3.32,1q-2.14,1.2-2.29,1.31a5.33,5.33,0,0,0-1.93,2.34,71.45,71.45,0,0,0-3,10.61L400.72,342a22.4,22.4,0,0,1-.08,5.88,30.7,30.7,0,0,1-.88,3.56,30.59,30.59,0,0,0-.88,3.57l-2.5,15.52q.25,2.74.71,7.93.1,1,1.44,1.25,1.68.29,4.78,1a1.75,1.75,0,0,0,1.08,0q3.21-.57,6.42-1.2a14.94,14.94,0,0,0,6.28-2.74,15.14,15.14,0,0,0,2.46-4,23.13,23.13,0,0,1,2.7-4.68,2.42,2.42,0,0,1,1.88-.91A7.09,7.09,0,0,1,426.38,368Z" transform="translate(-69.38 -265.37)"/><path class="cls-8" d="M486.86,348.63q-.52,3.25-.93,5a35.24,35.24,0,0,0-1.56,4,28.79,28.79,0,0,1-1.85,5.82q-.88,1.14-2.63,3.71a27.26,27.26,0,0,1-2.7,4.91q-1.52,1.66-4.63,5.13a8.85,8.85,0,0,0-1.09.57,28.88,28.88,0,0,1-2.31,2q-7.9,5-14.41,5.65H449c.06,0,0-.12-.29-.34q-4.64-.17-6.73-1.71-.58-.17-1.55-.57a50.12,50.12,0,0,1-4.67-3.25,28.76,28.76,0,0,1-6.21-9.81,34.89,34.89,0,0,1-2.12-9.13,38.39,38.39,0,0,1-.24-8.73A77.52,77.52,0,0,1,429.5,340q.38-.74,1-2.11.54-1.71,1.71-5,1.27-2,3.45-5.82a5.06,5.06,0,0,0,.46-1.48q.26-.28.84.17a6.23,6.23,0,0,0,.37-2.28,10.87,10.87,0,0,0,1.76-1,11.89,11.89,0,0,1,2.11-2.91q2.89-1.83,8.69-5.36a16.4,16.4,0,0,1,3.66-1.48,34,34,0,0,1,7.44-1.6h3.37a19.4,19.4,0,0,1,6.59,1q1.42.57,6.15,3.19l3,2.85A22.25,22.25,0,0,1,485,326a25,25,0,0,1,1.88,8.21,17.43,17.43,0,0,1,.56,1.88,43,43,0,0,1-.56,10.15,6.13,6.13,0,0,0,0,1.06A5.9,5.9,0,0,1,486.86,348.63ZM477,350.12A55.85,55.85,0,0,0,477,337a36.73,36.73,0,0,0-3.25-12q-3.25-6.16-8.09-7.24-4.59-1-6.42-.68a19.57,19.57,0,0,0-6.2,2q-.33.17-4.42,3a8.12,8.12,0,0,1-1,1.37,6.36,6.36,0,0,0-.83.34q-1.11,1.48-2.81,4-.28.68-.87,1.94-.87,1.37-1.91,3.25-.73,2.11-2.23,6.33-.21,1.6-.82,4.85a4,4,0,0,1-.29.74,2.18,2.18,0,0,0-.26.8q0,3.71.08,10.27a5.88,5.88,0,0,0-.35,1.08q.17.8.52,2.17a16.26,16.26,0,0,0-.05,1.94q1,4.79,1.11,4.91a19.08,19.08,0,0,0,2.64,5.65s.08.82.19,2.34q.16.06,1.42.34a21.4,21.4,0,0,0,2.68,3.48q2.8,2.51,11.35,1.54l1.94-.74a25.53,25.53,0,0,0,4.41-1.88q.72-.74,1.89-1.77a17.07,17.07,0,0,0,6.55-8.73q.54-.69,1.35-1.94.26-1.08.67-2.57a5.06,5.06,0,0,0,.69-1.08q.3-1.31,1.35-5.7A40.67,40.67,0,0,0,477,350.12Z" transform="translate(-69.38 -265.37)"/><path class="cls-9" d="M555.8,312.75q-.07,1-1.9,1.82l-2.57,1.2a13,13,0,0,0-3.47,5.7,72.28,72.28,0,0,0-3.29,7.53,27.15,27.15,0,0,1-2.15,5,22.46,22.46,0,0,0-1.81,4q-.11.71-.48,2.2-5.09,12.26-15,37.08-1,2.63-1.93,5.25-1.36,3.08-2.79,3.08a1.85,1.85,0,0,1-1.1-.4,8.71,8.71,0,0,1,.41-1.17,5.81,5.81,0,0,0,.42-1.51,4.17,4.17,0,0,1-.79-2.34q.11-.69.23-1.94-.29-1.71-.67-5.53.12-1.31.26-2.68a5.87,5.87,0,0,0-.57-3.19c0-.27,0-.63,0-1.08a6.33,6.33,0,0,0,.53-1.65,5.92,5.92,0,0,0-.37-3.08l-1.12-2.45q.51-.74,1.32-2a11.2,11.2,0,0,1-.84-2.28q.15-.91.35-3-.31-1-.83-3.2a4.52,4.52,0,0,1,.23-1.71q.48-1.65.58-2.22-1.11-1.14-2.1,1-1.08,3-3.33,8.84-2.24,4.51-5.62,13.4-.78,1.6-2.14,5-1.29,4-2.06,6.1a38.3,38.3,0,0,1-2.83,6,2,2,0,0,1-2.25,0,25.73,25.73,0,0,1-.29-5.19q.1-3.82,0-5a8.57,8.57,0,0,0-1-3.65,12.39,12.39,0,0,0,.66-5.19,25,25,0,0,1-1.39-2.62q.08-.74.22-1.88a1,1,0,0,0,0-.46q-.34-1.65-.77-4.91a9,9,0,0,0,.24-2.05l.74-.8a12,12,0,0,0,2.56,2.34,3.77,3.77,0,0,0-.31-2.62,5.54,5.54,0,0,1-.74-2.4q-4.13-3.08-3.55-6.67a5.92,5.92,0,0,1,.53-1.65,30.86,30.86,0,0,1-.9-3.54q0-2.05-.21-5.93a12.85,12.85,0,0,1-.92-2.62q.27-1.14.67-3.65-.31-1-1-3.54-.32-1.54-.59-3a5.87,5.87,0,0,0-1.25-2.68q-.62-.74-3.53-1.43.09,0-.39-.8a6.31,6.31,0,0,1,.73-1,21.53,21.53,0,0,1,6,.4,6.5,6.5,0,0,0,2.1-.17q1.66-.4,1.75-.4H505a1.9,1.9,0,0,0,.87-.46,1.92,1.92,0,0,1,.87-.46,2.2,2.2,0,0,1,0,.8q-.16,1-2.21,2.2a4.56,4.56,0,0,0-2.4,3.05,14.48,14.48,0,0,0,.3,6.16q-.15,1.48-.31,4.62.08,1.94,1.39,10.44-.15,1.2-.36,3.31.13.51.35,1.31a9.5,9.5,0,0,0,.21,3.82,21.81,21.81,0,0,1,.62,3.42,101.93,101.93,0,0,0,.82,10.72q.91,0,1.4-1.2,2.74-6.79,4.7-12.78a9.53,9.53,0,0,0,1.09-1.65q.59-2.05,2.12-5.93a23.34,23.34,0,0,0,2.2-5.59,8,8,0,0,0,.09-1.88q-.56-5.36-1.61-16a8,8,0,0,0-2.14-2q-1.48-1-1.66-1.77,1-.17,3.06-.74c-.11.68-.11,1.1,0,1.25a9,9,0,0,0,4.07,0l4.71-.74a33.32,33.32,0,0,1,3.36.11,6.83,6.83,0,0,0,3.52-.63,4.6,4.6,0,0,1,0,1.08q-.14.86-1.5,1.25a5.78,5.78,0,0,0-2.76,1.54,4.22,4.22,0,0,0-.83,2.17,16.07,16.07,0,0,0-.06,3.08q.13,2.68.09,3.48a27.79,27.79,0,0,0-.72,3.94,18.63,18.63,0,0,1,1.29,3.25q-.1,1.94-.15,5.25.12,2.74.29,5.42a17.49,17.49,0,0,1-.26,5.08,9.26,9.26,0,0,1,1,2q-.08.8-.23,5.48a49.28,49.28,0,0,1-.43,5.65l.46.91a7.79,7.79,0,0,0,1.46-1.25q1.2-2.34,3.72-7.52,1-3.65,3-10.14a15.77,15.77,0,0,1,2-2.62,30.89,30.89,0,0,1,3.16-8.89,28.44,28.44,0,0,1,.87-3,8,8,0,0,0,1.12-1.6q.6-2.11,2.27-6.55,1.31-2.79.28-4.44a3.7,3.7,0,0,0-1.74-1,10.81,10.81,0,0,1-2.14-1q1-1.48,3.81-1.08a2.81,2.81,0,0,1,.44.2,1.61,1.61,0,0,0,.7.2,4,4,0,0,0,1.14-.39,6.87,6.87,0,0,1,1.73-.52,3.68,3.68,0,0,1,1.47.28,5,5,0,0,0,1.46.34A19.75,19.75,0,0,0,555.8,312.75Zm-59.4,37.08-1,.8-.14-.46,1-.8Z" transform="translate(-69.38 -265.37)"/><path class="cls-10" d="M581.13,366.31a26.55,26.55,0,0,1-1.81,4.93,33.38,33.38,0,0,1-2.22,4.54,47.15,47.15,0,0,1-5.25,5.7,12,12,0,0,1-3.64,2.17A28.58,28.58,0,0,1,558,385.82l-1.63-.12a13.31,13.31,0,0,0-2.27-.11q0,.51.45-2a2.9,2.9,0,0,0-2.63-1.37,1.89,1.89,0,0,0-1.33.74,7.36,7.36,0,0,0,1.17.8q-.42,1-1.2,1a15,15,0,0,1-3.53-.91,12.19,12.19,0,0,1-5-2.74q-.33-.34-.13-4.56.2-3.37,1-8.27a64.81,64.81,0,0,1,1.51-7.24,5.1,5.1,0,0,0,1.42-.23,4.23,4.23,0,0,1,0,2.17l-.36,2q0,1.37,0,4a10.93,10.93,0,0,0,.76,2.51,23,23,0,0,0,1.73,3.76,7.46,7.46,0,0,0,3.48,2.28q1.22.51,2.42,1.08a7.2,7.2,0,0,0,2.62.63,1.06,1.06,0,0,0,.59.34,2,2,0,0,0,.54-.11,2,2,0,0,1,.54-.12,10.14,10.14,0,0,1,1.58.43,11.34,11.34,0,0,0,1.53.43,3,3,0,0,0,.95-.66,4.13,4.13,0,0,1,1.14-.77l3.7-1q1.26-.34,2.44-3.08l1.21-2.17q.06-.4.29-1.26a11.77,11.77,0,0,1,.75-1.43,5.73,5.73,0,0,0,.64-1.31,14.18,14.18,0,0,0,.19-3.59,23.25,23.25,0,0,0-1.12-4l-1.17-1.31a18.46,18.46,0,0,0-6.38-5.53q-.83-.74-2.45-2a44.16,44.16,0,0,1-6.14-5.13,10.61,10.61,0,0,1-.9-.57,19.42,19.42,0,0,1-2.08-3.71q-1.46-3.31-1.59-3.54.13-.8.3-2.4-.17-.57-.43-1.88.19-1.2.4-3.31a2,2,0,0,0,.39-.8q-.24-1.48-.25-1.43t1.34-2.68q.33-1.25,1.16-3.42a28.06,28.06,0,0,1,2.82-3.25q.89.63.81.63a15.24,15.24,0,0,1,.82-1.88q4.79-5,8.3-6.16a25.23,25.23,0,0,1,7.46-.91q.22,0,4.27.63t4.27.63q.17,0,2-.31t2-.31q1.21,0,1,1.37l-2.17,9.41-.8,5q0,.11-.41,2t-.53,2.74a1.28,1.28,0,0,0-.32.23.81.81,0,0,1-.49.23h-1q.16-1.83.27-5.19-.26-6.73-4.17-8.73-2-1-7.58-1a11.86,11.86,0,0,0-3.73,1.14q-2.32,1-4.91,5a7.94,7.94,0,0,0-1.19,3.08,18.67,18.67,0,0,0,.3,6.45l1.25,1.88a21.49,21.49,0,0,0,7.72,7.13q8.49,5,11.15,11.07a12.74,12.74,0,0,1,1,5.19A44.27,44.27,0,0,1,581.13,366.31Z" transform="translate(-69.38 -265.37)"/><path class="cls-11" d="M650.13,313.67a1.9,1.9,0,0,1-.7,1.14,11.93,11.93,0,0,0-3.39,1.71,11.49,11.49,0,0,0-2.17,2.62,8.91,8.91,0,0,0-1.5,3q-.83,5.13-.57,4-.57,1.37-1.42,4-.11.68-.38,5.88-.11,1.77-.57,4.62-.54,3.37-1.6,8.19t-1,4.48l-1.36,8.44q-2.08,12.89-.59,17.85a4.23,4.23,0,0,0,1.58,2,4.84,4.84,0,0,0,2.32,1.14q-.35.57-1.23,1.71h-20.2a6.5,6.5,0,0,0,0-1.06,6.33,6.33,0,0,1,0-1q1-.57,3-1.71,1.48-.86,3.36-5.25a28.35,28.35,0,0,0,2-6l1.34-8.33q.14-.86.45-4.68a25.89,25.89,0,0,1,.75-4.68,12.27,12.27,0,0,0,0-4.45,16.37,16.37,0,0,1-6.9,3.08,9,9,0,0,1-3.93.23q-2.17-.51-2.3-.51h-10.9a19.49,19.49,0,0,0-3,2.74,8.45,8.45,0,0,0-1.06,3.88,25.67,25.67,0,0,1,.33,2.79q0-.8-.81,3.14-.09.29-1.14,9-1.16,9.35,3.2,10.5.16.06,1.71.91a5,5,0,0,1-3.67,2.11,5.27,5.27,0,0,1-1.23-.17,7.63,7.63,0,0,0-1.05-.17l-17-.34q.21-1,2.32-2.05a10.48,10.48,0,0,0,4.1-3.71,24,24,0,0,0,2.35-7.07,75,75,0,0,0,1.58-9.24q-.1-.46-.32-1.26.66-4.39,2.49-13.06.09-.28.77-1.83a7.52,7.52,0,0,0,.7-2.17,22.55,22.55,0,0,1-.67-3.37q0,.69.91-3.76a18.9,18.9,0,0,0,.28-2.68q.09-1.77.13-2l1.48-9.18a6.77,6.77,0,0,0-1.24-4.39,8,8,0,0,0-3.31-3.37q.06-.11,1.26-1.94,1.57-.06,4.91-.4l3.3-.34h8.22a4.63,4.63,0,0,0,1.2-.17,4.1,4.1,0,0,1,.85-.17q.86,0,2.67,2.22-1.67,1-3.35,2a11,11,0,0,0-3.19,2.91q-1.79,2.51-2.9,9.41l-2,12.21a2.31,2.31,0,0,0,0,.74,2.06,2.06,0,0,1,0,.63,6.21,6.21,0,0,0,3.27,1.2h17.17a21.45,21.45,0,0,1,2.56.74s.38.23,1.06.68a2.54,2.54,0,0,0,1.26.51,1.21,1.21,0,0,0,.54-.11,11,11,0,0,0,2.23-5.25,29.6,29.6,0,0,0,.24-4.45,23.72,23.72,0,0,1,.22-4.05q.15-.91.32-3.59.2-3.14.37-4.45.67-5.53-4.81-9.87,1-1.14,1.44-1.14h6.45q-.56,0,3.61-.11,3.66-.17,5.59-.06Z" transform="translate(-69.38 -265.37)"/><path class="cls-12" d="M678,319q-.31.85-.95,2.4l-2.71.74a3.6,3.6,0,0,0-2.39,1.94q-.46.69-1.18,1.94-.15.4-2.19,6.62l-4,24c-.36,1-.55,1.52-.56,1.6l.11,1.2-1.43,8.84a21.3,21.3,0,0,0-.81,5,20.86,20.86,0,0,0,.22,6,3.66,3.66,0,0,0,1.21,1.77,6,6,0,0,0,4.18,1.65,11.81,11.81,0,0,1-.83,2.17h-5l-1.47-.11-1.43-.11-1.19.11-1.14.11-.78-.11a8.21,8.21,0,0,0-.83-.11,3.45,3.45,0,0,0-.6.11,3.67,3.67,0,0,1-.6.11l-9.09.29q-1.17,0-1-1.14.21-1.31.85-1.54,1.44-.34,2.87-.63a3.68,3.68,0,0,0,2.32-1.54l.86-2.11a15,15,0,0,1,1.81.34,24.72,24.72,0,0,0,.92-3,4.63,4.63,0,0,0-.16-1.71,3.78,3.78,0,0,0,.44-1.94,14.61,14.61,0,0,0-.51-1.94,6.14,6.14,0,0,1-.34-1.37,25.25,25.25,0,0,0,1.33-3.42,2.26,2.26,0,0,0-.09-1.31,7.9,7.9,0,0,0,1.08-2.17q0-.11.38-3.71a3.6,3.6,0,0,0-.13-1.08,4.05,4.05,0,0,1-.15-1,2.27,2.27,0,0,1,.52-.8c-.11.15-.12-.06,0-.63l1.11-6.9a8.64,8.64,0,0,1,.36-1,8.65,8.65,0,0,0,.36-1,1.29,1.29,0,0,0-.06-.43,1.3,1.3,0,0,1-.05-.49q0,.23.54-2.57.09-.57.39-3.19l.73-4.51a4.1,4.1,0,0,0-.32-1.83,5.42,5.42,0,0,0,.12-2.34,19.5,19.5,0,0,0,0-2.4,14.23,14.23,0,0,1-.63-1.48q-.08-.57-.33-1.71a4.7,4.7,0,0,0-1.29-2.28,30.24,30.24,0,0,1-2.8-1.25q.26-.8.81-2.05h.39a7.26,7.26,0,0,1,.78.11,7.08,7.08,0,0,0,.78.11Z" transform="translate(-69.38 -265.37)"/><path class="cls-13" d="M718.65,327.64q0,2.4-2.19,10.61a22.32,22.32,0,0,1-3.61,6.82,27.48,27.48,0,0,1-5.41,5.9,14.7,14.7,0,0,1-6.13,2.62,21.22,21.22,0,0,1-2.87,1.14,78.66,78.66,0,0,1-8.72.4q-.3,0-.85.68-.18,2.17-1.84,13.8a48.28,48.28,0,0,0-.26,5.93,15.1,15.1,0,0,0-.05,3,4.18,4.18,0,0,0,2.43,2.91l3,1.25a9.56,9.56,0,0,1-.28,1.48,5.92,5.92,0,0,1-2.66.68h-4.46q-.09,0-1.1-.29a6.21,6.21,0,0,0-1.49-.29q-1.3,0-4.13.29l-2.79.29H671a2.65,2.65,0,0,1-1.46-.57,4.71,4.71,0,0,0,0-.63,4,4,0,0,1,0-.74,17.78,17.78,0,0,0,2.91-1.14,8.74,8.74,0,0,0,3.08-3.25,21.47,21.47,0,0,0,1.4-5.19q.15-.68.87-3.54.67-2.57.89-3.94l1.14-7.07q.38-2.62.72-5.25a13.91,13.91,0,0,1,1.86-5.08,4.67,4.67,0,0,1-.54-1.48,57.77,57.77,0,0,1,.68-6.39s.22-.68.66-1.94a5.66,5.66,0,0,0,.44-2.45,15.6,15.6,0,0,1,.82-6.16,39.32,39.32,0,0,0,.53-6.79,20.3,20.3,0,0,0,0-4.79,3.38,3.38,0,0,0-2.11-1.94l-2.4-.68q.52-3.25.09-1.37a1.11,1.11,0,0,1,1-1q1.75-.11,5.62-.51l3.7-.4h5.45a15,15,0,0,0,3.24-.37,13.48,13.48,0,0,1,2.81-.37,23.6,23.6,0,0,1,3.58.34q1.28.4,3.8,1.14a3.21,3.21,0,0,0,.74.51q4,.8,6.4,5.13Q718.68,322.11,718.65,327.64ZM708.45,334a15.06,15.06,0,0,0,.27-2.45q-1-7.47-2.08-9.64a7,7,0,0,0-4-3.65,16,16,0,0,0-5.32-.29,2.76,2.76,0,0,0-1.27.63q-2.25,9.64-3.38,15.63a5.41,5.41,0,0,1,.18,1.31q-.13.8-1.44,6.5a46.75,46.75,0,0,0-1,7.42l.27.46h4.2a3.61,3.61,0,0,0,1.47.28,8.29,8.29,0,0,0,5.14-2.11,14.4,14.4,0,0,0,3.42-3.48A32.64,32.64,0,0,0,708.45,334Z" transform="translate(-69.38 -265.37)"/><path class="cls-14" d="M800.62,348.63q-.52,3.25-.93,5a35.22,35.22,0,0,0-1.56,4,28.76,28.76,0,0,1-1.85,5.82q-.88,1.14-2.63,3.71a27.23,27.23,0,0,1-2.7,4.91q-1.52,1.66-4.63,5.13a8.85,8.85,0,0,0-1.09.57,29,29,0,0,1-2.31,2q-7.9,5-14.41,5.65h-5.71c.06,0,0-.12-.29-.34q-4.64-.17-6.73-1.71-.58-.17-1.55-.57a50,50,0,0,1-4.67-3.25,28.76,28.76,0,0,1-6.21-9.81,34.89,34.89,0,0,1-2.12-9.13,38.42,38.42,0,0,1-.24-8.73A77.69,77.69,0,0,1,743.26,340q.38-.74,1-2.11.54-1.71,1.71-5,1.27-2,3.45-5.82a5.06,5.06,0,0,0,.46-1.48q.26-.28.84.17a6.21,6.21,0,0,0,.37-2.28,10.89,10.89,0,0,0,1.76-1,11.89,11.89,0,0,1,2.11-2.91q2.89-1.83,8.69-5.36a16.39,16.39,0,0,1,3.66-1.48,34,34,0,0,1,7.44-1.6h3.37a19.41,19.41,0,0,1,6.59,1q1.42.57,6.15,3.19l3,2.85a22.26,22.26,0,0,1,4.88,7.82,25,25,0,0,1,1.88,8.21,17.32,17.32,0,0,1,.56,1.88,43,43,0,0,1-.56,10.15,6.13,6.13,0,0,0,0,1.06A5.9,5.9,0,0,1,800.62,348.63Zm-9.84,1.48a55.85,55.85,0,0,0,0-13.12,36.72,36.72,0,0,0-3.25-12q-3.25-6.16-8.09-7.24-4.59-1-6.42-.68a19.57,19.57,0,0,0-6.2,2q-.33.17-4.42,3a8.12,8.12,0,0,1-1,1.37,6.36,6.36,0,0,0-.83.34q-1.1,1.48-2.81,4-.28.68-.87,1.94-.87,1.37-1.91,3.25-.73,2.11-2.23,6.33-.21,1.6-.82,4.85a4,4,0,0,1-.29.74,2.18,2.18,0,0,0-.26.8q0,3.71.08,10.27a5.84,5.84,0,0,0-.35,1.08q.17.8.52,2.17a16.37,16.37,0,0,0-.05,1.94q1,4.79,1.11,4.91a19.08,19.08,0,0,0,2.64,5.65s.08.82.19,2.34q.16.06,1.42.34a21.4,21.4,0,0,0,2.68,3.48q2.8,2.51,11.35,1.54l1.94-.74a25.51,25.51,0,0,0,4.41-1.88q.73-.74,1.89-1.77a17.07,17.07,0,0,0,6.55-8.73q.54-.69,1.35-1.94.26-1.08.67-2.57a5,5,0,0,0,.69-1.08q.3-1.31,1.35-5.7A40.67,40.67,0,0,0,790.78,350.12Z" transform="translate(-69.38 -265.37)"/><path class="cls-15" d="M845.46,313.32q0,2.68-2.7,15.12a5.07,5.07,0,0,1-1.49,2.28,9,9,0,0,1-1.44.06,38.86,38.86,0,0,0,.27-5.7q-.28-3.37-2.17-4.14t-8.64-.77h-7.53q-2.12,0-3,5.42.11-.69-.53,6a31.59,31.59,0,0,1-1.06,4.68,53.06,53.06,0,0,0-1.28,5.25,11,11,0,0,0,0,4.28h5.71a10.84,10.84,0,0,1,1.36.31,8.36,8.36,0,0,0,1.48.31H830q3.12,0,6.1-4.28.31-.86,1-2.4a2.76,2.76,0,0,1,2-.46q-.07,1.77-.44,5.13-.79,4.11-3.66,16.26-.39,1.6-2.43,1.37,0-2.34,0-4.68-.22-2.91-1.92-3.65a20.08,20.08,0,0,0-5.3-.4h-6.4a3.75,3.75,0,0,1-2.11.23,2.26,2.26,0,0,0-2.18.91q-.18,1.37-.78,4-.12.51-1.2,3.42a13.71,13.71,0,0,0-.94,3.42,12.3,12.3,0,0,1,.26,2.17q-.17,1-.66,3.14t-.66,3.14q-.72,4.45,1.21,7s2,1.14,5.87,3.31a3.18,3.18,0,0,1-2.38,1.37q2.6-.06-2.47-.23-4-.12-9.81-.57a18.54,18.54,0,0,0-4.12.06,14.83,14.83,0,0,1-1.72,1l-3.1-.91a8.39,8.39,0,0,1,2.47-2.68,12.14,12.14,0,0,0,2.52-2.45,22.91,22.91,0,0,0,2.8-7.47l2.21-13.69s.17-1.28.53-4,.65-4.71.87-6.08q0,.29.41-2a17.17,17.17,0,0,0,.4-2.74,7.73,7.73,0,0,0-.2-2.79,16.18,16.18,0,0,0,2.6-6.73,29.48,29.48,0,0,0-.09-8.84q.17-1,.35-2.74a5.58,5.58,0,0,0,0-1.6,13.08,13.08,0,0,0-1.83-4.5q-.37-.63-2.07-.86a4.76,4.76,0,0,1,.12-2.34l6-.17q9.59-.17,29.22-.4A30.12,30.12,0,0,1,845.46,313.32Z" transform="translate(-69.38 -265.37)"/><path class="cls-16" d="M910.65,313.61q-.61,2.17-1.44,5.19L907.07,332a3.56,3.56,0,0,0-.81.17,3.56,3.56,0,0,1-.81.17q0-.46.4-6.79a7,7,0,0,0-1.65-5.59q-.81-.91-4.52.11a50.12,50.12,0,0,0-5.28,1.08,3.17,3.17,0,0,0-1.78,1.94,41.87,41.87,0,0,0-1.85,10.55,132.39,132.39,0,0,1-3.39,19s-.23,2.59-.71,7.87q-.61,2.74-1.41,8.21,0,2.91,0,8.84a3.39,3.39,0,0,0,2.31,3.65q1.89.63,3.79,1.2a6.73,6.73,0,0,1-1.4,2.51H865.4c-.23,0-.31-.23-.24-.68,0-.11.08-.42.19-.91a34.43,34.43,0,0,0,4.2-1.65,12.8,12.8,0,0,0,3.95-3.82,28.08,28.08,0,0,0,1.43-5.13q1.44-7.87,3.09-16.48l3.31-20.53h1.17a2.19,2.19,0,0,0,.39-.51q-.3-1.88-.6-5.42,0-.69.71-8.73h-8q-1.26,0-3.41,1.83a7.88,7.88,0,0,0-2.51,3,40.07,40.07,0,0,1-2.9,7,2.26,2.26,0,0,1-2.1,1q0-.23.06-1.43a5.48,5.48,0,0,1,.2-1.48,73.63,73.63,0,0,0,2.16-7.24q1.52-5.93,2.15-8l1.77-2.4q-1.27-.17,7.95-.17a76,76,0,0,1,8.05.63q5.37.63,5.16.63h7.14l2.69-.57a44.54,44.54,0,0,1,5.61-.74l2-.34Q910.38,312.58,910.65,313.61Z" transform="translate(-69.38 -265.37)"/><path class="cls-17" d="M971,313.67a1.9,1.9,0,0,1-.7,1.14,11.92,11.92,0,0,0-3.39,1.71,11.51,11.51,0,0,0-2.17,2.62,8.91,8.91,0,0,0-1.5,3q-.83,5.13-.57,4-.57,1.37-1.42,4-.11.68-.38,5.88-.11,1.77-.57,4.62-.54,3.37-1.6,8.19t-1,4.48l-1.36,8.44q-2.08,12.89-.59,17.85a4.22,4.22,0,0,0,1.58,2,4.84,4.84,0,0,0,2.33,1.14q-.35.57-1.23,1.71h-20.2a6.63,6.63,0,0,0,0-1.06,6.26,6.26,0,0,1,0-1q1-.57,3-1.71,1.48-.86,3.36-5.25a28.38,28.38,0,0,0,2-6l1.34-8.33q.14-.86.45-4.68a25.89,25.89,0,0,1,.75-4.68,12.27,12.27,0,0,0,0-4.45,16.37,16.37,0,0,1-6.9,3.08,9,9,0,0,1-3.93.23q-2.17-.51-2.3-.51h-10.9a19.51,19.51,0,0,0-3,2.74,8.45,8.45,0,0,0-1.06,3.88,25.82,25.82,0,0,1,.33,2.79q0-.8-.81,3.14-.09.29-1.14,9-1.16,9.35,3.2,10.5.16.06,1.71.91a5,5,0,0,1-3.67,2.11,5.27,5.27,0,0,1-1.23-.17,7.63,7.63,0,0,0-1.05-.17l-17-.34q.21-1,2.32-2.05a10.48,10.48,0,0,0,4.1-3.71,24,24,0,0,0,2.35-7.07,75,75,0,0,0,1.58-9.24q-.1-.46-.32-1.26.66-4.39,2.49-13.06.09-.28.77-1.83a7.52,7.52,0,0,0,.7-2.17,22.53,22.53,0,0,1-.67-3.37q0,.69.91-3.76a18.84,18.84,0,0,0,.28-2.68q.09-1.77.13-2l1.48-9.18a6.77,6.77,0,0,0-1.24-4.39,8,8,0,0,0-3.31-3.37q.06-.11,1.26-1.94,1.57-.06,4.91-.4l3.3-.34h8.22a4.63,4.63,0,0,0,1.2-.17,4.1,4.1,0,0,1,.85-.17q.86,0,2.67,2.22-1.67,1-3.35,2a11,11,0,0,0-3.19,2.91q-1.79,2.51-2.9,9.41l-2,12.21a2.29,2.29,0,0,0,0,.74,2.09,2.09,0,0,1,0,.63,6.21,6.21,0,0,0,3.27,1.2h17.17a21.5,21.5,0,0,1,2.56.74s.38.23,1.06.68a2.54,2.54,0,0,0,1.26.51,1.22,1.22,0,0,0,.54-.11,11.05,11.05,0,0,0,2.23-5.25,29.66,29.66,0,0,0,.24-4.45,23.63,23.63,0,0,1,.22-4.05q.15-.91.32-3.59.2-3.14.37-4.45.68-5.53-4.81-9.87,1-1.14,1.44-1.14h6.45q-.56,0,3.61-.11,3.66-.17,5.59-.06Z" transform="translate(-69.38 -265.37)"/><path class="cls-18" d="M1009.36,366q-.61,3-1.91,8.38-.76,1.48-2,4.16-.36,1.14-1.16,3.19a11.76,11.76,0,0,1-1.46,2.11q-1.42,1.83-2.11,1.83h-11l-3.87-.17-3.87-.17h-6.66q-.26,0-2.61-.31t-2.65-.31h-6.53l-.43-.8a27.36,27.36,0,0,1,4.34-3.42,7,7,0,0,0,3-4.56l2.91-18a100.92,100.92,0,0,1,2.9-11.81,17.35,17.35,0,0,1,.7-5.7,3.08,3.08,0,0,1-.39-2.4q0-.11,1.62-4.68a4.07,4.07,0,0,0-.17-1.6q-.38-1.42-.41-1.48a15.74,15.74,0,0,1,.35-3.76l.63-3.88a10,10,0,0,0-.1-3.14,4.38,4.38,0,0,0-1.7-2.62q-1.18-.74-2.35-1.54.91-1.88,1.62-2a31.26,31.26,0,0,0,3.85,0q2.89-.74,2.8-.74h7.66q.17,0,2.56.35t3.64.39q.52,0,8.77-.74a89.44,89.44,0,0,1,9.68.34,1.75,1.75,0,0,1,.44,1.55,6.58,6.58,0,0,1-.52,1.49,6.65,6.65,0,0,0-.51,1.43q-.35,1.9-2.93,12.51a4.59,4.59,0,0,1-1.43,1.09q-.17-.57-.62-6.1-.29-3.59-2.57-3.94l-1.86-.57a3.29,3.29,0,0,0-2.06-.11q-2,.63-8.28.06a15.37,15.37,0,0,0-5.31.17q-.55.17-.91,1.32a24.34,24.34,0,0,1-1.76,11.86q.16-.34-.36,2.87-.13.8-.72,3.32a18.17,18.17,0,0,0-.61,3.32,2.5,2.5,0,0,0,.58,1.49h16.28l1.62-.68a4,4,0,0,0,2-1.77,42.4,42.4,0,0,1,2.26-4.11,1.38,1.38,0,0,1,1.57,1.25q-.7,3.25-1.69,8.33-.58,3.37-2.19,9.87-.33,1-1.83.63a20.22,20.22,0,0,0-1.41-3.59q-2.21-2.62-4.37-2.62h-6a15.08,15.08,0,0,1-2.16-.29,15.06,15.06,0,0,0-2.42-.29,3.24,3.24,0,0,0-3.18,1.77,11.67,11.67,0,0,0-1.19,3.08q-.17,1-.32,3.88a35.74,35.74,0,0,1-.45,4.39q-.17.8-.89,3a24.3,24.3,0,0,0-.92,3.45,8.35,8.35,0,0,0-.11,1.77A6,6,0,0,0,982,376a6.38,6.38,0,0,0,3.16,2.22l.4.23a2,2,0,0,0,.75.17h7.17a8.41,8.41,0,0,0,4.23-1,18.9,18.9,0,0,0,5.18-4.56,16.14,16.14,0,0,0,3.63-6.73A2.77,2.77,0,0,1,1009.36,366Z" transform="translate(-69.38 -265.37)"/><path class="cls-19" d="M1105.09,398.71q-.11.68-.26,1.37a1.54,1.54,0,0,1-.81,1.11,11.39,11.39,0,0,1-2.32.54,20.34,20.34,0,0,0-2.52.86,8.14,8.14,0,0,1-2.58.68,1.67,1.67,0,0,1-.55-.09,2.16,2.16,0,0,1-.72-.66q-.62-.69-.42-1.14-.42-.34-1.85.18.8.67,1.93,1.7-3.28.23-4.24-.83.17-.53.57-1.66a1.61,1.61,0,0,0-.22-.24,24.29,24.29,0,0,0-3.55-.53s-.11.06-.35.28l.89.63q-2,.11-2.41-.34-.37-.91-.75-1.77-.75-1.48-1.57-1.25a54.93,54.93,0,0,0-3.65-6.56q-2.58-4.11-2.56-5a5.42,5.42,0,0,1-.89-1.2,21.43,21.43,0,0,1-1-3.37.64.64,0,0,0-.59-.63,7.07,7.07,0,0,0-2-4.39,1.49,1.49,0,0,0,.19-1.2l-1.64-3.37a6.82,6.82,0,0,1-.82-3.94,3.88,3.88,0,0,1,.14-.57c.1-.12.42-.09.94.06q.18.23.55.63a3.33,3.33,0,0,0,1.66-.91,25.35,25.35,0,0,1,1.58,2.79,1.12,1.12,0,0,0,.81-1q.24-1.48-1-1.43a2.17,2.17,0,0,0,.26-.4,1,1,0,0,1,.25-.34,7.85,7.85,0,0,0,.74.8.67.67,0,0,0,.57-.34,5.83,5.83,0,0,0,.28-1.71,2.67,2.67,0,0,0-2.24-1.14,9.13,9.13,0,0,0-2.37.48,9.17,9.17,0,0,1-2.24.49,2,2,0,0,1-1.35-.46q-1.33-1.14-1.35-4-.18-.23-.46-.63l.16-.46a1.83,1.83,0,0,0-.48-1.6,1.77,1.77,0,0,0-1.27-.68q-2.48.06-6.66,0h-6.66c-.26,0-.42.17-.47.51a36.43,36.43,0,0,0-.61,3.76l-1.18,7.35q-.86,6.38-1.11,8a4.85,4.85,0,0,1-.34.91,2.52,2.52,0,0,0-.28,1.08,13.86,13.86,0,0,1,.52,2.39,28.24,28.24,0,0,1-.56,5.36l-2.24,1.82c0,.23,0,.38.06.46a39.38,39.38,0,0,1,7.53,1.31q.4.17,1.21.57a11.8,11.8,0,0,1-.51,2.33,2.29,2.29,0,0,1-1.32.68,51.24,51.24,0,0,1-6.75-1.08l-9.35-.23a19.2,19.2,0,0,1-3,.68q-3.1.17-7.34.17.16-1,.49-2.79a34.32,34.32,0,0,1,4.29-1.65q1.46-.46,3.42-3a11.51,11.51,0,0,0,2.32-4.19q1.84-7.93,2-8.67l6.6-41c0-.15.06-.61.09-1.37s.08-1.27.12-1.54q.07-.74.73-3.48t.92-4.33q.11-.68.25-2.62.13-2.17.29-3.14.18-1.65.31-4.85-.17-.8-.43-2.45-.07-2-2.92-3.08l-1.22-.74q-.78,0-2.19-.11-.89-.91.14-2.74,1.32-.4,3.87-.91,7.13-.74,8.21-.74H1060q.17,0,2.5-.34t2.54-.34h3.46c.14,0,.6.06,1.36.17l1.82.23a15.48,15.48,0,0,1,2.44-.4,71.79,71.79,0,0,1,9.68,2.47q2,.63,7.22,7.29a1.93,1.93,0,0,1-.2,1.26,16.85,16.85,0,0,1-3.37,2.5,15.69,15.69,0,0,0-3.43,2.61q0,.69.85.86a2.7,2.7,0,0,0,1.46-.17,2,2,0,0,1,.64-.74,9.38,9.38,0,0,1,1.78-.29,4.42,4.42,0,0,0,.67,2,1.41,1.41,0,0,0,.88-1.2,2.36,2.36,0,0,0-.39-1.6,1.78,1.78,0,0,1,1.25,0,4.22,4.22,0,0,0,1.55.34q0,3,0,5.93a45.77,45.77,0,0,1-.47,6.67,22.43,22.43,0,0,1-1.06,4.16q-1.1,3.08-4,9.13a76.52,76.52,0,0,1-5.46,7.59q-.11.17-4.74,4.16a39.07,39.07,0,0,0,2.34,6.67,31.4,31.4,0,0,1,1.85,5.19,33,33,0,0,0,1,3.59,8.4,8.4,0,0,0,.14,1q1.8,3.88,5.1,11.58a.82.82,0,0,1-.1.63,56.14,56.14,0,0,1,3.71,5.19q1,1.6,2.55,4.85a1.81,1.81,0,0,0-1.66,1.71,1.75,1.75,0,0,0,.76,2q.55-2.05,1.67-2.05a1,1,0,0,1,.34.06q.16.06,1.91,1.31l5.19,3.76A6.85,6.85,0,0,0,1105.09,398.71Zm-23.85-67.82a1.37,1.37,0,0,1-.92-1.54l1-6a2.48,2.48,0,0,0,0-.71c0-.28-.07-.48-.08-.6a18.69,18.69,0,0,0-1.44-8.27q-2-5.08-4.82-5.87a6.75,6.75,0,0,0-1-.74,37.1,37.1,0,0,0-4.75-1.2h-3.81a11.08,11.08,0,0,0-4.06.74,10.66,10.66,0,0,0-1.22,1.37q-.2,3.37-.3,3.76a1.67,1.67,0,0,1-.21.34,1.39,1.39,0,0,0-.24.57l-1.28,7.93a4,4,0,0,1-.42,1,2.86,2.86,0,0,0-.39,1.05q0,1.37,0,2.68a6,6,0,0,1-.42,2.62,23.47,23.47,0,0,0-1.26,7.13q.09-.91-.49,2.68l-1.31,8.16a17,17,0,0,1-.42,1.83,7.38,7.38,0,0,0-.25,1.31,12.56,12.56,0,0,0,.24,2q1,.4,2.87,1l8.4.23q1.46-.74,4.41-2.11a19.63,19.63,0,0,0,3-1.48,28.16,28.16,0,0,0,4.56-5.76,26.8,26.8,0,0,0,2.32-5.82q.22-1.08.84-3.31.22-.85.66-2.22Q1080.71,330.72,1081.24,330.89ZM1073,366.2c-.43.53-.8.74-1.09.63a1.43,1.43,0,0,1,.75-.91Z" transform="translate(-69.38 -265.37)"/><path class="cls-20" d="M1119.32,319q-.31.85-.95,2.4l-2.71.74a3.6,3.6,0,0,0-2.39,1.94q-.46.69-1.18,1.94-.15.4-2.19,6.62l-4,24c-.36,1-.55,1.52-.56,1.6l.11,1.2-1.43,8.84a21.3,21.3,0,0,0-.81,5,20.86,20.86,0,0,0,.22,6,3.66,3.66,0,0,0,1.21,1.77,6,6,0,0,0,4.18,1.65,11.81,11.81,0,0,1-.83,2.17h-5l-1.47-.11-1.43-.11-1.19.11-1.14.11-.78-.11a8.21,8.21,0,0,0-.83-.11,3.45,3.45,0,0,0-.6.11,3.67,3.67,0,0,1-.6.11l-9.09.29q-1.17,0-1-1.14.21-1.31.85-1.54,1.44-.34,2.87-.63a3.68,3.68,0,0,0,2.32-1.54l.86-2.11a15,15,0,0,1,1.81.34,24.72,24.72,0,0,0,.92-3,4.63,4.63,0,0,0-.16-1.71,3.78,3.78,0,0,0,.44-1.94,14.61,14.61,0,0,0-.51-1.94,6.14,6.14,0,0,1-.34-1.37,25.25,25.25,0,0,0,1.33-3.42,2.26,2.26,0,0,0-.09-1.31,7.9,7.9,0,0,0,1.08-2.17q0-.11.38-3.71a3.6,3.6,0,0,0-.13-1.08,4.05,4.05,0,0,1-.15-1,2.27,2.27,0,0,1,.52-.8c-.11.15-.12-.06,0-.63l1.11-6.9a8.63,8.63,0,0,1,.36-1,8.65,8.65,0,0,0,.36-1,1.29,1.29,0,0,0-.06-.43,1.3,1.3,0,0,1-.05-.49q0,.23.54-2.57.09-.57.39-3.19l.73-4.51a4.1,4.1,0,0,0-.32-1.83,5.42,5.42,0,0,0,.12-2.34,19.5,19.5,0,0,0,0-2.4,14.23,14.23,0,0,1-.63-1.48q-.08-.57-.33-1.71a4.7,4.7,0,0,0-1.29-2.28,30.24,30.24,0,0,1-2.8-1.25q.26-.8.81-2.05h.39a7.26,7.26,0,0,1,.78.11,7.08,7.08,0,0,0,.78.11Z" transform="translate(-69.38 -265.37)"/><path class="cls-21" d="M1179.77,315.17q-.85.16-2.47.55a6.1,6.1,0,0,0-3,2.74,24.29,24.29,0,0,0-2.64,6.16q-1.41,5.25-1.94,8.56,0,.23-.62,4.93t-.63,5l-1.46,9.07c0,.11,0,.5,0,1.14a6.81,6.81,0,0,1-.13,1.48q-1.37,6.9-1.51,7.76a18.58,18.58,0,0,0-.13,1.85q-.05,1.4-.09,1.63l-2.82,17.51c0,.23,0,.35,0,.37a.08.08,0,0,1,.05.09,19.28,19.28,0,0,0-2.84.68q-1.82,0-2.17-.51a122.56,122.56,0,0,1-6.76-12.78q-.74-1.83-2.27-5.25-1.44-2.34-3.83-6.85-.5-1.71-1.78-5.08-2.89-6.22-8.08-18.31a30.1,30.1,0,0,1-2.1-3.08,6.7,6.7,0,0,0-.08-1.14q-.34-1.08-1.21-3.25a2.36,2.36,0,0,0-1.19,1.77s-.11,1.9-.33,5.82a4.16,4.16,0,0,1-.26,1.06,7.52,7.52,0,0,0-.28.94q-.37,2.29-1,7.05t-.6,4.65l-1.29,8q-.06.34-.87,5.82t-.86,5.77q-1.92,11.93,4.42,12.56c.09,0,.17.16.25.48a2.91,2.91,0,0,0,.18.6,4.79,4.79,0,0,1-.49,1.71h-15.1c-.12,0-.66.09-1.62.29s-1.52.29-1.67.29h-.69a1.62,1.62,0,0,1-.29-.63,3.7,3.7,0,0,1,1.38-2.68,35.28,35.28,0,0,0,3.56-1.71,8.34,8.34,0,0,0,3.34-4.91q2.46-8.27,2.1-10.1a1.94,1.94,0,0,1,.13-1.37l.44-.57-.18-.51a21.77,21.77,0,0,1,.4-2.2q.34-1.57.45-2.25a26,26,0,0,0,.2-2.74,26.11,26.11,0,0,1,.2-2.74,35.58,35.58,0,0,0,.74-3.54c0-.11-.08-.49-.21-1.14l.26-.29a3.93,3.93,0,0,0,.42-1.25.51.51,0,0,0,.06-.4q.43-6.45.79-8.67l1.27-7.87q.78-6.73,1-8.21a4.46,4.46,0,0,1,.27-.74,3,3,0,0,0,.26-1,7.36,7.36,0,0,0-7.6-4.11l-.17-.29.3-1.88a3.09,3.09,0,0,1,2.46-.74q.22,0,3.44.26t3.44.26l3.26-.26q3.09-.26,3.31-.26a3.2,3.2,0,0,1,1.19.11q.56.29,1.91,3.71,2.51,6.67,7.61,19.85,1.08,2.45,3.24,7.3-1.33,5,.27,5a2.15,2.15,0,0,0,.75-.34,2,2,0,0,1,.79-.34q.56,0,1.17,2.11.3,1.08.57,2.11a17.63,17.63,0,0,1,3.11,5.13q0,1,.15,2.85c.16.42.32.63.46.63a.73.73,0,0,0,.47-.23,1.12,1.12,0,0,1,.3-.23q.9,1.66,2.38,4.85c.54-.3.83-.59.87-.86a4.51,4.51,0,0,0,0-1,4.38,4.38,0,0,1,0-1l1-6.1a7.55,7.55,0,0,0,.07-.83,12.59,12.59,0,0,1,.16-1.4,31.52,31.52,0,0,0,.75-3.08q0-1.66.22-4.85a6.67,6.67,0,0,1,.36-1.71q.38-1.25.4-1.43a6.68,6.68,0,0,0,0-.94,6.26,6.26,0,0,1,0-1,22.58,22.58,0,0,1,.45-2.79q.44-2.22.56-3a3.93,3.93,0,0,0,0-1,7,7,0,0,1-.07-1l.42-1.54a9,9,0,0,0,.13-1.77,14.47,14.47,0,0,1,.13-2,7.36,7.36,0,0,1,.34-1,4.22,4.22,0,0,0,.31-1.14q.12-2.34.2-6.84-.13-3-4.3-3.94a6.36,6.36,0,0,0,.16-2.05q.56-.51,3.15-.51l7.81.4q-.26,0,3.93-.23a7.54,7.54,0,0,1,3.79.38Zm-23.07,43.56-.49.63L1156,359l.41-1.2C1156.81,358.43,1156.9,358.73,1156.7,358.73Z" transform="translate(-69.38 -265.37)"/><path class="cls-22" d="M1225,313.44a5.58,5.58,0,0,1-.08,1,43.17,43.17,0,0,1-1.12,4.39,42.76,42.76,0,0,0-1.17,4.68q-.13.8-.2,1.48a29.49,29.49,0,0,0-.85,2.85q0,2.28.1,1.77-.18.34-.53.86-.09.57-.26,3.25a3.52,3.52,0,0,1-2.17,1.37q-.35,0-.67-.68a23.37,23.37,0,0,0,.93-4.16q0-.91-.1-2.57a16.62,16.62,0,0,0-2.31-5.53,12.78,12.78,0,0,0-3.75-3,14.6,14.6,0,0,0-2.68-.8,22,22,0,0,0-4.53-.34,19.36,19.36,0,0,0-14.42,6,12.05,12.05,0,0,0-2,1.77,39.13,39.13,0,0,0-6.44,13.4q-.66,2.74-1.67,9l-.61,3.76a21.08,21.08,0,0,1,.12,3q-.24,1.77-.34,4.79a6.87,6.87,0,0,1,.59,1.71,12.6,12.6,0,0,0,0,1.94q.43,1.08,1.34,3.25.06.68.29,1.94a14.83,14.83,0,0,0,4.76,7.76,10,10,0,0,0,3.28,1.94q8.1,2.63,10.52,2.62a7.82,7.82,0,0,0,2.26-.34,7.25,7.25,0,0,0,1.63-.68l.57-2.23a.94.94,0,0,0-.39-1.08,1.52,1.52,0,0,1-.89-.91,7.26,7.26,0,0,1,.53-3.54l1.46-9.07a31.72,31.72,0,0,0,.1-5.19,4.85,4.85,0,0,1-.52-1.08q-.25-3-2.53-3.88a17.18,17.18,0,0,0-4.17-.46,5,5,0,0,1-.33-.4l.24-1.48a10.58,10.58,0,0,1,3.62-.46q.17,0,3,.31t3,.31a2.35,2.35,0,0,0,.78-.26,4.53,4.53,0,0,1,.83-.31q2.68-.29,3-.29,6.1,0,5.18.06l-.39,2.45a7.58,7.58,0,0,1-.58,1.2,13,13,0,0,0-.83,1.65,57.32,57.32,0,0,0-2.15,8q-1,5.13-1.31,7.06-.63,3.93-1.1,10.82-2.21,1.37-11,3.64a11.86,11.86,0,0,0-2.14.11,12.7,12.7,0,0,1-2.82.57,1.77,1.77,0,0,1-.62-.17,1.79,1.79,0,0,0-.58-.17,43.68,43.68,0,0,1-7.24-1,33,33,0,0,0-3.1-1.42q-4.19-1.14-8.47-7.3-4.46-6.44-4.75-12.37-.18-1.31-.36-3.93-.21-.86-.5-2.56a26.3,26.3,0,0,1,.24-4.73q0,.17.56-2.11a10.16,10.16,0,0,0,.49-2.74,10.31,10.31,0,0,1,.14-1.94,32.77,32.77,0,0,1,1.63-5.53q1.58-4.44,2-6,5.87-10.09,6.77-10.09a.23.23,0,0,1,.23.2.25.25,0,0,0,.27.2,1.78,1.78,0,0,0,1.24-.46,16,16,0,0,1,1-1.88q5-5.87,5.83-5.87a.31.31,0,0,1,.28.11.26.26,0,0,0,.24.12,3.58,3.58,0,0,0,1.05-.77q.88-.77,1.1-.77a.86.86,0,0,1,.46.23.84.84,0,0,0,.46.23q.22,0,4-1.2t4-1.2h11.12q.22,0,3.89.54t3.89.54H1225Z" transform="translate(-69.38 -265.37)"/><path class="cls-23" d="M185.26,271.52l-.1.2a1.35,1.35,0,0,1-.83.1l-.17-.17q.25-.43.22-.53a7.82,7.82,0,0,0-1.06-2.06,3.08,3.08,0,0,0-2.15-1.25l-.5-.23a2.84,2.84,0,0,0-1,0,3.25,3.25,0,0,1-1,0,1.11,1.11,0,0,0-.43.1,2,2,0,0,1-.52.13q-.45.1-1.38.22l-1.51,0a.92.92,0,0,0-.5.32,1.25,1.25,0,0,0-.35.52q0,.38,0,1.1-.2.6-.45,1.73a5.87,5.87,0,0,0,.17,2.11q0,.67.17,2l-.07,3.49a3.45,3.45,0,0,1,.2.81,1.25,1.25,0,0,1-.22.65,3.41,3.41,0,0,0-.27.47.77.77,0,0,0,.45.27.5.5,0,0,1,.08.37,2.15,2.15,0,0,1-.45.55,4.26,4.26,0,0,1,.32.83,2.74,2.74,0,0,1-.15,1.31,2.94,2.94,0,0,0-.25,1.16,5.22,5.22,0,0,0,.14,1,5.2,5.2,0,0,1,.14,1,2.39,2.39,0,0,1-.2.95.68.68,0,0,0-.07.32.78.78,0,0,0,.37.22.46.46,0,0,1,.1.42q-.17.68-.4,2.06s.07,1.13.2,3.31q0,.58,0,1.71a5.15,5.15,0,0,0,.62,1.85,3.89,3.89,0,0,1,.43.33,8.62,8.62,0,0,0,.85,1.23,1.83,1.83,0,0,0,.82.4l1.64.18a.37.37,0,0,1,0,.45h-4.62l-.8-.1-.8-.1h-3l-.69.13a5.48,5.48,0,0,1-1,.13q-2.33,0-2.71-.07a.32.32,0,0,1,0-.17q0-.43,1-.57a5.22,5.22,0,0,0,1.36-.38,4.81,4.81,0,0,0,1.61-2,4.49,4.49,0,0,0,.27-1.45q0-1.26.05-1.3.1-.32.3-.9a2.84,2.84,0,0,1-.07-.7,3.73,3.73,0,0,0,.3-1.55,3.35,3.35,0,0,0-.25-1.38,2.26,2.26,0,0,1-.05-.85q.05-1,.25-3.31a5.06,5.06,0,0,1,.1-.53,2.51,2.51,0,0,0,.07-.68l-.17-.28a.43.43,0,0,1,.08-.24.67.67,0,0,0,.09-.24q0-2.61,0-2.43a6.74,6.74,0,0,0,.1-.88,1.09,1.09,0,0,1-.18-.35q0-.45,0-1.38a6.52,6.52,0,0,1,.08-1.58,1,1,0,0,1,.28-.64.85.85,0,0,1,.5-.14,2.74,2.74,0,0,1,.7.15,2.74,2.74,0,0,0,.74.15,1,1,0,0,0,.7-.28q-.1-.28-.67-.42l-.9-.18a1.51,1.51,0,0,0-.35-.3,2.41,2.41,0,0,1-1-.38q0-.32,0-1.88c0-.07,0-.24-.06-.52a5.08,5.08,0,0,1-.06-.64q0-.23.07-.93t0-.93a.22.22,0,0,0-.17-.23,1.5,1.5,0,0,1-.32-.17.19.19,0,0,1,0-.08c0-.08.06-.18.19-.3a.7.7,0,0,0,.21-.27,6,6,0,0,0,.08-1.7.92.92,0,0,0-.65-.25h-.58a1,1,0,0,1-.86-.53,5.56,5.56,0,0,1-1.21.75,2,2,0,0,1-.38,0,4.83,4.83,0,0,1-1-.14,4.79,4.79,0,0,0-.93-.14,1.73,1.73,0,0,0-.86.22,12.82,12.82,0,0,1-1.31.32,2.2,2.2,0,0,0-.63.5l-2.23,2.65a5.81,5.81,0,0,0-.33.91q-.22.67-.57.67a.79.79,0,0,1-.42-.15,2,2,0,0,1,.15-.68q.22-.56.23-.65.17-1,.55-3s0-.57.12-1.65a2.49,2.49,0,0,1,.48-1.51,8.33,8.33,0,0,1,1.88-.17,5.47,5.47,0,0,0,.68.27.83.83,0,0,0,.35-.08l.33-.11H163a6.42,6.42,0,0,1,.75-.2,3,3,0,0,1,1,0,6.28,6.28,0,0,0,1,.16,1.59,1.59,0,0,0,.37-.1,1.54,1.54,0,0,1,.39-.1h2.59l.32,0a.89.89,0,0,1,.37,0l.68.23a26.22,26.22,0,0,0,4,0,3.13,3.13,0,0,0,.7.1q.13,0,1.36-.1h.62a1.17,1.17,0,0,0,.24-.11.63.63,0,0,1,.26-.1q1.4,0,3-.06.33,0,1.45.07a1.22,1.22,0,0,1,.38.13,1.19,1.19,0,0,0,.43.12q.28,0,1.95-.32a1,1,0,0,1,.35.86l-.1,1q0,.27,0,.88t0,.7v1.46s0,.16.07.45A5.25,5.25,0,0,1,185.26,271.52Z" transform="translate(-69.38 -265.37)"/><path class="cls-24" d="M201.88,272.16a.42.42,0,0,1-.2.33,4.24,4.24,0,0,0-1.2.5,2.77,2.77,0,0,0-.67.77,1.86,1.86,0,0,0-.39.88q0,1.5,0,1.18a11.81,11.81,0,0,0-.3,1.16q0,.2.22,1.71a11,11,0,0,1,.07,1.35q0,1-.11,2.39t-.11,1.31v2.46q0,3.76.88,5.21a1.83,1.83,0,0,0,.73.58,2.62,2.62,0,0,0,1,.33,5.12,5.12,0,0,1-.37.5h-7.77a1.49,1.49,0,0,0-.05-.31,1.47,1.47,0,0,1,0-.29l1-.5q.52-.25,1-1.53a5.8,5.8,0,0,0,.38-1.75V286q0-.25-.12-1.36a5.51,5.51,0,0,1,0-1.36,2.9,2.9,0,0,0-.28-1.3,6,6,0,0,1-2.46.9,4.39,4.39,0,0,1-1.5.07l-.92-.15H186.5a5.3,5.3,0,0,0-1,.8,1.75,1.75,0,0,0-.17,1.13,6.94,6.94,0,0,1,.3.81q0-.23-.12.92,0,.08.12,2.61.13,2.73,1.88,3.06l.72.27A1.71,1.71,0,0,1,187,293a2.85,2.85,0,0,1-.48,0l-.42,0-6.55-.1q0-.3.77-.6a2.86,2.86,0,0,0,1.35-1.08,4.92,4.92,0,0,0,.47-2.06,15.94,15.94,0,0,0,0-2.69l-.2-.37q0-1.28.15-3.81,0-.08.18-.53a1.54,1.54,0,0,0,.13-.63,6.44,6.44,0,0,1-.47-1q0,.2.12-1.1a4.16,4.16,0,0,0-.06-.78q-.08-.52-.08-.58v-2.68a2,2,0,0,0-.75-1.28,3.78,3.78,0,0,0-1.48-1l.37-.57q.6,0,1.86-.12l1.25-.1h3.16a2.15,2.15,0,0,0,.45,0l.32-.05a2.57,2.57,0,0,1,1.16.65l-1.16.58a3,3,0,0,0-1,.85,5,5,0,0,0-.53,2.74v3.56a.55.55,0,0,0,0,.22.51.51,0,0,1,0,.18,3.39,3.39,0,0,0,1.33.35h6.6q.35,0,1,.22l.45.2a1.38,1.38,0,0,0,.52.15.54.54,0,0,0,.2,0,2.3,2.3,0,0,0,.53-1.53,6.72,6.72,0,0,0-.18-1.3,5.37,5.37,0,0,1-.17-1.18,10.34,10.34,0,0,0-.1-1q-.12-.91-.13-1.3-.08-1.61-2.46-2.88.32-.33.48-.33h2.48l1.38,0q1.4,0,2.15,0Z" transform="translate(-69.38 -265.37)"/><path class="cls-25" d="M219.86,287.41q0,.86-.22,2.44-.2.43-.5,1.21-.07.33-.25.93a2.66,2.66,0,0,1-.43.62q-.43.53-.7.53h-4.24l-1.5-.05-1.5,0H208l-1-.09-1-.09h-2.51l-.22-.23a7.87,7.87,0,0,1,1.46-1,1.57,1.57,0,0,0,.87-1.33V285a20.89,20.89,0,0,1,.38-3.44,3.81,3.81,0,0,1-.08-1.66.86.86,0,0,1-.3-.7s.11-.48.33-1.36a1,1,0,0,0-.17-.47l-.25-.43a3.49,3.49,0,0,1-.1-1.1v-1.13a2.44,2.44,0,0,0-.23-.92,1.77,1.77,0,0,0-.81-.77l-1-.45q.23-.55.5-.58.52,0,1.48,0l1-.22h2.94l1,.1q.94.1,1.42.11l3.33-.22q.72-.05,3.74.1a.54.54,0,0,1,.27.45,1.35,1.35,0,0,1-.11.44,1.34,1.34,0,0,0-.11.42q0,.55-.35,3.65a1.35,1.35,0,0,1-.48.32,18.66,18.66,0,0,1-.62-1.78,1.44,1.44,0,0,0-1.23-1.15l-.75-.17a1.68,1.68,0,0,0-.8,0,13.13,13.13,0,0,1-3.18,0,7.61,7.61,0,0,0-2,.05q-.2.05-.27.38a5.27,5.27,0,0,1,.06,3.46q0-.1,0,.84,0,.23-.07,1a3.83,3.83,0,0,0,0,1,.83.83,0,0,0,.32.43h6.26l.58-.2a1.11,1.11,0,0,0,.65-.52,9,9,0,0,1,.61-1.2.65.65,0,0,1,.68.37q-.07.95-.13,2.43,0,1-.23,2.88-.07.28-.66.18a6.73,6.73,0,0,0-.76-1,3.17,3.17,0,0,0-1.84-.77h-2.29a8,8,0,0,1-.85-.08,8,8,0,0,0-.95-.08q-.88,0-1.11.52a2.39,2.39,0,0,0-.27.9,9.93,9.93,0,0,0,.12,1.13,7.82,7.82,0,0,1,.1,1.28,7.31,7.31,0,0,1-.16.87,5,5,0,0,0-.14,1,1.87,1.87,0,0,0,.07.52,2.26,2.26,0,0,0,.9,1,3.31,3.31,0,0,0,1.35.65l.17.07a1.05,1.05,0,0,0,.3,0h2.76a3.63,3.63,0,0,0,1.56-.3,5.24,5.24,0,0,0,1.71-1.33,3.42,3.42,0,0,0,1-2A1.27,1.27,0,0,1,219.86,287.41Z" transform="translate(-69.38 -265.37)"/><path class="cls-26" d="M246.11,294.91a4.82,4.82,0,0,1-.18,1.4q-.28,1-.68,3t-.88,2q-.67,0-1.41,0-1,0-1.75,0-1.78,0-2.84,0l-.86-.05q-.8,0-2,.08a1.1,1.1,0,0,1-.25-.08,30.9,30.9,0,0,0-3.33-.08h-3l-.3-.06a1.81,1.81,0,0,0-.38-.06l.18-.81a9.57,9.57,0,0,0,1-.27,2.18,2.18,0,0,0,1-1.1,3,3,0,0,0,.43-.6,3.27,3.27,0,0,0-.09-.78,4.38,4.38,0,0,1-.11-.78q.17,0,.8-.52s-.12-.21-.28-.53c0,0-.11,0-.28,0q-.33-.3.16-.93a1.49,1.49,0,0,0,.3-1,5.22,5.22,0,0,0-.14-1,5.49,5.49,0,0,1-.14-.84.83.83,0,0,1,.09-.28.86.86,0,0,0,.09-.27v-1.55a2.89,2.89,0,0,1,.09-.38,3,3,0,0,0,.11-.52,5,5,0,0,0-.15-.65,5.36,5.36,0,0,0,0-.67,1.52,1.52,0,0,0,0-.43,3,3,0,0,1-.06-.47,5,5,0,0,1,.08-.9q.1-.73.12-.95t0-.88q-.05-.6-.05-.62v-1.6a.57.57,0,0,1,.1-.27l-.1-1.78a4.16,4.16,0,0,1,0-1.13,1.67,1.67,0,0,0,.06-.45,4.17,4.17,0,0,0-.18-1.1l-.3-1s0-.32,0-.9t-.12-3.64l-.15-.83s0-.23.08-.67a1,1,0,0,0-.08-.39,2.67,2.67,0,0,1-.12-.37,4.82,4.82,0,0,0,.15-1,8.59,8.59,0,0,0-1-1.38,1.22,1.22,0,0,0-.63-.18,5.37,5.37,0,0,1-.67-.08.55.55,0,0,1,0-.43.6.6,0,0,1,.23-.38l.67-.05q1.4.1,4.24.23l.58,0,2.53-.27h2.4a1.66,1.66,0,0,1-.18.81l-1.75.33a2.16,2.16,0,0,0-1.61,1.63,11.35,11.35,0,0,0-.3,1.55,22,22,0,0,0-.2,2.31v16.67s0,.17,0,.37a3.72,3.72,0,0,1,0,.4,16.13,16.13,0,0,1,0,1.8q-.07,1.13.27,1.23s0,.31,0,1l-.12.07a22.11,22.11,0,0,1,.45,2.44,5.15,5.15,0,0,0-.5,1.13,6,6,0,0,0,.45,1.4q.65,0,1.95.15a1.91,1.91,0,0,1,.72.4,4.74,4.74,0,0,1,.35-.4,8.21,8.21,0,0,1,1.16.07q.81.07,1.18.07a.89.89,0,0,0,.3-.14,1.63,1.63,0,0,1,.35-.17q.45-.08,1.31-.33a2.12,2.12,0,0,0,.62-.7l.63-.9a3.42,3.42,0,0,0,.95-2.11Q245.51,294.73,246.11,294.91Zm-14.35-19.09v-.92q0-.48,0-1.46t0-1.46a9.09,9.09,0,0,0-.52-3.39,1.35,1.35,0,0,0,0,.72l.1.77Q231.42,272.16,231.75,275.81Z" transform="translate(-69.38 -265.37)"/><path class="cls-27" d="M259.66,282.35q0,.95,0,1.45a7.21,7.21,0,0,0-.35,1.18,5.88,5.88,0,0,1-.35,1.7q-.27.33-.78,1.08a5.78,5.78,0,0,1-.73,1.43l-1.46,1.5a3.06,3.06,0,0,0-.38.17,8.07,8.07,0,0,1-.77.58,13.46,13.46,0,0,1-5.19,1.65h-2.2s0,0-.13-.1a6.68,6.68,0,0,1-2.69-.5l-.63-.17q-.67-.27-2-.95a11.65,11.65,0,0,1-3-2.86,10.26,10.26,0,0,1-1.38-2.66,9.26,9.26,0,0,1-.63-2.54,16.35,16.35,0,0,1,.13-3.46q.1-.22.27-.62t.35-1.45q.37-.58,1-1.7a1,1,0,0,0,.08-.43q.08-.08.33,0a1.33,1.33,0,0,0,0-.67,3.76,3.76,0,0,0,.62-.28,2.7,2.7,0,0,1,.63-.85l3-1.56a6.27,6.27,0,0,1,1.31-.43,15.18,15.18,0,0,1,2.76-.47h1.3a10.37,10.37,0,0,1,2.59.28q.58.17,2.56.93l1.31.83a9,9,0,0,1,2.36,2.28,7.24,7.24,0,0,1,1.23,2.4,5.37,5.37,0,0,1,.33.55,9.83,9.83,0,0,1,.42,3,1.46,1.46,0,0,0,.07.31A1.37,1.37,0,0,1,259.66,282.35Zm-3.69.43a13.24,13.24,0,0,0-.81-3.83,11.19,11.19,0,0,0-2-3.51,6.17,6.17,0,0,0-3.56-2.11,9.82,9.82,0,0,0-2.51-.2,8,8,0,0,0-2.26.58q-.12,0-1.51.88a1.83,1.83,0,0,1-.3.4l-.3.1q-.33.43-.83,1.16c0,.13-.12.32-.22.57s-.34.58-.53.95-.26,1-.47,1.85q0,.47,0,1.41a.82.82,0,0,1-.07.22.45.45,0,0,0,0,.23q.23,1.08.67,3a1.21,1.21,0,0,0-.07.32l.33.63a3.83,3.83,0,0,0,.1.57q.7,1.4.73,1.43a6.85,6.85,0,0,0,1.36,1.65s.08.24.22.68l.57.1a9.35,9.35,0,0,0,1.25,1q1.23.73,4.46.45l.7-.22a9.75,9.75,0,0,0,1.58-.55q.23-.22.62-.52a4,4,0,0,0,2-2.54,5.84,5.84,0,0,0,.4-.57q0-.32.1-.75a1.1,1.1,0,0,0,.2-.32q0-.38.17-1.66A8.61,8.61,0,0,0,256,282.78Z" transform="translate(-69.38 -265.37)"/><path class="cls-28" d="M280.27,292.36a3.07,3.07,0,0,1-.43.45,2.69,2.69,0,0,1-1.08.42h-2a10.09,10.09,0,0,1-1.51-.08l-1.11-.38a7.43,7.43,0,0,1-2.21-2q-.13-.15-1.3-2.15-1-1.81-1.65-3a8.07,8.07,0,0,0-.53-1.2q-.17-.18-.83-.13l-.85.1q-.55,0-1.63,0-.12,0-.28.2.07.65.17,4.06a9.07,9.07,0,0,0,.27,1.74,3.5,3.5,0,0,0,.17.88,2,2,0,0,0,1.13.86l1.26.36a1.54,1.54,0,0,1,0,.43,2.55,2.55,0,0,1-1,.2h-1.75l-.45-.07a3.86,3.86,0,0,0-.6-.07q-.52,0-2.69.15h-1.68a1.57,1.57,0,0,1-.6-.15,1,1,0,0,0,0-.2.92.92,0,0,1,0-.22,7.94,7.94,0,0,0,1.06-.33,2.2,2.2,0,0,0,1-1,4.63,4.63,0,0,0,.23-1.53q0-.2.12-1a9.76,9.76,0,0,0,.1-1.16q0-2.26,0-2.44a2.3,2.3,0,0,1,.31-.6,2.15,2.15,0,0,1-.27-.45,3.63,3.63,0,0,1-.08-.85v-1.68s0-.18-.08-.52q0,.2.15-2.19l-.07-.12a4,4,0,0,1,0-1.71,9,9,0,0,0-.22-2,5.27,5.27,0,0,0-.3-1.4A1.59,1.59,0,0,0,260,273l-1-.22q0-.95,0-.4a.31.31,0,0,1,.33-.28l2.18-.15,1.41-.13h2.15a7.91,7.91,0,0,0,1.23-.1,7.11,7.11,0,0,1,1.08-.1,12.51,12.51,0,0,1,1.41.1l1.56.33a1.62,1.62,0,0,0,.33.15,5,5,0,0,1,2.83,1.51,6.36,6.36,0,0,1,1.21,2.53l0,.78a6.84,6.84,0,0,1-.07,1.25,6.07,6.07,0,0,1-.83,2.66,15.84,15.84,0,0,1-2.18,2.33,1.15,1.15,0,0,0,.13.62l2.1,4a14,14,0,0,0,3,3.71,4.88,4.88,0,0,0,1.23.43,2.58,2.58,0,0,0,1.1.08,3.49,3.49,0,0,1,.95-.1A1.35,1.35,0,0,1,280.27,292.36Zm-9.12-14.24a2.07,2.07,0,0,0-.08-.73,9.67,9.67,0,0,0-1.41-2.83,3.52,3.52,0,0,0-1.78-1.1,8.61,8.61,0,0,0-2.1-.08,1.53,1.53,0,0,0-.47.18q-.27,2.86-.33,4.62a1.88,1.88,0,0,1,.17.38q0,.23-.15,1.9a9.71,9.71,0,0,0,0,2.2l.13.15h1.65a2.6,2.6,0,0,0,.6.07,3.29,3.29,0,0,0,1.89-.62,3.47,3.47,0,0,0,1.11-1A6.48,6.48,0,0,0,271.16,278.13Z" transform="translate(-69.38 -265.37)"/><path class="cls-29" d="M299.08,280.74a14.64,14.64,0,0,1-.17,3l-.48,1.95a8.82,8.82,0,0,1-2.48,4.51,10.45,10.45,0,0,1-1.8,1.3,5.29,5.29,0,0,1-2.1.85,1.62,1.62,0,0,1-.33.15l-2.38.37H278.52q-.13-.58.08-.73a3.52,3.52,0,0,1,1-.25l.28-.37a2.54,2.54,0,0,0,.78-1.8s0-.15-.1-.42a1.93,1.93,0,0,0,.1-.48,3.89,3.89,0,0,1-.17-.42,1,1,0,0,1,.07-.37,2.8,2.8,0,0,0,.1-.41q0-.63,0-2v-1.88q0-1.91,0-5.56a.75.75,0,0,0-.08-.22.69.69,0,0,1-.08-.26,6.16,6.16,0,0,1,.08-.82,6.18,6.18,0,0,0,.08-.84.69.69,0,0,0-.1-.25,1.56,1.56,0,0,1-.13-.3,6.94,6.94,0,0,0-.05-1,2.08,2.08,0,0,0-.85-1.41,5.83,5.83,0,0,0-1.6-.4,3.37,3.37,0,0,1,0-.43,2.17,2.17,0,0,1,1.43-.2q.23.18.32.17l.28-.14,1.1,0a1.13,1.13,0,0,1,.93.47l.12,0a4.9,4.9,0,0,1,.5-.65l1.11.2s.07,0,.14-.11a.59.59,0,0,1,.19-.16,5,5,0,0,1,1.55-.18h4.23a23.47,23.47,0,0,1,3.88,1.11,8.36,8.36,0,0,1,3.53,2.86q.28.37.78,1.18A12.36,12.36,0,0,1,299.08,280.74Zm-.75,0q-2-.13-2.85-.1c-.09,0-.12-.23-.1-.57q-.3-.73-.94-2.1a10.53,10.53,0,0,0-1.94-2.85,6.46,6.46,0,0,0-3.45-1.49,8.58,8.58,0,0,1-1-.18h-1.71l-.91.16-1.13.19a10.89,10.89,0,0,0-.18,2.53v9.21s0,.18-.07.57a4.31,4.31,0,0,0,0,.76q.07,1,.07.83a9.13,9.13,0,0,0,0,1.11,2.25,2.25,0,0,0,.1.45,1.2,1.2,0,0,1,.07.43l-.55.22a.76.76,0,0,0-.47.43,1.31,1.31,0,0,0,.75.3l.67,0q3.34.38,3.88.38a7.53,7.53,0,0,0,2.79-.48,5.07,5.07,0,0,0,1.75-1.13,7.35,7.35,0,0,0,1.95-3.68,23,23,0,0,0,.33-3.54,1.07,1.07,0,0,0-.3-.57q0-.23.1-.27a6.76,6.76,0,0,1,1-.18l1.95-.22A.32.32,0,0,0,298.33,280.72Z" transform="translate(-69.38 -265.37)"/><path class="cls-30" d="M333.3,282.35q0,.95,0,1.45a7.21,7.21,0,0,0-.35,1.18,5.88,5.88,0,0,1-.35,1.7q-.27.33-.78,1.08a5.78,5.78,0,0,1-.73,1.43l-1.46,1.5a3.06,3.06,0,0,0-.38.17,8.07,8.07,0,0,1-.77.58,13.46,13.46,0,0,1-5.19,1.65H321s0,0-.13-.1a6.68,6.68,0,0,1-2.69-.5l-.63-.17q-.67-.27-2-.95a11.65,11.65,0,0,1-3-2.86,10.26,10.26,0,0,1-1.38-2.66,9.26,9.26,0,0,1-.63-2.54,16.35,16.35,0,0,1,.13-3.46q.1-.22.27-.62t.35-1.45q.37-.58,1-1.7a1,1,0,0,0,.08-.43q.08-.08.33,0a1.33,1.33,0,0,0,0-.67,3.76,3.76,0,0,0,.62-.28,2.7,2.7,0,0,1,.63-.85l3-1.56a6.27,6.27,0,0,1,1.31-.43,15.18,15.18,0,0,1,2.76-.47h1.3a10.37,10.37,0,0,1,2.59.28q.58.17,2.56.93l1.31.83a9,9,0,0,1,2.36,2.28,7.24,7.24,0,0,1,1.23,2.4,5.37,5.37,0,0,1,.33.55,9.83,9.83,0,0,1,.42,3,1.46,1.46,0,0,0,.07.31A1.37,1.37,0,0,1,333.3,282.35Zm-3.69.43a13.24,13.24,0,0,0-.81-3.83,11.19,11.19,0,0,0-2-3.51,6.17,6.17,0,0,0-3.56-2.11,9.82,9.82,0,0,0-2.51-.2,8,8,0,0,0-2.26.58q-.12,0-1.51.88a1.83,1.83,0,0,1-.3.4l-.3.1q-.33.43-.83,1.16c0,.13-.12.32-.22.57s-.34.58-.53.95-.26,1-.47,1.85q0,.47,0,1.41a.82.82,0,0,1-.07.22.45.45,0,0,0,0,.23q.23,1.08.67,3a1.21,1.21,0,0,0-.07.32l.33.63a3.83,3.83,0,0,0,.1.57q.7,1.4.73,1.43a6.85,6.85,0,0,0,1.36,1.65s.08.24.22.68l.57.1a9.35,9.35,0,0,0,1.25,1q1.23.73,4.46.45l.7-.22a9.75,9.75,0,0,0,1.58-.55q.23-.22.62-.52a4,4,0,0,0,2-2.54,5.84,5.84,0,0,0,.4-.57q0-.32.1-.75a1.1,1.1,0,0,0,.2-.32q0-.38.17-1.66A8.61,8.61,0,0,0,329.6,282.78Z" transform="translate(-69.38 -265.37)"/><path class="cls-31" d="M348.35,272.06a26,26,0,0,1-.1,4.41,1.12,1.12,0,0,1-.43.67l-.55,0a8.89,8.89,0,0,0-.25-1.66,1.66,1.66,0,0,0-1.09-1.21,15.36,15.36,0,0,0-3.37-.22h-2.89q-.82,0-.81,1.58,0-.2.17,1.75a6.61,6.61,0,0,1-.12,1.36,11,11,0,0,0-.17,1.53,2.63,2.63,0,0,0,.27,1.25h2.2l.54.09a4.55,4.55,0,0,0,.59.09h2.13a2.53,2.53,0,0,0,2.08-1.25q.07-.25.23-.7a1.18,1.18,0,0,1,.73-.13q.08.52.15,1.5,0,1.2-.4,4.74,0,.47-.85.4l-.3-1.36a1.47,1.47,0,0,0-1-1.06,10.51,10.51,0,0,0-2.06-.12h-2.46a1.74,1.74,0,0,1-.8.07.84.84,0,0,0-.78.27,10.11,10.11,0,0,1,0,1.18q0,.15-.25,1a2.81,2.81,0,0,0-.15,1,3.27,3.27,0,0,1,.23.63q0,.3-.06.92t-.06.91a2.47,2.47,0,0,0,.9,2l2.46,1a1.07,1.07,0,0,1-.83.4q1,0-1-.07-1.53,0-3.81-.17a9.21,9.21,0,0,0-1.58,0,5.07,5.07,0,0,1-.6.3L333,292.9a2.08,2.08,0,0,1,.78-.78,3.16,3.16,0,0,0,.81-.72,4.7,4.7,0,0,0,.62-2.18v-4s0-.37,0-1.16,0-1.37,0-1.77q0,.08,0-.58a3.68,3.68,0,0,0,0-.8,2,2,0,0,0-.25-.82,3.33,3.33,0,0,0,.58-2,7,7,0,0,0-.58-2.58q0-.3,0-.8a1.33,1.33,0,0,0-.1-.47,4.47,4.47,0,0,0-1-1.31,1.52,1.52,0,0,0-.85-.25,1.11,1.11,0,0,1-.1-.68l2.28,0,11.21-.12A16,16,0,0,1,348.35,272.06Z" transform="translate(-69.38 -265.37)"/><path class="cls-32" d="M373.43,272.14q-.1.63-.23,1.51v3.86l-.3.05-.3,0q0-.13-.27-2a2.19,2.19,0,0,0-1-1.63q-.37-.27-1.73,0-.68.07-2,.32a.81.81,0,0,0-.57.57A8.89,8.89,0,0,0,367,278a28,28,0,0,1-.12,5.54s.07.75.22,2.29q-.07.8,0,2.4.18.85.53,2.58a1.34,1.34,0,0,0,1.11,1.06l1.53.35a1.43,1.43,0,0,1-.38.73h-9.43q-.13,0-.13-.2s0-.12,0-.27a13.4,13.4,0,0,0,1.51-.48,3.37,3.37,0,0,0,1.28-1.11,5.73,5.73,0,0,0,.23-1.5q.07-2.3.17-4.81v-6H364a.52.52,0,0,0,.12-.15q-.23-.55-.57-1.58,0-.2-.27-2.54h-3.08a2.19,2.19,0,0,0-1.2.53q-.71.53-.78.87a8.19,8.19,0,0,1-.68,2q-.17.28-.75.28a3.82,3.82,0,0,0-.07-.42,1.18,1.18,0,0,1,0-.43,14.93,14.93,0,0,0,.38-2.11q.22-1.73.33-2.33l.53-.7a22.41,22.41,0,0,1,3,0q1,0,3.14.18l2,.18h2.74l1-.17A21,21,0,0,1,372,272l.77-.1Q373.27,271.84,373.43,272.14Z" transform="translate(-69.38 -265.37)"/><path class="cls-33" d="M396.65,272.16a.42.42,0,0,1-.2.33,4.24,4.24,0,0,0-1.2.5,2.77,2.77,0,0,0-.67.77,1.86,1.86,0,0,0-.39.88q0,1.5,0,1.18a11.81,11.81,0,0,0-.3,1.16q0,.2.22,1.71a11,11,0,0,1,.07,1.35q0,1-.11,2.39t-.11,1.31v2.46q0,3.76.88,5.21a1.83,1.83,0,0,0,.73.58,2.62,2.62,0,0,0,1,.33,5.12,5.12,0,0,1-.37.5h-7.77a1.49,1.49,0,0,0-.05-.31,1.47,1.47,0,0,1,0-.29l1-.5q.52-.25,1-1.53a5.8,5.8,0,0,0,.38-1.75V286q0-.25-.12-1.36a5.51,5.51,0,0,1,0-1.36,2.9,2.9,0,0,0-.28-1.3,6,6,0,0,1-2.46.9,4.39,4.39,0,0,1-1.5.07l-.92-.15h-4.19a5.3,5.3,0,0,0-1,.8,1.75,1.75,0,0,0-.17,1.13,6.94,6.94,0,0,1,.3.81q0-.23-.12.92,0,.08.12,2.61.13,2.73,1.88,3.06l.72.27a1.71,1.71,0,0,1-1.28.62,2.85,2.85,0,0,1-.48,0l-.42,0-6.55-.1q0-.3.77-.6a2.86,2.86,0,0,0,1.35-1.08,4.92,4.92,0,0,0,.47-2.06,15.94,15.94,0,0,0,0-2.69l-.2-.37q0-1.28.15-3.81,0-.08.18-.53a1.54,1.54,0,0,0,.13-.63,6.44,6.44,0,0,1-.47-1q0,.2.12-1.1a4.16,4.16,0,0,0-.06-.78q-.08-.52-.08-.58v-2.68a2,2,0,0,0-.75-1.28,3.78,3.78,0,0,0-1.48-1l.37-.57q.6,0,1.86-.12l1.25-.1h3.16a2.15,2.15,0,0,0,.45,0l.32-.05a2.57,2.57,0,0,1,1.16.65l-1.16.58a3,3,0,0,0-1,.85,5,5,0,0,0-.53,2.74v3.56a.55.55,0,0,0,0,.22.51.51,0,0,1,0,.18,3.39,3.39,0,0,0,1.33.35h6.6q.35,0,1,.22l.45.2a1.38,1.38,0,0,0,.52.15.54.54,0,0,0,.2,0,2.3,2.3,0,0,0,.53-1.53,6.72,6.72,0,0,0-.18-1.3,5.37,5.37,0,0,1-.17-1.18,10.34,10.34,0,0,0-.1-1q-.12-.91-.13-1.3-.08-1.61-2.46-2.88.32-.33.48-.33h2.48l1.38,0q1.4,0,2.15,0Z" transform="translate(-69.38 -265.37)"/><path class="cls-34" d="M414.63,287.41q0,.86-.22,2.44-.2.43-.5,1.21-.07.33-.25.93a2.66,2.66,0,0,1-.43.62q-.43.53-.7.53h-4.24l-1.5-.05-1.5,0h-2.56l-1-.09-1-.09h-2.51l-.22-.23a7.87,7.87,0,0,1,1.46-1,1.57,1.57,0,0,0,.87-1.33V285a20.89,20.89,0,0,1,.38-3.44,3.81,3.81,0,0,1-.08-1.66.86.86,0,0,1-.3-.7s.11-.48.33-1.36a1,1,0,0,0-.17-.47l-.25-.43a3.49,3.49,0,0,1-.1-1.1v-1.13a2.44,2.44,0,0,0-.23-.92,1.77,1.77,0,0,0-.81-.77l-1-.45q.23-.55.5-.58.52,0,1.48,0l1-.22H404l1,.1q.94.1,1.42.11l3.33-.22q.72-.05,3.74.1a.54.54,0,0,1,.27.45,1.35,1.35,0,0,1-.11.44,1.34,1.34,0,0,0-.11.42q0,.55-.35,3.65a1.35,1.35,0,0,1-.48.32,18.66,18.66,0,0,1-.62-1.78,1.44,1.44,0,0,0-1.23-1.15l-.75-.17a1.68,1.68,0,0,0-.8,0,13.13,13.13,0,0,1-3.18,0,7.61,7.61,0,0,0-2,.05q-.2.05-.27.38a5.27,5.27,0,0,1,.06,3.46q0-.1,0,.84,0,.23-.07,1a3.83,3.83,0,0,0,0,1,.83.83,0,0,0,.32.43h6.26l.58-.2a1.11,1.11,0,0,0,.65-.52,9,9,0,0,1,.61-1.2.65.65,0,0,1,.68.37q-.07.95-.13,2.43,0,1-.23,2.88-.07.28-.66.18a6.73,6.73,0,0,0-.76-1,3.17,3.17,0,0,0-1.84-.77H407a8,8,0,0,1-.85-.08,8,8,0,0,0-.95-.08q-.88,0-1.11.52a2.39,2.39,0,0,0-.27.9,9.93,9.93,0,0,0,.12,1.13,7.82,7.82,0,0,1,.1,1.28,7.31,7.31,0,0,1-.16.87,5,5,0,0,0-.14,1,1.87,1.87,0,0,0,.07.52,2.26,2.26,0,0,0,.9,1,3.31,3.31,0,0,0,1.35.65l.17.07a1.05,1.05,0,0,0,.3,0h2.76a3.63,3.63,0,0,0,1.56-.3,5.24,5.24,0,0,0,1.71-1.33,3.42,3.42,0,0,0,1-2A1.27,1.27,0,0,1,414.63,287.41Z" transform="translate(-69.38 -265.37)"/><path class="cls-35" d="M453.47,297c0,.13,0,.27,0,.4a.36.36,0,0,1-.24.32,5,5,0,0,1-.86.16,8.28,8.28,0,0,0-.91.25,3.51,3.51,0,0,1-.95.2l-.22,0a1.08,1.08,0,0,1-.32-.19q-.28-.2-.23-.33a1,1,0,0,0-.7.05l.85.5a2.88,2.88,0,0,1-1.68-.24q0-.16.12-.48l-.1-.07a12.77,12.77,0,0,0-1.4-.16s0,0-.12.08l.38.18a1.9,1.9,0,0,1-.95-.1l-.4-.52q-.38-.43-.68-.37a21,21,0,0,0-1.81-1.91,5.91,5.91,0,0,1-1.29-1.46,2.36,2.36,0,0,1-.42-.35,6.65,6.65,0,0,1-.6-1,.29.29,0,0,0-.27-.18,2.5,2.5,0,0,0-1-1.28.33.33,0,0,0,0-.35l-.84-1a1.93,1.93,0,0,1-.56-1.15.84.84,0,0,1,0-.17s.16,0,.37,0l.25.18a1.14,1.14,0,0,0,.58-.27,9.9,9.9,0,0,1,.78.81.28.28,0,0,0,.25-.3q0-.43-.48-.42a.47.47,0,0,0,.07-.12.23.23,0,0,1,.07-.1l.33.23a.22.22,0,0,0,.2-.1,1.23,1.23,0,0,0,0-.5,1.41,1.41,0,0,0-.93-.33,4.13,4.13,0,0,0-.88.14,4.09,4.09,0,0,1-.83.14,1.09,1.09,0,0,1-.55-.13,1.66,1.66,0,0,1-.77-1.16l-.22-.18,0-.13a.57.57,0,0,0-.28-.47.94.94,0,0,0-.53-.2q-.95,0-2.56,0h-2.56a.13.13,0,0,0-.15.15,7.65,7.65,0,0,0,0,1.1v2.14q.07,1.86.07,2.33a1,1,0,0,1-.07.27.52.52,0,0,0,0,.32,4,4,0,0,1,.35.7,6.16,6.16,0,0,1,.12,1.56l-.75.53a.15.15,0,0,0,0,.13,21.29,21.29,0,0,1,3,.38l.5.17a2.45,2.45,0,0,1,0,.68.82.82,0,0,1-.47.2q-.5,0-2.66-.32l-3.61-.07a8.47,8.47,0,0,1-1.1.2q-1.18,0-2.81.05,0-.28,0-.82a13.42,13.42,0,0,1,1.55-.48,2.33,2.33,0,0,0,1.13-.87,2.44,2.44,0,0,0,.63-1.22q.22-2.31.22-2.53V277.58s0-.18,0-.4a3.77,3.77,0,0,1-.05-.45,7.76,7.76,0,0,1,.07-1q.08-.8.08-1.26,0-.2-.07-.77a7.9,7.9,0,0,1-.08-.92q0-.48-.18-1.41-.12-.23-.32-.72t-1.31-.9l-.52-.22-.85,0q-.4-.27-.12-.8.48-.12,1.43-.27,2.69-.22,3.11-.22H430l.94-.1,1-.1h1.33l.53,0,.72.07a7.15,7.15,0,0,1,.91-.12,39.09,39.09,0,0,1,3.88.72,12,12,0,0,1,3.23,2.13.42.42,0,0,1,0,.37,5,5,0,0,1-1.14.73,4.59,4.59,0,0,0-1.16.76q0,.2.38.25a1.27,1.27,0,0,0,.55,0,.5.5,0,0,1,.2-.22,4.39,4.39,0,0,1,.67-.08,1.42,1.42,0,0,0,.38.58.34.34,0,0,0,.27-.35.7.7,0,0,0-.25-.47.89.89,0,0,1,.48,0,2.28,2.28,0,0,0,.62.1q.17.86.35,1.73a10.29,10.29,0,0,1,.23,1.95,4.62,4.62,0,0,1-.15,1.21,22.34,22.34,0,0,1-1,2.66,17.31,17.31,0,0,1-1.63,2.21s-.54.44-1.56,1.21a12.78,12.78,0,0,0,1.31,1.95,10.28,10.28,0,0,1,1,1.51,10.23,10.23,0,0,0,.62,1,2.29,2.29,0,0,0,.12.3q.93,1.13,2.68,3.38a.18.18,0,0,1,0,.18q.7.53,1.75,1.51.47.47,1.28,1.41-.53,0-.53.5a.59.59,0,0,0,.42.58q.08-.6.52-.6l.13,0s.32.14.81.38l2.23,1.1A3.71,3.71,0,0,0,453.47,297ZM440.1,277.18q-.45-.15-.45-.45V275a.58.58,0,0,0,0-.21l-.07-.17a5.14,5.14,0,0,0-1.07-2.41,3.86,3.86,0,0,0-2.22-1.71,3.56,3.56,0,0,0-.45-.22q-1.68-.35-1.9-.35h-1.47a5,5,0,0,0-1.52.22,2.67,2.67,0,0,0-.38.4,9,9,0,0,1,.12,1.1.34.34,0,0,1-.06.1.29.29,0,0,0-.06.17v2.31a.83.83,0,0,1-.1.29.59.59,0,0,0-.08.31q.08.4.18.78a1.28,1.28,0,0,1,0,.77,5,5,0,0,0,0,2.08q0-.27,0,.78v2.38a3.52,3.52,0,0,1,0,.53,1.55,1.55,0,0,0,0,.38,3.27,3.27,0,0,0,.22.58q.4.12,1.16.28l3.24.07,1.56-.62a7.06,7.06,0,0,0,1-.43,6.61,6.61,0,0,0,1.4-1.68,5.47,5.47,0,0,0,.53-1.7q0-.32.12-1,0-.25.12-.65T440.1,277.18Zm-1,10.3c-.13.16-.26.22-.38.18a.35.35,0,0,1,.23-.27Z" transform="translate(-69.38 -265.37)"/><path class="cls-36" d="M454,273.72q-.07.25-.22.7l-1,.22a1,1,0,0,0-.8.57q-.13.2-.33.57,0,.12-.43,1.93l-.07,7q-.12.43-.12.47l.12.35v2.58a4.54,4.54,0,0,0,0,1.46,5.12,5.12,0,0,0,.46,1.76,1.51,1.51,0,0,0,.57.52,3.24,3.24,0,0,0,1.71.48,2.39,2.39,0,0,1-.18.63h-1.93l-.57,0-.56,0-.45,0-.43,0-.31,0-.32,0-.22,0-.22,0-3.48.08q-.45,0-.45-.33t.23-.45l1.06-.18a1.15,1.15,0,0,0,.8-.45l.2-.62q.23,0,.72.1a5,5,0,0,0,.17-.88,1.18,1.18,0,0,0-.17-.5.8.8,0,0,0,0-.57,4.31,4.31,0,0,0-.32-.57,1.84,1.84,0,0,1-.22-.4,5.17,5.17,0,0,0,.3-1,.56.56,0,0,0-.12-.38,1.64,1.64,0,0,0,.28-.63s0-.38-.08-1.08a.93.93,0,0,0-.12-.32,1.08,1.08,0,0,1-.12-.28s0-.12.15-.23q0,.07,0-.18v-2a1.74,1.74,0,0,1,.07-.3,1.72,1.72,0,0,0,.08-.3.34.34,0,0,0-.05-.12.33.33,0,0,1,0-.14s0-.21,0-.75q0-.17,0-.93v-1.31a1.12,1.12,0,0,0-.23-.53,1.23,1.23,0,0,0-.1-.68,4.56,4.56,0,0,0-.13-.7,5.08,5.08,0,0,1-.33-.43q-.07-.17-.23-.5a1.84,1.84,0,0,0-.64-.67q-.39-.1-1.15-.37a4.73,4.73,0,0,1,.18-.6h.15l.31,0,.31,0Z" transform="translate(-69.38 -265.37)"/><path class="cls-37" d="M477,272.59l-.92.16a1.68,1.68,0,0,0-1,.8,5,5,0,0,0-.63,1.8,18.62,18.62,0,0,0-.22,2.5s0,.52.07,1.44.07,1.4.07,1.46v2.64a2.83,2.83,0,0,0,.06.33,1.52,1.52,0,0,1,0,.43q-.1,2-.1,2.26a4.23,4.23,0,0,0,.07.54c0,.27.07.43.07.47v5.11q0,.1,0,.11s0,0,0,0a8.18,8.18,0,0,0-1,.2,1.52,1.52,0,0,1-.86-.15,46.49,46.49,0,0,1-3.39-3.73q-.4-.53-1.2-1.53-.7-.68-1.9-2-.3-.5-1-1.48-1.5-1.81-4.24-5.34a12.61,12.61,0,0,1-1-.9,1.71,1.71,0,0,0-.1-.33q-.2-.32-.67-.95a.54.54,0,0,0-.35.52s.08.56.23,1.7a.86.86,0,0,1,0,.31,1.51,1.51,0,0,0-.05.27q0,.67.06,2.06t.06,1.36V285q0,.1,0,1.7t0,1.68q0,3.48,2.48,3.66s.07,0,.12.14a.93.93,0,0,0,.11.17,1,1,0,0,1-.08.5h-5.8l-.61.08-.62.08h-.27c-.1-.1-.15-.16-.15-.18a.81.81,0,0,1,.37-.78,13,13,0,0,0,1.26-.5,1.9,1.9,0,0,0,1-1.43,7,7,0,0,0,.18-2.94.43.43,0,0,1,0-.4l.13-.17-.1-.15a4.51,4.51,0,0,1,0-.64q0-.46,0-.66a5.81,5.81,0,0,0-.09-.8,5.81,5.81,0,0,1-.09-.8,7.59,7.59,0,0,0,.07-1l-.15-.33.08-.08a.81.81,0,0,0,.08-.37.11.11,0,0,0,0-.12q-.23-1.88-.23-2.53v-2.3q-.12-2-.12-2.4a.87.87,0,0,1,.06-.22.62.62,0,0,0,0-.28,3.81,3.81,0,0,0-3.18-1.2l-.08-.08v-.55q.18-.22.9-.22l1.34.07,1.34.07,1.24-.07,1.26-.07a1.7,1.7,0,0,1,.47,0,3.94,3.94,0,0,1,1,1.08q1.38,1.95,4.16,5.79l1.7,2.13q-.2,1.46.42,1.46a.81.81,0,0,0,.27-.1.78.78,0,0,1,.28-.1q.22,0,.58.62l.35.62a6.92,6.92,0,0,1,1.51,1.5q.07.28.23.83.13.18.22.18a.27.27,0,0,0,.17-.07l.1-.07q.45.48,1.21,1.41c.19-.09.28-.17.28-.25a1.06,1.06,0,0,0-.07-.28,1.05,1.05,0,0,1-.07-.28v-1.78a1.68,1.68,0,0,0,0-.24,2.71,2.71,0,0,1,0-.41,6.51,6.51,0,0,0,.1-.9q-.08-.48-.22-1.41a1.42,1.42,0,0,1,0-.5c0-.24.07-.38.07-.42a1.53,1.53,0,0,0,0-.27,1.45,1.45,0,0,1-.05-.29,5,5,0,0,1,0-.81q0-.65,0-.87a1,1,0,0,0-.08-.28,1.76,1.76,0,0,1-.09-.3l.07-.45a2,2,0,0,0-.06-.52,3.3,3.3,0,0,1-.07-.58,1.49,1.49,0,0,1,.07-.3.89.89,0,0,0,0-.33q-.1-.68-.35-2-.23-.86-1.9-1.15a1.42,1.42,0,0,0-.07-.6,2.56,2.56,0,0,1,1.18-.15l3,.12,1.5-.07A4,4,0,0,1,477,272Zm-6.17,12.7-.15.18-.1-.1.08-.35Q470.95,285.3,470.83,285.3Z" transform="translate(-69.38 -265.37)"/><path class="cls-38" d="M494.29,272.09a1.22,1.22,0,0,1,0,.3,8.9,8.9,0,0,1-.16,1.28A8.84,8.84,0,0,0,494,275q0,.23,0,.43a6,6,0,0,0-.15.83q.13.67.15.52a2.49,2.49,0,0,1-.15.25q0,.17.1.95a1.16,1.16,0,0,1-.75.4q-.13,0-.3-.2A4.87,4.87,0,0,0,493,277a7.24,7.24,0,0,0-.2-.75,5.73,5.73,0,0,0-1.23-1.61,6.41,6.41,0,0,0-1.63-.88,8.07,8.07,0,0,0-1.08-.23,11.6,11.6,0,0,0-1.76-.1,7.3,7.3,0,0,0-5.17,1.75,3.41,3.41,0,0,0-.67.52,8.16,8.16,0,0,0-1.65,3.91q-.08.8-.08,2.63v1.1a5.26,5.26,0,0,1,.23.88,10.91,10.91,0,0,0,.17,1.4,2.24,2.24,0,0,1,.33.5,3,3,0,0,0,.12.57l.72.95a6.05,6.05,0,0,0,.23.57,5.89,5.89,0,0,0,2.31,2.26A5.32,5.32,0,0,0,485,291a25.23,25.23,0,0,0,4.21.77,3.63,3.63,0,0,0,.85-.1,2.75,2.75,0,0,0,.58-.2l.08-.65a.31.31,0,0,0-.22-.32.7.7,0,0,1-.4-.27,1.59,1.59,0,0,1,0-1v-2.64a7.39,7.39,0,0,0-.28-1.51,1.78,1.78,0,0,1-.27-.32,1.64,1.64,0,0,0-1.21-1.13,9.18,9.18,0,0,0-1.63-.13l-.15-.12v-.43a5,5,0,0,1,1.36-.13l1.16.09,1.16.09a1,1,0,0,0,.28-.07l.3-.09,1.13-.08q2.35,0,2,0v.71a1.58,1.58,0,0,1-.15.35,2.67,2.67,0,0,0-.22.48,11.72,11.72,0,0,0-.33,2.33q-.07,1.49-.07,2.06a27.28,27.28,0,0,0,.25,3.16,20.8,20.8,0,0,1-4,1.06,5.86,5.86,0,0,0-.81,0,5.72,5.72,0,0,1-1,.17,1,1,0,0,1-.25,0l-.23,0a23.24,23.24,0,0,1-2.84-.28q-.43-.17-1.28-.42a8.37,8.37,0,0,1-3.71-2.13,8,8,0,0,1-2.59-3.61q-.15-.38-.38-1.15-.13-.25-.35-.75a6,6,0,0,1-.2-1.38s0-.17.08-.61a2.15,2.15,0,0,0,0-.8,2.31,2.31,0,0,1-.07-.56,6.71,6.71,0,0,1,.28-1.61q.33-1.3.4-1.74,1.63-2.94,2-2.94a.11.11,0,0,1,.1.06.12.12,0,0,0,.12.06.7.7,0,0,0,.45-.13,3.28,3.28,0,0,1,.27-.55q1.55-1.71,1.88-1.71a.16.16,0,0,1,.12,0,.13.13,0,0,0,.1,0,1.1,1.1,0,0,0,.36-.22,1,1,0,0,1,.37-.22.46.46,0,0,1,.19.07.45.45,0,0,0,.19.07q.08,0,1.48-.35t1.48-.35h4.27l1.53.16,1.53.16h1.4Z" transform="translate(-69.38 -265.37)"/><path class="cls-39" d="M509.22,287.51a5.41,5.41,0,0,1-.39,1.44,7,7,0,0,1-.57,1.32,11.79,11.79,0,0,1-1.66,1.66,4,4,0,0,1-1.26.63,12.73,12.73,0,0,1-3.81.63l-.63,0a6.89,6.89,0,0,0-.88,0q.05.15.05-.58a1.52,1.52,0,0,0-1.1-.4.65.65,0,0,0-.47.22,3.94,3.94,0,0,0,.5.23.39.39,0,0,1-.4.3,8.16,8.16,0,0,1-1.41-.27,6.52,6.52,0,0,1-2.08-.8,3.29,3.29,0,0,1-.33-1.33,18.34,18.34,0,0,1-.13-2.41,13.57,13.57,0,0,1,.13-2.11,2.33,2.33,0,0,0,.53-.07,1,1,0,0,1,.12.63q0,.6,0,.58l.25,1.18a3.39,3.39,0,0,0,.45.73,8.21,8.21,0,0,0,.9,1.1,3.9,3.9,0,0,0,1.48.67l1,.32a3.92,3.92,0,0,0,1,.18.57.57,0,0,0,.25.1l.2,0,.2,0a5.56,5.56,0,0,1,.63.12l.62.13a.94.94,0,0,0,.32-.19,1.31,1.31,0,0,1,.39-.22l1.36-.28q.47-.1.75-.9l.33-.63a3,3,0,0,1,0-.37,2.46,2.46,0,0,1,.2-.42,1.19,1.19,0,0,0,.17-.38,3.23,3.23,0,0,0-.15-1,7,7,0,0,0-.68-1.18l-.53-.38a9.17,9.17,0,0,0-2.79-1.61q-.37-.22-1.06-.58a22.38,22.38,0,0,1-2.68-1.5l-.38-.17a7.5,7.5,0,0,1-1-1.08q-.77-1-.83-1,0-.23,0-.7-.1-.17-.28-.55,0-.35,0-1a.41.41,0,0,0,.1-.23q-.18-.43-.18-.42s.12-.24.35-.78a7.43,7.43,0,0,1,.23-1,6.68,6.68,0,0,1,.88-.95,1.72,1.72,0,0,1,.35.18,3.12,3.12,0,0,1,.2-.55,6.8,6.8,0,0,1,2.81-1.8,11.87,11.87,0,0,1,2.81-.27l1.68.18,1.68.18.74-.09.76-.09c.31,0,.47.13.47.4l-.25,2.74v1.45s0,.22,0,.58,0,.63,0,.8l-.11.07a.3.3,0,0,1-.17.07h-.38q0-.53-.22-1.51a3.39,3.39,0,0,0-2.15-2.54,10.11,10.11,0,0,0-3-.3,5,5,0,0,0-1.36.33,3.29,3.29,0,0,0-1.58,1.45,1.63,1.63,0,0,0-.27.9,4.59,4.59,0,0,0,.52,1.88l.6.55a10.41,10.41,0,0,0,3.41,2.08,12.17,12.17,0,0,1,5,3.23,3.59,3.59,0,0,1,.7,1.51A9.87,9.87,0,0,1,509.22,287.51Z" transform="translate(-69.38 -265.37)"/></g></svg>