<svg id="Layer_8" data-name="Layer 8" xmlns="http://www.w3.org/2000/svg" viewBox="0 0 434.82 246.34"><defs><style>.cls-1{fill:#95a24b;}.cls-2{fill:#485828;}.cls-3{fill:#93a63b;}</style></defs><title>mona</title><path class="cls-1" d="M589.25,345.25h.29c3.38,0,6.76-.05,10.13-.16.9-1.16,1.79-2.33,2.71-3.49q-6,.11-12-.1l-.69,2.23C589.57,344.23,589.41,344.74,589.25,345.25Z" transform="translate(-446.9 -235.44)"/><path class="cls-1" d="M580.14,345l1.35-4q-3.12-.24-6.21-.58l-2.5,4.09C575.23,344.75,577.69,344.9,580.14,345Z" transform="translate(-446.9 -235.44)"/><path class="cls-1" d="M616.64,344c.53-1.07,1.09-2.11,1.64-3.15q-2.79.21-5.58.36c-.86,1.11-1.73,2.21-2.58,3.32C612.29,344.39,614.47,344.21,616.64,344Z" transform="translate(-446.9 -235.44)"/><path class="cls-1" d="M552.16,336.2c-.73,1.58-1.48,3.17-2.29,4.76l.4.11,4.33.92.75.15,2.75-4.5c-.8-.18-1.61-.35-2.41-.55Z" transform="translate(-446.9 -235.44)"/><path class="cls-1" d="M869.37,357a36.68,36.68,0,0,0-3.66-8.84,39.16,39.16,0,0,0-5.81-7.56,89.15,89.15,0,0,0-29.62-20.21,94.71,94.71,0,0,0-17.16-5.27,124.15,124.15,0,0,0-17.64-2.29,199.08,199.08,0,0,0-35.08,1.6c-5.79.71-11.53,1.64-17.26,2.61-2.86.53-5.72,1-8.56,1.61l-4.27.82-4.26.88c-11.36,2.36-22.63,5-33.89,7.74-5.63,1.41-11.25,2.69-16.87,4-2.81.68-5.65,1.2-8.47,1.8s-5.65,1.21-8.49,1.69L649.8,337c-2.84.48-5.7.86-8.55,1.29-1.43.21-2.85.43-4.28.62l-1.54.18c-.47,1-.94,1.89-1.39,2.83,8.28-1.15,16.53-2.5,24.72-4.15,2.86-.49,5.68-1.16,8.52-1.74s5.68-1.16,8.49-1.86l16.89-4c2.81-.68,5.62-1.33,8.44-2l8.46-1.87c5.66-1.17,11.32-2.29,17-3.3a342,342,0,0,1,34.24-4.51,195.5,195.5,0,0,1,34.22.1,107.28,107.28,0,0,1,32.48,8.19,89,89,0,0,1,27.16,18.94,32.53,32.53,0,0,1,4.82,6.09,31,31,0,0,1,3.2,7.05,37.49,37.49,0,0,1,1.21,15.75,48.29,48.29,0,0,1-4.8,15.65,35.18,35.18,0,0,1-10.51,12.91l.37.71a26.4,26.4,0,0,0,7.54-4.8,39.43,39.43,0,0,0,6-6.79,46.25,46.25,0,0,0,7.2-16.7A40.35,40.35,0,0,0,869.37,357Z" transform="translate(-446.9 -235.44)"/><path class="cls-1" d="M526.84,332.29a80.6,80.6,0,0,0,10.66,4.9c1.39.54,2.82,1,4.22,1.45l2.12.7.17.05c.86-1.65,1.68-3.3,2.45-4.92l-1-.3-2-.75c-1.31-.51-2.65-.95-3.93-1.52a72.17,72.17,0,0,1-11.11-5.78Z" transform="translate(-446.9 -235.44)"/><path class="cls-2" d="M690,267.35a80.41,80.41,0,0,0-14.56,7.71,182.54,182.54,0,0,0-28.32,20.54A326.91,326.91,0,0,0,621.24,321q-12.32,13.47-23.16,27.74t-19.73,27.66q5.39-16.59,10.41-33t10.85-31.16a194.91,194.91,0,0,1,13-26.94A76.74,76.74,0,0,1,629.47,265l2.47-1.46q-10.77.44-20.75,7.64a108.19,108.19,0,0,0-19.44,18.57,248.87,248.87,0,0,0-18.64,25.78q-9.18,14.42-18.27,29.34T536.56,374a229.36,229.36,0,0,1-18.71,25.27A98,98,0,0,1,498.26,417a36.38,36.38,0,0,1-21,6.56q-8.3-.15-13.18-3.43a17.75,17.75,0,0,1-6.91-8.73,30.1,30.1,0,0,1-1.6-12.53,63.14,63.14,0,0,1,2.76-14.63A100,100,0,0,1,464.55,369a97.78,97.78,0,0,1,8.67-14.27,176.45,176.45,0,0,1,11.65-14.49q6.4-7.22,13.17-13.76c3-2.94,6.1-5.72,9.18-8.38-.22-.3-.44-.6-.65-.91l-.44-.65c-.32-.47-.64-.93-.93-1.41l-.05-.1-1.13-2.1a16.49,16.49,0,0,1-.9-1.78,165.57,165.57,0,0,0-15.56,11.47,147.83,147.83,0,0,0-14.42,13.69,86.18,86.18,0,0,0-11,14.63q-8.88,14.85-11.58,28.76t-.14,24.68q2.54,10.78,9.68,17.26T478,428a57.13,57.13,0,0,0,21.48-4.36,83.13,83.13,0,0,0,19.22-11.36A125.57,125.57,0,0,0,536,395.71,247.64,247.64,0,0,0,551.41,376q7.29-10.34,13.84-21l12.52-20.46q4.8-7.87,9.54-16.09t9.61-16.1q4.88-7.86,10.05-14.92a116.93,116.93,0,0,1,10.7-12.74,104.09,104.09,0,0,0-14.27,19,202,202,0,0,0-11.14,22q-5,11.58-9.17,23.81t-8.23,24.46q-4.08,12.24-8.3,24a202.33,202.33,0,0,1-9.47,22.28q-1.61,2.91-3.27,5.68T551,421a15.15,15.15,0,0,0,7.5-2,20,20,0,0,0,5.09-4.44,31.38,31.38,0,0,0,3.64-5.68q1.53-3.06,3.13-5.68,7.29-13.11,15.88-26.43t18-26.14q9.47-12.81,19.66-24.83t20.68-22.35a216.73,216.73,0,0,0-14.56,19.66q-6.27,9.61-10,16.6a219.23,219.23,0,0,0-9.47,20,182.48,182.48,0,0,0-7.2,20.75,106.26,106.26,0,0,0-3.64,19.3,38.64,38.64,0,0,0,1.38,15.65,16.93,16.93,0,0,0,7.86,9.76q5.69,3.19,15.88,1.6a15.39,15.39,0,0,1-8-6.92,26.73,26.73,0,0,1-3.13-11,56.76,56.76,0,0,1,.65-13.62,119.88,119.88,0,0,1,3.28-14.63q2.1-7.29,4.58-14.05T627,354.72q3.19-7.29,7.57-16.09t9.9-17.91q5.53-9.11,12.16-18.13a150.44,150.44,0,0,1,14.27-16.75,112.17,112.17,0,0,1,16.39-13.69,69.36,69.36,0,0,1,18.49-9A67.35,67.35,0,0,0,690,267.35Z" transform="translate(-446.9 -235.44)"/><path class="cls-2" d="M495.86,348.75a45.18,45.18,0,0,0-6.41,7.93,47,47,0,0,0-4.51,9,31.54,31.54,0,0,0-2,8.81,14.9,14.9,0,0,0,1.24,7.5,10.63,10.63,0,0,0,5,4.95q3.5,1.74,9.47,1.16a36.56,36.56,0,0,0,12.6-4.44,65.44,65.44,0,0,0,11.28-8.08,88.34,88.34,0,0,0,9.68-10.05q4.44-5.39,7.94-10.34a118.14,118.14,0,0,0,8.59-14.27,125.58,125.58,0,0,0,6.34-14.49,80.57,80.57,0,0,0,3.64-13.32,33.63,33.63,0,0,0,.36-10.92,12.57,12.57,0,0,0-3.42-7.28c-1.8-1.75-4.39-2.53-7.79-2.33A45.22,45.22,0,0,0,535.4,295a115.72,115.72,0,0,0-15.22,6.34c-2.41,1.19-4.83,2.49-7.28,3.86l.12.32a15.11,15.11,0,0,0,.94,2.3l0,.1.82,1.7c.17.31.37.61.56.91l.37.6c3.17-2.43,6.25-4.64,9.22-6.59a82.26,82.26,0,0,1,11.8-6.55,26.53,26.53,0,0,1,9.25-2.55q6.54-.87,8.66,4t.44,13.4a93.43,93.43,0,0,1-6.63,19.59,157.66,157.66,0,0,1-12.67,22.71,73.88,73.88,0,0,1-8.37,10.56A92.56,92.56,0,0,1,517.41,375a69.85,69.85,0,0,1-10,6.7,25.27,25.27,0,0,1-8.52,3.06q-7.12.72-9.68-2.41t-1.67-8a30.9,30.9,0,0,1,4.29-10.48,41.14,41.14,0,0,1,8.23-9.76,27.63,27.63,0,0,1,10.27-5.75,12,12,0,0,1,10.26,1.46,8.07,8.07,0,0,0-1.09-3.5,14.45,14.45,0,0,0-2.18-2.84,9.59,9.59,0,0,0-2.63-1.89,6,6,0,0,0-2.54-.66,18.19,18.19,0,0,0-8.45,2.19A32.11,32.11,0,0,0,495.86,348.75Z" transform="translate(-446.9 -235.44)"/><path class="cls-2" d="M631.55,386.84q1.66-3,4-6.46a69.06,69.06,0,0,1,5.24-7,48.81,48.81,0,0,1,6.52-6.33,27.7,27.7,0,0,1,7.68-4.41,11.46,11.46,0,0,1,3.84-1c1.19-.09,2.43-.22,3.71-.39,3.24.09,5.64,1.07,7.22,2.94a12.24,12.24,0,0,1,2.62,7.42A32.34,32.34,0,0,1,671,382.1a73.12,73.12,0,0,1-4.61,12,78.7,78.7,0,0,1-7.1,11.83A66.26,66.26,0,0,1,650.35,416q4.86,1.78,11.26-.77c4.18-1.53,8.22-6,10.78-10,5.34-8.45,4.54-7.65,7.74-11.66,1.92-2.4-.36,6.72-1.6,9.62a28.8,28.8,0,0,1-5.22,7.48,31.77,31.77,0,0,1-6.77,5.88,24.21,24.21,0,0,1-7.74,3.33,18.62,18.62,0,0,1-6.4.38,13.37,13.37,0,0,1-5-1.66,40.55,40.55,0,0,1-7.74,4.73,20.44,20.44,0,0,1-7.86,1.92,5.56,5.56,0,0,1-4.61-1.92c-1.79-1.54-2.79-3.9-3-7.1A39.25,39.25,0,0,1,625,406a77.48,77.48,0,0,1,2.95-10.68A55.17,55.17,0,0,1,631.55,386.84Zm12.92,29.54a17.35,17.35,0,0,1-4.54-8.76,31.68,31.68,0,0,1-.32-11.58v-.51a90,90,0,0,0-4.09,9.4,55.86,55.86,0,0,0-2.37,8.06,14.39,14.39,0,0,0-.26,5.57c.3,1.36,1.05,2,2.24,2a10.57,10.57,0,0,0,4.67-1.15A23,23,0,0,0,644.47,416.38ZM658.16,399a95.66,95.66,0,0,0,5.43-10.49,84.85,84.85,0,0,0,3.71-9.85,31.28,31.28,0,0,0,1.47-7.61c.09-2.09-.34-3.43-1.28-4a4.07,4.07,0,0,0-1.15-.26,12.21,12.21,0,0,0-5.31,1.67,28,28,0,0,0-5.43,4,51.56,51.56,0,0,0-5.31,5.81,76.06,76.06,0,0,0-4.92,7,34.93,34.93,0,0,0-2.24,6,33.88,33.88,0,0,0-1.09,6,25.68,25.68,0,0,0,.77,9.79A14.56,14.56,0,0,0,646.9,414a38.48,38.48,0,0,0,3.9-4.28c1.24-1.58,2.45-3.22,3.65-4.93a28.73,28.73,0,0,0,1.66-2.68C656.62,401.12,658.16,399,658.16,399Z" transform="translate(-446.9 -235.44)"/><path class="cls-2" d="M713.28,380.31c.09-.25.56-1.13,1.41-2.62a38.06,38.06,0,0,0,2.3-4.8,15.05,15.05,0,0,0,1.16-4.6,1.7,1.7,0,0,0-1.92-2.05q-2.57,0-6.85,4a92.37,92.37,0,0,0-8.89,9.85q-4.61,5.82-8.82,12.28t-6.91,11.32c-1.53,3-2.73,5.48-3.58,7.48a32.37,32.37,0,0,0-1.79,5.25,12.82,12.82,0,0,0-.32,4.15,19.81,19.81,0,0,0,1,4.22,11.18,11.18,0,0,1-5-4.66q-1.78-3.14-1.34-8.64a57.78,57.78,0,0,1,3.45-13.94A155.11,155.11,0,0,1,686.68,377q1.53-2.94,2.81-6.08a45.58,45.58,0,0,0,2-6.14,25.07,25.07,0,0,0,.83-5.56,9.1,9.1,0,0,0-.83-4.35,8,8,0,0,1,4.48,3.83,17.76,17.76,0,0,1,1.92,6.78,33.41,33.41,0,0,1-.45,8.77,49.56,49.56,0,0,1-2.75,9.65q3.06-4.22,6.46-8.38A77.69,77.69,0,0,1,708,368.1a40.67,40.67,0,0,1,6.72-5.25,13,13,0,0,1,6.07-2.11q3.58-.12,5.25,1.86a8.5,8.5,0,0,1,1.85,5,20.2,20.2,0,0,1-.77,6.59,32.84,32.84,0,0,1-2.49,6.46l-15.09,27.37q-4.49,8.19-4,11.06t7-.57a34.78,34.78,0,0,0,6-4.22,48.36,48.36,0,0,0,6.2-6.34,42.81,42.81,0,0,0,4.86-7.29c1.32-2.51,5.44-12.89,6.21-12a5.27,5.27,0,0,1,1,3.71,20.24,20.24,0,0,1-2.05,7.23,38.58,38.58,0,0,1-4.67,7.42,52.61,52.61,0,0,1-6.58,6.91,60.23,60.23,0,0,1-7.68,5.75,43.2,43.2,0,0,1-7.93,4,21.37,21.37,0,0,1-7.42,1.47c-3.15-.09-4.69-2-4.6-5.82s2.05-9.45,5.88-16.95Z" transform="translate(-446.9 -235.44)"/><path class="cls-2" d="M759.2,425.21q-7-.25-3.58-11.64A44.21,44.21,0,0,1,750.7,418a48.07,48.07,0,0,1-5.25,3.59,25.32,25.32,0,0,1-5.31,2.36,14.63,14.63,0,0,1-5.11.71,6.31,6.31,0,0,1-4.73-2.63,12.05,12.05,0,0,1-1.92-5.62,28.75,28.75,0,0,1,.25-7.55,71.84,71.84,0,0,1,1.79-8.25q1.16-4.09,2.56-7.74a43.52,43.52,0,0,1,2.82-6.07q1.91-3.46,4.79-7.74a57,57,0,0,1,6.65-8.13,42.73,42.73,0,0,1,8.32-6.58,21.82,21.82,0,0,1,9.91-3.14c3.5-.25,6,.45,7.55,2.11a10.22,10.22,0,0,1,2.68,5.95,29.42,29.42,0,0,0,.71-5.37,8.9,8.9,0,0,0-.83-4.22,15.55,15.55,0,0,1,6.33,2.3,8.6,8.6,0,0,1,3.64,5.31q.9,3.53-.51,8.95a52.09,52.09,0,0,1-6,13.11l-10.75,18.68q-4.6,8.06-4.09,11t7-.51a34.78,34.78,0,0,0,6-4.22,49,49,0,0,0,6.2-6.34,42.81,42.81,0,0,0,4.86-7.29,15.34,15.34,0,0,0,2-7.1,9,9,0,0,0-1-4.15,6.59,6.59,0,0,0-3.32-3,6.19,6.19,0,0,1,2.55-.32,11.22,11.22,0,0,1,3.27.64,6.33,6.33,0,0,1,2.75,2,5.27,5.27,0,0,1,1,3.71,20.24,20.24,0,0,1-2,7.23,38.58,38.58,0,0,1-4.67,7.42,52.61,52.61,0,0,1-6.58,6.91,60.94,60.94,0,0,1-7.68,5.75,43.2,43.2,0,0,1-7.93,4A21.42,21.42,0,0,1,759.2,425.21Zm9.4-38.63q.45-.76.84-1.47l.76-1.41a18.38,18.38,0,0,0,.9-2c.25-.77.66-2,1.21-3.58a28.41,28.41,0,0,0,1.22-4.93,10.55,10.55,0,0,0-.13-4.35,2.93,2.93,0,0,0-2.81-2.11q-4.74.27-9.47,4.36a56.25,56.25,0,0,0-9,10.07,90.48,90.48,0,0,0-7.61,12.95A119.3,119.3,0,0,0,739.12,407a42.22,42.22,0,0,0-2.37,9.88q-.32,4,1.6,4a12,12,0,0,0,4.93-1.35,28,28,0,0,0,6.07-4,45.21,45.21,0,0,0,6.4-6.81,63.49,63.49,0,0,0,6.14-9.76C762.4,397.79,768.3,387.09,768.6,386.58Z" transform="translate(-446.9 -235.44)"/><path class="cls-2" d="M813.86,343.68c-2.54,7.66-8.76,19.81-11.29,24l-7.16.9c10.5-21.48,9.7-26.29,7.54-30.06l6.25-.62A4.44,4.44,0,0,1,813.86,343.68Z" transform="translate(-446.9 -235.44)"/><path class="cls-2" d="M838.25,361.38a21.47,21.47,0,0,0-5.06,1.92q-2.75,1.41-5.43,3.13c-1.79,1.15-3.48,2.33-5,3.52s-2.93,2.26-4,3.2a17.12,17.12,0,0,0-3.9,4.48,9.66,9.66,0,0,0-1.35,4,5.38,5.38,0,0,0,.71,3.2,6.72,6.72,0,0,0,2.23,2.3,5.62,5.62,0,0,1,.58-3.64A24.23,24.23,0,0,1,819.7,379a40.91,40.91,0,0,1,4.22-4.73q2.43-2.37,5-4.54l-1.15,2.3a26,26,0,0,0-1.41,3.64c-.34,1.15-.64,2.35-.89,3.58s-.52,2.58-.77,4-.61,3-1.09,4.74a17.33,17.33,0,0,1,9.69,5.26c1-4.57,2.33-10.65,2.66-12.43a52.59,52.59,0,0,1,2.11-8.06,34.59,34.59,0,0,1,3.39-7.09,21.13,21.13,0,0,1,5.5-5.82A26.21,26.21,0,0,0,838.25,361.38Z" transform="translate(-446.9 -235.44)"/><path class="cls-1" d="M526.84,332.29q-2.76-1.53-5.4-3.31a49.49,49.49,0,0,1-13.22-12.92c-.44-.66-.9-1.3-1.31-2L505.78,312a33.09,33.09,0,0,1-1.94-4.38,18,18,0,0,1-.74-2.29l-.64-2.33c-.15-.79-.26-1.59-.39-2.39a16.4,16.4,0,0,1-.3-2.4,32.61,32.61,0,0,1-.07-4.84l.15-2.42.39-2.38a34.16,34.16,0,0,1,1.09-4.68c.11-.38.2-.77.33-1.15l.41-1.14c.27-.76.54-1.51.88-2.24a42.12,42.12,0,0,1,4.77-8.36,49.83,49.83,0,0,1,6.36-7.08,65.7,65.7,0,0,1,15.44-10.44q4.15-2,8.44-3.67c2.87-1.06,5.78-2,8.71-2.82a129.77,129.77,0,0,1,28.21-4.32c4.21-.2,7.92,1.88,8.72,5.08s-1.61,8.82-1.61,8.82c-9.61-4-22-1.54-32.75.8-2.67.59-5.32,1.29-7.93,2.1s-5.14,1.77-7.63,2.85a55.82,55.82,0,0,0-13.58,8.36,36.36,36.36,0,0,0-9.55,12.1,32.33,32.33,0,0,0-3.14,14.92,13.42,13.42,0,0,0,.17,1.9c.08.64.14,1.27.23,1.91l.45,1.87a11,11,0,0,0,.51,1.85,27,27,0,0,0,1.44,3.6l.85,1.75c.31.57.68,1.12,1,1.68a42.73,42.73,0,0,0,11,11.58c1.09.8,2.22,1.57,3.37,2.31" transform="translate(-446.9 -235.44)"/><path class="cls-3" d="M853.56,416.1a19.56,19.56,0,0,1-3.5,8.5,35.64,35.64,0,0,0,11.07,2.3c7.52,0,17-7.3,17.84-9.17C879,417.73,868.58,410.49,853.56,416.1Z" transform="translate(-446.9 -235.44)"/><path class="cls-2" d="M866.68,420.87c-5.25-.64-4.84-2.09-14.2-.74a19.89,19.89,0,0,1-2.32,4.33c4,1.41,8.67,2.77,11,2.44,4.46-.63,12.76-3.56,17.84-9.17C879,417.73,873.26,421.68,866.68,420.87Z" transform="translate(-446.9 -235.44)"/><path class="cls-3" d="M863.74,395c-2.68,1.95-7.56,7.14-12,12.13a13.88,13.88,0,0,1,2,6.22c0,.17,0,.34,0,.52,4.87-1.94,10.24-4.2,13.93-6.12,8.38-4.35,14.07-20.15,14.07-20.15S869.48,390.85,863.74,395Z" transform="translate(-446.9 -235.44)"/><path class="cls-2" d="M863.74,404.88a95.59,95.59,0,0,1-10.24,6.93,13.94,13.94,0,0,1,.19,1.55,10.93,10.93,0,0,1,0,1.15c5.55-2.06,11.83-4.83,15.8-7.93,8.45-6.59,12.21-19,12.21-19A178.65,178.65,0,0,1,863.74,404.88Z" transform="translate(-446.9 -235.44)"/><path class="cls-2" d="M812.83,427.82a13.25,13.25,0,0,1-4-9.63c.1-10.51,11.65-20.09,24.23-20.09l.9,0a12.07,12.07,0,0,0-.86-1.76c-3.3-5.41-12.3-9.83-24.57-3.88s-18,20.93-13.31,30c3.47,6.68,11.16,8.2,18.71,6.34C813.57,428.52,813.19,428.18,812.83,427.82Z" transform="translate(-446.9 -235.44)"/><path class="cls-1" d="M833.1,398.1l.77,0a16,16,0,0,0-1.28-2.36c-3.34-5.11-10.73-5.42-12.26-2.61-1.18,2.15-.17,4.76,1.13,7.73A26.33,26.33,0,0,1,833.1,398.1Z" transform="translate(-446.9 -235.44)"/><path class="cls-1" d="M812.36,427.29l-.54.37.8-.08A3.58,3.58,0,0,1,812.36,427.29Z" transform="translate(-446.9 -235.44)"/><path class="cls-2" d="M823.78,399.86a25.46,25.46,0,0,1,3.76-1.13,6.86,6.86,0,0,0-1-2.24c-2.69-3.82-4.4-1.95-4.72-1.22s-.24,2.52,1.63,4.23Z" transform="translate(-446.9 -235.44)"/><path class="cls-2" d="M830.62,431.82c17.94-.89,21.35-13.77,21.08-18.34-.34-5.65-5.57-12.9-17.75-13.36s-23,8.93-23.08,18.09S820.9,432.3,830.62,431.82Z" transform="translate(-446.9 -235.44)"/><path class="cls-1" d="M821.76,429.21s16.9-3.24,20.73-9.65c3.38-5.68-4.88-9.95.45-14,2.29-1.73,8.08,1.77,8.58,7.2.55,6-2.6,15.06-15.26,17.68C830.69,432.5,823.21,429.9,821.76,429.21Z" transform="translate(-446.9 -235.44)"/><path class="cls-2" d="M847.93,418s2.66-4.24.77-8-3.63-2.28-4-1.67-.54,2.2.9,3.94S847.93,418,847.93,418Z" transform="translate(-446.9 -235.44)"/><path class="cls-3" d="M837.27,286s-11,14.88,5.84,42.25c0,0,5.15-10.65,4.82-19.31S839.33,287.51,837.27,286Z" transform="translate(-446.9 -235.44)"/><path class="cls-2" d="M837.27,286s4.52,7.61,3.91,15-3,4.11,1.93,27.27c0,0,5.69-14,4.82-19.31S843.55,293.35,837.27,286Z" transform="translate(-446.9 -235.44)"/><path class="cls-3" d="M791.11,281.61s18.18,4.64,25.88,13.91,20.66,28.56,20.66,28.56-25.52-16.14-32-22.34S791.11,281.61,791.11,281.61Z" transform="translate(-446.9 -235.44)"/><path class="cls-2" d="M837.65,324.08s-14-16.59-22-23.62a278.4,278.4,0,0,0-24.51-18.85s14,2.82,23.95,11.88S837.65,324.08,837.65,324.08Z" transform="translate(-446.9 -235.44)"/><path class="cls-3" d="M452,264.65s16.11,11.87,24.17,17.14,24.1,9.12,24.1,9.12a122.75,122.75,0,0,0-21.52-18.49C466.67,264.52,452,264.65,452,264.65Z" transform="translate(-446.9 -235.44)"/><path class="cls-3" d="M446.91,291.63c1.29,4.64,17,7.55,29,6.83S503,291.84,503,291.84s-22.32-7.83-32.34-7.67S446.35,289.6,446.91,291.63Z" transform="translate(-446.9 -235.44)"/><path class="cls-2" d="M448.11,290.15s13.17-5.13,19.06-2.82,14.46,4.75,35.85,4.51c0,0-17.69-6.92-32.34-7.67S448.11,290.15,448.11,290.15Z" transform="translate(-446.9 -235.44)"/><path class="cls-3" d="M468,235.44s12.26,8.49,19.81,19.82,8.49,19.81,16,31.13c0,0-13.21-7.55-22.64-18.87S468,235.44,468,235.44Z" transform="translate(-446.9 -235.44)"/><path class="cls-2" d="M503.88,286.39S485,263.75,480.29,254.31A125.92,125.92,0,0,0,468,235.44s4.15,1.14,14.34,11.89,9.24,13.27,14,22.86S503.88,286.39,503.88,286.39Z" transform="translate(-446.9 -235.44)"/><path class="cls-2" d="M473.34,475.67h.05l11.87-29.36h5.51v35.48h-3.6V451h-.1l-12.83,30.82h-1.91L459.51,451h-.1v30.82H455.8V446.31h5.51Z" transform="translate(-446.9 -235.44)"/><path class="cls-2" d="M503.8,478.58h19v3.21h-22.6V446.31h22v3.21H503.8v12.17H521v3.21H503.8Z" transform="translate(-446.9 -235.44)"/><path class="cls-2" d="M529.85,446.31h11.78a21.24,21.24,0,0,1,6.64,1.1,18.39,18.39,0,0,1,6,3.34,16.75,16.75,0,0,1,4.33,5.56,18.94,18.94,0,0,1,0,15.51,16.84,16.84,0,0,1-4.33,5.53,18.19,18.19,0,0,1-6,3.33,21,21,0,0,1-6.64,1.11H529.85Zm3.61,32.27h7.17a18.06,18.06,0,0,0,7-1.25,14.72,14.72,0,0,0,4.93-3.28,13.48,13.48,0,0,0,2.93-4.64,15.15,15.15,0,0,0,0-10.72,13.48,13.48,0,0,0-2.93-4.64,14.72,14.72,0,0,0-4.93-3.28,18.06,18.06,0,0,0-7-1.25h-7.17Z" transform="translate(-446.9 -235.44)"/><path class="cls-2" d="M571.39,481.79h-3.61V446.31h3.61Z" transform="translate(-446.9 -235.44)"/><path class="cls-2" d="M592.18,481.79h-3.61V449.52H576.7v-3.21h27.36v3.21H592.18Z" transform="translate(-446.9 -235.44)"/><path class="cls-2" d="M613,478.58h19v3.21h-22.6V446.31h22v3.21H613v12.17h17.18v3.21H613Z" transform="translate(-446.9 -235.44)"/><path class="cls-2" d="M642.64,481.79H639V446.31h10.42a22.34,22.34,0,0,1,4.84.5,11,11,0,0,1,3.85,1.63,7.64,7.64,0,0,1,2.53,2.93,9.71,9.71,0,0,1,.91,4.41,8.77,8.77,0,0,1-.71,3.56,8.59,8.59,0,0,1-1.9,2.78,9,9,0,0,1-2.86,1.88,12.2,12.2,0,0,1-3.6.9l10.37,16.89h-4.41l-9.82-16.59h-6Zm0-19.69h6.26a12,12,0,0,0,6.71-1.58,5.32,5.32,0,0,0,2.36-4.74,6.16,6.16,0,0,0-.65-2.95,5.33,5.33,0,0,0-1.81-2,8.16,8.16,0,0,0-2.8-1.1,17.91,17.91,0,0,0-3.66-.35h-6.41Z" transform="translate(-446.9 -235.44)"/><path class="cls-2" d="M672.65,481.79H669V446.31h10.42a22.34,22.34,0,0,1,4.84.5,11.14,11.14,0,0,1,3.86,1.63,7.72,7.72,0,0,1,2.53,2.93,9.85,9.85,0,0,1,.9,4.41,8.94,8.94,0,0,1-.7,3.56,8.77,8.77,0,0,1-1.91,2.78,9.07,9.07,0,0,1-2.85,1.88,12.34,12.34,0,0,1-3.61.9l10.37,16.89h-4.41l-9.82-16.59h-6Zm0-19.69h6.26a12.05,12.05,0,0,0,6.72-1.58,5.32,5.32,0,0,0,2.35-4.74,6.16,6.16,0,0,0-.65-2.95,5.3,5.3,0,0,0-1.8-2,8.21,8.21,0,0,0-2.81-1.1,17.91,17.91,0,0,0-3.66-.35h-6.41Z" transform="translate(-446.9 -235.44)"/><path class="cls-2" d="M698.8,481.79h-3.95l15.33-35.48h3.5l15.24,35.48h-4L721,472.47H702.66ZM704,469.16h15.64l-7.82-18.84Z" transform="translate(-446.9 -235.44)"/><path class="cls-2" d="M759.28,476.53h.1V446.31H763v35.48h-4.51l-20.64-30.52h-.11v30.52h-3.6V446.31h4.51Z" transform="translate(-446.9 -235.44)"/><path class="cls-2" d="M776,478.58h19v3.21H772.41V446.31h22v3.21H776v12.17H793.2v3.21H776Z" transform="translate(-446.9 -235.44)"/><path class="cls-2" d="M801.82,481.79h-4l15.33-35.48h3.51l15.23,35.48h-4L824,472.47H805.68ZM807,469.16h15.63l-7.82-18.84Z" transform="translate(-446.9 -235.44)"/><path class="cls-2" d="M862.29,476.53h.1V446.31H866v35.48h-4.51l-20.64-30.52h-.1v30.52h-3.61V446.31h4.51Z" transform="translate(-446.9 -235.44)"/></svg>