<svg id="logo" xmlns="http://www.w3.org/2000/svg" viewBox="0 0 679.9 734.4"><defs><style>.cls-1{fill:#8fb4ef;}.cls-2{fill:#3d79f2;}</style></defs><title>parent_logo_tinted</title><g id="Layer_3" data-name="Layer 3"><g id="logo-2" data-name="logo"><path id="dot" class="cls-1" d="M665.6,862.7a33.8,33.8,0,0,1-25.4-56.1l91.5-92.5a33.77,33.77,0,0,1,55.6,25.8A33.66,33.66,0,0,1,777.2,764c-70.7,70.8-85.9,87-91.4,92A33.57,33.57,0,0,1,665.6,862.7Z" transform="translate(-397.9 -706.1)"/><g id="lines"><path class="cls-2" d="M478.5,1160.8a80.54,80.54,0,0,1-50.9-143l.1-.1.1-.1c10.8-10.1,148.1-145.2,149.8-146.5a33.78,33.78,0,0,1,54.1,27,33.38,33.38,0,0,1-12.5,26.2L499.6,1042.8l-26.1,25.4a12.37,12.37,0,0,0,7.8,22,12.32,12.32,0,0,0,8.9-3.8L795.6,781.7a33.35,33.35,0,0,1,23.7-9.7,33.81,33.81,0,0,1,23.4,58.2L535.4,1137.4A81,81,0,0,1,478.5,1160.8Z" transform="translate(-397.9 -706.1)"/><path class="cls-2" d="M677.3,1340.1a128.2,128.2,0,0,1-90.6-218.9l271.7-271,.1-.1a33.8,33.8,0,1,1,50.7,44.7c-4,4-250.1,250.7-252.5,253.2l-.1.1c-1.1,1.2-27.9,29.9-27.9,51.9a59.15,59.15,0,0,0,59.1,59.1c20.5,0,48-23.7,49.2-24.7l.1-.1.1-.1c1.8-1.8,177.3-176.1,181.3-179.9a33.8,33.8,0,0,1,46.9,48.6c-1.3,1.3-194.7,197.1-196.7,199A127.48,127.48,0,0,1,677.3,1340.1Z" transform="translate(-397.9 -706.1)"/><path class="cls-2" d="M744.2,1440.5a33.81,33.81,0,0,1-21.5-59.9l.2-.1L970.4,1134c1.1-1.2,27.9-29.9,27.9-51.9a59.15,59.15,0,0,0-59.1-59.1c-20.5,0-48,23.7-49.2,24.7l-.1.1L708.6,1227.3a33.8,33.8,0,0,1-46.3-48.7l196-198.4a128.17,128.17,0,1,1,181.9,180.6L768.6,1429.9A32.92,32.92,0,0,1,744.2,1440.5Z" transform="translate(-397.9 -706.1)"/></g></g></g></svg>