<svg id="Layer_8" data-name="Layer 8" xmlns="http://www.w3.org/2000/svg" viewBox="0 0 241.1 300.15"><defs><style>.cls-1{fill:#3ac4e5;}.cls-2{fill:#a9dff0;}</style></defs><title>Precise</title><path class="cls-1" d="M382.65,331.12a89.92,89.92,0,0,0-16.31.75,78.09,78.09,0,0,0-17.4,4.59c-11.39,4.35-21.35,12.11-28,19.23a97.24,97.24,0,0,0-7.67,9.29c-1.68,2.52-2.75,4-2.81,4.17s-.22.31-2.2-.49a263.83,263.83,0,0,1-28.79-12.91,173.35,173.35,0,0,1-19.95-12.14,117.14,117.14,0,0,1-20.32-18.14c-.48-.53-2.06-2.69-2.1-3.32.15-.31,2.12-3.21,5.45-8a183.25,183.25,0,0,1,15.33-18.5,171.52,171.52,0,0,1,25.78-22.17,160.24,160.24,0,0,1,34.62-18.36A165,165,0,0,1,356,245.59a171.56,171.56,0,0,1,28.4-1.27V163.11h-200v258h200V331.23Z" transform="translate(-163.85 -142.03)"/><path class="cls-2" d="M239.19,325.47c-.48-.53-2.06-2.69-2.1-3.32.15-.31,2.12-3.21,5.45-8,1.88-2.52,4.18-5.6,7-9l40.28-142H184.4v258h32.21l26.06-91.88C241.49,328,240.33,326.77,239.19,325.47Z" transform="translate(-163.85 -142.03)"/><path class="cls-1" d="M400,147V437.18H168.85V147H400m5-5H163.85V442.18H405V142Z" transform="translate(-163.85 -142.03)"/></svg>