<svg id="Layer_1" data-name="Layer 1" xmlns="http://www.w3.org/2000/svg" viewBox="0 0 143.09 57.46"><defs><style>.cls-1{fill:#f2f2f2;}</style></defs><title>works</title><path class="cls-1" d="M154.57,126.46a.36.36,0,0,1,.11-.25c.07-.07.16-.15.25-.25l.36,1.37a8.77,8.77,0,0,0,.51-1.59,4.5,4.5,0,0,1,.57-1.44l.22-.5a10.57,10.57,0,0,1,.36-1.19c.14-.4.26-.8.36-1.19a2.93,2.93,0,0,0,.14-.9v-.9a2.22,2.22,0,0,0,.07-.57v-.65a5.79,5.79,0,0,1,0-.72,1.51,1.51,0,0,0-.11-.72,1,1,0,0,0-.11-.5c-.07-.15,0-.34.18-.58a.48.48,0,0,0-.07-.43.87.87,0,0,1,0-.72.6.6,0,0,0,.11-.43.57.57,0,0,1,.11-.44.85.85,0,0,0-.07-.75.86.86,0,0,1-.15-.69,2,2,0,0,0-.43-1.22.9.9,0,0,1-.22-.79q.36-1.08-.36-1.44a1,1,0,0,1-.46-.54c-.08-.22-.16-.44-.26-.69a1,1,0,0,1-.1-.32.37.37,0,0,0-.18-.25,3.69,3.69,0,0,1-1.08-1.08,5.41,5.41,0,0,0-.36-.58,1.48,1.48,0,0,1-.29-.65,1.17,1.17,0,0,0-.58-.86l-.5-.22a2.7,2.7,0,0,0-.83-.54l-1-.32a12.26,12.26,0,0,0-1.41-.47A11,11,0,0,1,148,102l-.94.36-.36.72a1.18,1.18,0,0,0-.07.65l.29.72.29.72a1.83,1.83,0,0,0,.36.61c.14.17.4.21.79.11a1,1,0,0,1,1.08.43,4,4,0,0,1,.21,1.23l.15,3.67c0,1.3-.06,2.59-.18,3.89s-.3,2.64-.54,4a21.59,21.59,0,0,1-.72,3.35q-.51,1.69-1.08,3.42c-.24.82-.53,1.64-.86,2.48l-1,2.49-1.3,2.88c-.43,1-1,2.17-1.69,3.49s-1.42,2.58-2.16,3.78a36.9,36.9,0,0,1-2.12,3.09c-.68.87-1.22,1.33-1.62,1.37s-.63-.42-.65-1.4a23.48,23.48,0,0,1,.83-5.15,24.53,24.53,0,0,1,.64-3.06c.29-1,.63-2.1,1-3.2.34-.87.66-1.75,1-2.67s.59-1.8.83-2.66a7.12,7.12,0,0,1,.87-2,5,5,0,0,0,.68-1.58,13.66,13.66,0,0,1,.47-1.59c.09-.23.09-.38,0-.43a.26.26,0,0,1-.15-.32,1.24,1.24,0,0,0,.08-.47,2.91,2.91,0,0,0,.1-.54.56.56,0,0,0-.1-.47,3.61,3.61,0,0,1-.36-.54.82.82,0,0,1-.08-.61.75.75,0,0,0-.39-.76c-.27-.11-.57-.22-.9-.32l-.87-.29a6.06,6.06,0,0,0-.93-.21,7.93,7.93,0,0,1-1.12-.22,2.41,2.41,0,0,0-1.26.07c-.24.1-.5.2-.79.29a1,1,0,0,0-.58.43,11.75,11.75,0,0,0-.79,1.23,4.58,4.58,0,0,0-.5,1.29,16.8,16.8,0,0,1-.79,2.56c-.34.84-.7,1.67-1.08,2.48-.39,1-.82,2-1.3,3s-1,2-1.51,3c-.2.38-.4.78-.61,1.19s-.43.82-.62,1.26a2.14,2.14,0,0,1-.5.57,1.2,1.2,0,0,0-.54.4c-.12.17-.25.37-.4.61a27.82,27.82,0,0,1-2.8,4.68c-.87,1.11-1.56,1.65-2.09,1.62s-.86-.65-1-1.87a25.64,25.64,0,0,1,.39-5.73,6,6,0,0,0,.07-.9v-.82a13.63,13.63,0,0,0,.08-1.41,5.89,5.89,0,0,1,.14-1.33c.14-.86.28-1.73.4-2.59a25,25,0,0,1,.46-2.52c.19-1,.37-1.93.54-2.92s.37-2,.62-2.91c.09-.67.16-1.3.21-1.88a3.25,3.25,0,0,0-.29-1.65,1.32,1.32,0,0,1-.21-.79.9.9,0,0,0-1.08-.8,7.2,7.2,0,0,0-1.08.08,9.73,9.73,0,0,0-1.08.21.8.8,0,0,0-.07.36,11.54,11.54,0,0,1-.11,2.34c-.12.79-.28,1.6-.47,2.41-.24,1-.43,1.95-.58,3a15.12,15.12,0,0,1-.72,3q-1,2.81-1.76,5.61T114.25,136c-.24,1-.53,2-.86,3.06s-.65,2.1-.94,3.2a14.5,14.5,0,0,0-.47,3.28,15.54,15.54,0,0,0,.26,3.2,1.52,1.52,0,0,0,.72,1.08,3.2,3.2,0,0,0,2.44.58l3.53-.14h.58a23.69,23.69,0,0,0,2.7-1,10.41,10.41,0,0,0,2.48-1.54,3.25,3.25,0,0,0,.65-.51,7.56,7.56,0,0,1,.65-.57c1.44-1.78,2.51-3,3.2-3.71s1.2-1,1.51-.79.48.75.51,1.76.08,2.35.18,4c.09.24.19.47.29.69a2,2,0,0,0,.43.61,4.34,4.34,0,0,0,1.4,1.15c.55.29,1.09.55,1.62.79a3.43,3.43,0,0,0,1.87.22,2.16,2.16,0,0,1,.65-.07,3,3,0,0,0,1.91-.36,5.06,5.06,0,0,0,1.55-1.37c.72-.87,1.42-1.74,2.12-2.63s1.36-1.76,2-2.63,1-1.52,1.48-2.27.92-1.5,1.4-2.26l1.37-2.31c.09-.19.18-.37.25-.54a3.8,3.8,0,0,0,.18-.54,3.12,3.12,0,0,1,.43-.9,6.46,6.46,0,0,1,.65-.75,2,2,0,0,0,.58-.69c.09-.21.19-.47.29-.75s.18-.59.25-.9a1.34,1.34,0,0,1,.75-.83.62.62,0,0,0,.22-.43c.29-.82.59-1.61.9-2.38A9.36,9.36,0,0,0,154.57,126.46Zm1.19-3.24c0-.09.13-.21.32-.36,0,.25,0,.47,0,.69a4.35,4.35,0,0,0,0,.61h-.14A3.33,3.33,0,0,1,155.76,123.22Zm-6.52-.43A22.83,22.83,0,0,1,148,127h-.29c.14-.48.26-.94.36-1.37s.22-.89.36-1.37.28-1,.4-1.44a7.88,7.88,0,0,1,.46-1.37,9.14,9.14,0,0,0,.33-1.4,4.81,4.81,0,0,1,.47-1.4C149.8,120,149.53,121.4,149.24,122.79Zm1.84-9.79a3.77,3.77,0,0,0,0,.58,2.91,2.91,0,0,0,0,.57.84.84,0,0,1-.25.58.41.41,0,0,0-.29.07l.43-3.46H151a3,3,0,0,0,0,.54,4.56,4.56,0,0,1,0,.54A5.46,5.46,0,0,1,151.08,113Z" transform="translate(-111.98 -101.98)"/><path class="cls-1" d="M200.07,133.09a2.48,2.48,0,0,1-.43.47,4,4,0,0,1-.43.32l-.29.36a.32.32,0,0,1-.39,0,.34.34,0,0,0-.4,0c0,.05-.07,0-.07-.11s-.1-.22-.29-.32a4.56,4.56,0,0,0,0-1c0-.31,0-.64,0-1s0-1,0-1.44a6.36,6.36,0,0,0-.11-1.44l-.51-3v-.28a5.29,5.29,0,0,0-.75-1.16,1.39,1.39,0,0,0-1.05-.43c-.24,0-.46,0-.68,0s-.44,0-.68,0a1.75,1.75,0,0,0-1.16.87,16.24,16.24,0,0,1-1.15,1.8c-.19.38-.38.73-.57,1s-.41.64-.65,1-.39.69-.72,1.34-.69,1.35-1.05,2.12l-1,2.16a5.85,5.85,0,0,0-.54,1.44,4.68,4.68,0,0,1-.69,1.15,6.06,6.06,0,0,1-1.08,1.15c-.36.29-.65.39-.86.29s-.18-.57.11-1.44a16.75,16.75,0,0,1,1.65-4,20.56,20.56,0,0,0,1.8-4.17,2.55,2.55,0,0,1,.25-.72l.18-.22a1.64,1.64,0,0,0,.18-.22,2.19,2.19,0,0,0,.26-.71,3.8,3.8,0,0,0,.25-1.77,4.66,4.66,0,0,0-.61-1.62l-1.08-1.19a5.22,5.22,0,0,1-.87-1.26,3.72,3.72,0,0,0-.75-.5,3.26,3.26,0,0,0-.69-.22,9.42,9.42,0,0,0-1-.21,5.37,5.37,0,0,0-.83-.08,1.06,1.06,0,0,0-.83,0,1.81,1.81,0,0,0-.46.9c-.29.58-.56,1.15-.8,1.73s-.48,1.2-.72,1.87c-.09.24-.19.47-.28.68a3.26,3.26,0,0,0-.22.69l-.54,1.62a6.63,6.63,0,0,0-.25,1c-.05.29-.1.61-.15,1s-.14.9-.28,1.62a10.46,10.46,0,0,0-.29,1.12,7.56,7.56,0,0,0-.11.75c0,.25,0,.51-.07.8s-.08.69-.18,1.22a1.15,1.15,0,0,0,0,.19l-.35.17a18,18,0,0,1-2.27.25c-.65,0-1.27,0-1.87,0s-1.24,0-1.91,0-1.44,0-2.3,0a.88.88,0,0,1-.69-.29.58.58,0,0,1-.1-.65,3.62,3.62,0,0,0,.07-1.19,5.31,5.31,0,0,1,0-1.26s0-.18,0-.39,0-.4,0-.54a2.52,2.52,0,0,1-.15-.83,6.2,6.2,0,0,0-.07-.9,9.87,9.87,0,0,1-.22-1.08,9.56,9.56,0,0,0-.21-1,3.69,3.69,0,0,1-.36-.75c-.1-.27-.2-.54-.29-.83a5.13,5.13,0,0,0-1.44-2.16,4.16,4.16,0,0,1-.68-.51l-.69-.57a2.91,2.91,0,0,1-.47-.36c-.21-.19-.45-.4-.72-.61a5.34,5.34,0,0,0-.75-.54,1.17,1.17,0,0,0-.58-.22,3.33,3.33,0,0,0-2.3.36c-.44.24-.83.48-1.19.72a11.65,11.65,0,0,0-1,.72.7.7,0,0,0-.51.36,7.07,7.07,0,0,0-.72,1.73,4.52,4.52,0,0,0-.07,1.8,15.06,15.06,0,0,0,.47,2.37,9,9,0,0,0,.9,2.16.29.29,0,0,1,.07.22c-.1.24-.19.39-.29.43-.53.68-1,1.35-1.47,2a12.42,12.42,0,0,0-1.19,2.23,12,12,0,0,0-1.23,4,11,11,0,0,0-.1,2,16.94,16.94,0,0,0,.18,2l.64,1.94a7.49,7.49,0,0,0,1.23,1.55,3,3,0,0,0,1.66.76,6.87,6.87,0,0,0,1.43.14,6,6,0,0,0,1.52-.21,1.37,1.37,0,0,1,.72-.29,4.07,4.07,0,0,0,2-1.37.66.66,0,0,1,.43-.43l.51-.36a1.85,1.85,0,0,0,.57-.54c.15-.22.29-.44.44-.69l.72-1a7,7,0,0,0,.65-1.16,18.15,18.15,0,0,1,.79-1.8,6,6,0,0,0,.57-1.8,1.19,1.19,0,0,0,.15-.36c0-.14.14-.21.43-.21h.21c.63,0,1.48,0,2.56,0s2.18-.09,3.31-.21a17.06,17.06,0,0,0,3.21-.65,6.42,6.42,0,0,0,.66-.24c0,.26,0,.53,0,.78,0,.91-.06,1.85-.11,2.81,0,.62,0,1.25,0,1.87a14.79,14.79,0,0,0,.18,1.87,5.55,5.55,0,0,0,.68,1.84,2.15,2.15,0,0,0,1.33,1c.19.19.34.24.43.14a4.63,4.63,0,0,0,1.62.15,2,2,0,0,0,1.41-1,.59.59,0,0,1,.25-.18c.07,0,.11-.08.11-.18a8.11,8.11,0,0,0,.54-.76,13.7,13.7,0,0,0,.75-1.33L186,143c.21-.43.35-.69.39-.79.1-.29.21-.58.33-.86s.23-.55.32-.8a12.68,12.68,0,0,1,.9-2.26c.36-.7.71-1.43,1.05-2.2.24-.53.46-1,.68-1.44a12.23,12.23,0,0,0,.61-1.44c.24-.67.49-1.31.76-1.91s.56-1.21.9-1.83l.18-.33a.44.44,0,0,0,0-.39,3,3,0,0,1,.44-1.3l1-1.8.29-.36s.07-.07.22-.07a1.48,1.48,0,0,1-.07.79l-.22,1.3a4.91,4.91,0,0,0-.07.86,3.33,3.33,0,0,1-.15.94,15.34,15.34,0,0,0-.14,2.05,6,6,0,0,0,.36,2,4,4,0,0,0,.76,1.33,2.06,2.06,0,0,0,1.11.69,7.52,7.52,0,0,0,.76.25,3.08,3.08,0,0,1,.75.32c.15.15.34.15.58,0a1.11,1.11,0,0,1,.65-.29,1.06,1.06,0,0,0,.79-.36l.22-.14.21-.22.22-.21c.19-.05.33-.22.43-.51l.22-.36a.67.67,0,0,0,.28-.57Q200.37,132.58,200.07,133.09Zm-35.71,6.15a3.11,3.11,0,0,1-.43.9c-.38.82-.79,1.62-1.22,2.42a10.55,10.55,0,0,1-1.59,2.19l-.28.22a.21.21,0,0,1-.15.07,1.53,1.53,0,0,1-.79-.86c-.1-.19-.12-.31-.07-.36v-.58a2.36,2.36,0,0,1,.07-.58q.36-1,.57-1.62a7.13,7.13,0,0,1,.8-1.47,4.85,4.85,0,0,1,1.44-1.33,2.1,2.1,0,0,1,1.94.18C164.55,138.66,164.46,138.93,164.36,139.24Zm1.88-5.94a2.34,2.34,0,0,1-1.27,1.48,2.11,2.11,0,0,1-1.83-.22,4.69,4.69,0,0,1-1.8-2.05,12.19,12.19,0,0,1-1.3-1.76,9,9,0,0,1-1-2.16,6.6,6.6,0,0,1-.25-2.31,4.14,4.14,0,0,1,.79-2.19c.15-.15.34-.33.58-.54A4.59,4.59,0,0,1,161,123a4.17,4.17,0,0,1,.83-.36.82.82,0,0,1,.75.18c.24.15.46.29.65.43l.65.51a1.26,1.26,0,0,1,.54.39,3,3,0,0,0,.4.47,3.79,3.79,0,0,1,1,1.73c.19.77.36,1.54.51,2.3a3,3,0,0,1,.07,1.73A6,6,0,0,1,166.24,133.3Z" transform="translate(-111.98 -101.98)"/><path class="cls-1" d="M254.94,133.52l-.29-.72L253.57,134l-.68.72q-.33.38-.69.72c-.77.68-1.53,1.3-2.3,1.88q-.79.65-1.62,1.26l-1.62,1.18a11.57,11.57,0,0,0-1.48.58l-1.4.65a2.48,2.48,0,0,1-1.19.25.84.84,0,0,1-.76-.61,1.19,1.19,0,0,1-.28-.69,1,1,0,0,0-.36-.68,3,3,0,0,1-.58-.9c-.19-.41-.4-.83-.61-1.26s-.43-.85-.65-1.26a2.85,2.85,0,0,0-.68-.9,4,4,0,0,1-.36-.4A2,2,0,0,1,238,134a3.83,3.83,0,0,1-.15-1.22,3.79,3.79,0,0,1,.22-1.37l.57-1.15.08-.14v-.08a.48.48,0,0,1,.07-.46,1.62,1.62,0,0,0,.21-.33,1.58,1.58,0,0,1,.58-.72.47.47,0,0,0,.29-.21A2.49,2.49,0,0,1,240,128a3.61,3.61,0,0,0,.33-.94,8,8,0,0,1,.25-.94,1.61,1.61,0,0,0,.14-.64v-.65a.89.89,0,0,1-.14-.58,3,3,0,0,0-.22-1,12.53,12.53,0,0,0-.5-1.22,7.7,7.7,0,0,0-.61-1.08,2.59,2.59,0,0,0-.54-.62.26.26,0,0,0-.15-.07,6.17,6.17,0,0,0-1.29-.86c-.1-.1-.27,0-.51.29a.9.9,0,0,1-.43.5,2.9,2.9,0,0,0-.29.22,6.24,6.24,0,0,1-.5.72,4.24,4.24,0,0,0-.5.79l-.65,1.29a1,1,0,0,0-.22.33,1,1,0,0,1-.21.32l-.22.54c-.05.12-.12.28-.22.47a5.56,5.56,0,0,0-.25.61,3.71,3.71,0,0,1-.25.61.8.8,0,0,1,.07.58,2.15,2.15,0,0,1-.14.43,2.05,2.05,0,0,0-.36,1.3.42.42,0,0,0-.11.32.26.26,0,0,1-.11.25,8.61,8.61,0,0,0,.22,1.59c.14.72.32,1.47.54,2.27s.44,1.53.68,2.23a11,11,0,0,0,.49,1.23l-.06.1a12.67,12.67,0,0,1-1,1.8c-.48.77-1,1.51-1.41,2.23a13.21,13.21,0,0,1-1.55,2,4.91,4.91,0,0,0-.68.61c-.36.36-.74.76-1.15,1.19s-.79.82-1.15,1.15l-.62.58a6.46,6.46,0,0,0-.86.54l-1.22.82c-.44.29-.83.57-1.19.83a2.72,2.72,0,0,1-.83.47,5.44,5.44,0,0,1-1.12.29,3.45,3.45,0,0,1-1.18-.07,1.35,1.35,0,0,1-1.23-.87,12.58,12.58,0,0,1-1.22-2,7.08,7.08,0,0,1-.43-.83,3.53,3.53,0,0,1-.29-1.12.43.43,0,0,0,.21-.21.23.23,0,0,1,.22-.15c.34-.14.65-.26.94-.36a3.86,3.86,0,0,0,1.65-1.29,2.74,2.74,0,0,0,.51-.51,3.06,3.06,0,0,1,.57-.57,6.64,6.64,0,0,0,.79-1.26c.2-.41.39-.85.58-1.34l.14-.72a16.14,16.14,0,0,0,.62-2.66,18.79,18.79,0,0,0,.18-2.59,4.38,4.38,0,0,0-.8-2.67,4.41,4.41,0,0,1-.28-.5,1,1,0,0,0-.87-.65,5.75,5.75,0,0,0-4.68,1.37,21.86,21.86,0,0,0-2.16,2.34c-.67.84-1.32,1.69-1.94,2.56a14.67,14.67,0,0,0-1.62,2.62,24.35,24.35,0,0,1-1.48,2.63c-.24.39-.48.53-.72.43s-.29-.72-.14-1.87a9.13,9.13,0,0,0,.36-1.29c.09-.48.19-1,.29-1.44a4.6,4.6,0,0,1,.14-.51,3.38,3.38,0,0,0,.14-.57,22.49,22.49,0,0,1,.9-2.7c.36-.89.74-1.77,1.12-2.63s.6-1.44.94-2.16.64-1.42.93-2.09l.79-1.51a13.57,13.57,0,0,1,.8-1.62c.28-.51.55-1,.79-1.55a10.45,10.45,0,0,0,.61-1.12c.17-.36.32-.73.47-1.11a1.86,1.86,0,0,1,.14-.25.46.46,0,0,0,.07-.26c.39-.52.76-1,1.12-1.54s.73-1,1.12-1.62a2,2,0,0,0,.25-.33,2.32,2.32,0,0,0,.18-.39,11.42,11.42,0,0,0,1-1,9.86,9.86,0,0,1,1-1c.72-.72,1.42-.82,2.09-.29l.29.29.29.29a2.41,2.41,0,0,0,.25.11.59.59,0,0,1,.25.18.78.78,0,0,0,.4-.18.8.8,0,0,0,.32-.47v-.65a3.81,3.81,0,0,0-.72-2.38,14.54,14.54,0,0,0-3.31-3.67c-.38-.29-.76-.57-1.12-.86a2.93,2.93,0,0,1-.82-1,.58.58,0,0,1-.22-.18c0-.07-.1-.11-.14-.11-.34.05-.66.09-1,.11a1.3,1.3,0,0,0-.82.4l-.83.68a9.94,9.94,0,0,0-.76.68,15.78,15.78,0,0,0-1.73,1.91c-.52.7-1.05,1.43-1.58,2.2-.72,1.2-1.45,2.44-2.2,3.71s-1.42,2.58-2.05,3.92a10.63,10.63,0,0,0-.65,1.26,12.52,12.52,0,0,1-.64,1.33q-.66,1.52-1.26,3c-.41,1-.78,2-1.12,3a12,12,0,0,0-.61,1.69q-.26.9-.54,1.77l-.72,2.91a15.18,15.18,0,0,0-.43,3,5.49,5.49,0,0,1-.08.94c0,.28-.09.6-.14.93,0,.72-.1,1.44-.14,2.16a10.41,10.41,0,0,0,.07,2.16c.05.58.1,1.15.14,1.73a6.08,6.08,0,0,1-.07,1.66,1.16,1.16,0,0,0,.07.43,9.53,9.53,0,0,0,.69,2.27,3.86,3.86,0,0,0,1.47,1.69,2.44,2.44,0,0,0,1.41.75,4.23,4.23,0,0,0,1.76-.46,1.05,1.05,0,0,1,.58-.33l.5,0a1,1,0,0,0,.86-.36l.33-.65a7.55,7.55,0,0,0,.32-.72,4.38,4.38,0,0,1,.33-.65l.39-.65a.56.56,0,0,0,.15-.43.57.57,0,0,1,.14-.43c.34-.48.59-.61.76-.4s.42.52.75.9a26,26,0,0,0,1.26,2.34q.69,1.13,1.26,2.13l1.15,1.44a3.81,3.81,0,0,0,3.1,1.15,5.91,5.91,0,0,0,1.12-.11c.36-.07.73-.16,1.11-.25a3,3,0,0,0,1.08-.51c.43-.28.9-.61,1.41-1l1.4-1a7.73,7.73,0,0,1,1.08-.68,6,6,0,0,1,.58-.25,1.94,1.94,0,0,0,.64-.47q.22-.21.87-.9l1.4-1.48c.51-.52,1-1,1.37-1.51s.68-.79.83-.93q.36-.72.75-1.41c.27-.45.52-.9.76-1.33v-.14a7.55,7.55,0,0,0,.68-1.41c.1-.27.22-.57.32-.87.24.44.49.88.69,1.3a14.68,14.68,0,0,1,.83,2.2l.5,1.4a2.24,2.24,0,0,1,.11,1.19,3.13,3.13,0,0,1-.57,1.23,12.25,12.25,0,0,1-1.48,1.58,23.94,23.94,0,0,0-3.74,4.32,14.55,14.55,0,0,0-.76,1.26,4.88,4.88,0,0,0-.47,1.33,3.38,3.38,0,0,0-.21,1.15c.09.39.16.76.21,1.12a1.89,1.89,0,0,0,.43,1,1,1,0,0,1,.29.51,4.9,4.9,0,0,0,.22.64c.29.53.67.65,1.15.36a.44.44,0,0,0,.36-.21.77.77,0,0,0,.29-.07.6.6,0,0,1,.29-.08l-.15.36a.74.74,0,0,0,.51.08,6,6,0,0,1,.61-.22,1.6,1.6,0,0,0,.54-.29.35.35,0,0,1,.18-.18.66.66,0,0,0,.25-.18.47.47,0,0,0,.22.22v.21a3.4,3.4,0,0,1,.61-.39.89.89,0,0,1,.32,0c-.24.29-.46.57-.65.83s-.41.56-.64.9l.28-.22a2.32,2.32,0,0,0,1.37-.79l.15-.14.75-.33a1.34,1.34,0,0,0,.61-.54l.58-.72.65-.64c.29-.29.57-.6.86-.94s.56-.67.83-1a5.61,5.61,0,0,0,.54-.79,2.76,2.76,0,0,1,.4-.68,8.27,8.27,0,0,0,.46-.69l.22-.14a1.54,1.54,0,0,0,.36-.36,2,2,0,0,0,.11-.83,1.3,1.3,0,0,1,.18-.83v-.07a.53.53,0,0,1,.07-.22.28.28,0,0,1,0-.28.3.3,0,0,0,0-.29c.1-.43.18-.76.25-1a2,2,0,0,0,.11-.58,2.15,2.15,0,0,0-.07-.5,6.14,6.14,0,0,1-.15-.83,1.74,1.74,0,0,1,.36-1.15,2.58,2.58,0,0,1,.9-.69l1.16-.5a5.5,5.5,0,0,0,1.18-.69l.8-.64,1.15-.9a9.49,9.49,0,0,1,1.15-.83l.29-.29,1.51-1.3.94-.86a4.13,4.13,0,0,0,.46-.72,4.21,4.21,0,0,1,.47-.72,4.91,4.91,0,0,0,.65-1.37.65.65,0,0,1,.07-.29l.15-.28A1.38,1.38,0,0,0,254.94,133.52Zm-52.27,7.27v-1.51a2.45,2.45,0,0,1,.14.65A5.6,5.6,0,0,1,202.67,140.79Zm13.17-2.23a1.64,1.64,0,0,1-.57.32,3.75,3.75,0,0,1-.83.26.86.86,0,0,1-.58,0c-.12-.07-.08-.25.11-.54a3.12,3.12,0,0,1,.43-.9,4.39,4.39,0,0,0,.51-1,3.17,3.17,0,0,0,.46-.83c.12-.31.26-.66.4-1a10.39,10.39,0,0,1,.86-1.52c.34-.47.7-.93,1.08-1.36.92-1.16,1.62-1.73,2.13-1.73s.47.93-.11,2.81a20.71,20.71,0,0,1-1.66,3.09A9.7,9.7,0,0,1,215.84,138.56Zm21.82,11.09a3.5,3.5,0,0,0-.25,1.08,2.55,2.55,0,0,1-.33,1,8.77,8.77,0,0,1-.86,1.87,1.28,1.28,0,0,0-.11.25.59.59,0,0,1-.18.25,5.65,5.65,0,0,1-1.58,1.95l-.87.93-.86.72a.56.56,0,0,1-.79.07l-.87-1a.81.81,0,0,1-.14-.94,1.27,1.27,0,0,0,.14-.54,3.93,3.93,0,0,1,.07-.61,3.47,3.47,0,0,1,.72-.94,2.07,2.07,0,0,0,.72-.93,1.7,1.7,0,0,1,1.08-1.08,1.48,1.48,0,0,0,.72-.44c.19-.19.49-.51.9-1a13.81,13.81,0,0,1,1.16-1.15,2.13,2.13,0,0,1,1-.54c.29,0,.43.22.43.79C237.73,149.58,237.71,149.65,237.66,149.65Z" transform="translate(-111.98 -101.98)"/></svg>